{
.formatVersion = 3;
axes = (
{
name = Weight;
tag = wght;
}
);
classes = (
{
code = "Lslash Zcaron A B C D E F G H I J K L M N O P Q R S T U V X Y Z Scaron OE Ydieresis Agrave Aacute Acircumflex Atilde Adieresis Aring AE Ccedilla Egrave Eacute Ecircumflex Edieresis Igrave Iacute Icircumflex Idieresis Eth Ntilde Ograve Oacute Ocircumflex Otilde Odieresis Oslash Ugrave Uacute Ucircumflex Udieresis Yacute Thorn Amacron Aogonek Ccaron Cacute Zacute Dcaron Emacron Edotaccent Ecaron Eogonek Iogonek Imacron Kcommaaccent Lcommaaccent Lcaron Lacute Ncommaaccent Nacute Ncaron Ohungarumlaut Omacron Racute Rcaron Rcommaaccent Sacute Tcaron Umacron Uring Uhungarumlaut Uogonek Zdotaccent Gcommaaccent Dcroat Acyr Becyr Vecyr Gecyr Decyr Iecyr Zhecyr Zecyr Icyr Ishortcyr Kacyr Elcyr Emcyr Encyr Ocyr Pecyr Ercyr Escyr Tecyr Ucyr Efcyr Hacyr Tsecyr Checyr Shacyr Shchacyr Hardcyr Ylongcyr Softcyr Ereversedcyr Yucyr Yacyr Geupcyr Iukrcyr Djecyr Gjecyr Jecyr Eukrcyr Yukrcyr Ljecyr Njecyr Dzecyr Tshecyr Kjecyr Ushortcyr Dzhecyr Iocyr Abreve Scommaaccent Tcommaaccent Gbreve Idotaccent Scedilla Cdotaccent Gdotaccent Hbar Itilde IJ Eng Tcedilla Tbar Utilde Wcircumflex Ycircumflex Iegravecyr Igravecyr Yatcyr Fitacyr Wgrave Wacute Wdieresis Ygrave Gestrokecyr Zhetailcyr Katailcyr Entailcyr Ustraightcyr Ustraightstrokecyr Xatailcyr Chetailcyr Shhacyr Palochkacyr Schwacyr Imacroncyr Obarcyr Umacroncyr Dzcaron LJ Lj NJ Nj Acaron Icaron Ocaron Ucaron Udieresismacron Udieresisacute Udieresiscaron Udieresisgrave DZ Dz Acircumflexacute Acircumflexgrave Acircumflextilde Abreveacute Abrevegrave Abrevetilde Etilde Ecircumflexacute Ecircumflexgrave Ecircumflextilde Ocircumflexacute Ocircumflexgrave Ocircumflextilde Ytilde Eiotifiedcyr Yuslittlecyr Yuslittleiotifiedcyr Yusbigcyr Yusbigiotifiedcyr Ukcyr DZcaron";
name = cpsp;
},
{
code = "zero one two three four five six seven eight nine";
name = ordn_pnum_sinf_subs_sups_tnum;
},
{

glyphs = (
{
glyphname = .notdef;
layers = (
{
layerId = "197E8B11-68AA-4AD5-97B2-73874077EF42";
shapes = (
{
closed = 1;
nodes = (
(224,0,l),
(1711,0,l),
(1711,1483,l),
(224,1483,l)
);
},
{
closed = 1;
nodes = (
(1019,1366,l),
(1536,1366,l),
(1536,604,l),
(1019,604,l)
);
},
{
closed = 1;
nodes = (
(916,1366,l),
(916,604,l),
(764,604,l),
(764,749,l),
(549,1069,l),
(549,604,l),
(398,604,l),
(398,1366,l),
(549,1366,l),
(764,1041,l),
(764,1366,l)
);
},
{
closed = 1;
nodes = (
(398,456,l),
(629,456,l),
(629,389,l),
(465,389,l),
(465,183,l),
(561,183,l),
(561,252,l),
(515,252,l),
(515,321,l),
(629,321,l),
(629,117,l),
(398,117,l)
);
},
{
closed = 1;
nodes = (
(678,456,l),
(746,456,l),
(746,183,l),
(883,183,l),
(883,117,l),
(678,117,l)
);
},
{
closed = 1;
nodes = (
(795,456,l),
(862,456,l),
(862,321,l),
(938,321,l),
(938,456,l),
(1005,456,l),
(1005,117,l),
(938,117,l),
(938,252,l),
(795,252,l)
);
},
{
closed = 1;
nodes = (
(1060,456,l),
(1272,456,l),
(1272,252,l),
(1127,252,l),
(1127,117,l),
(1060,117,l)
);
},
{
closed = 1;
nodes = (
(1327,456,l),
(1394,456,l),
(1394,321,l),
(1470,321,l),
(1470,456,l),
(1536,456,l),
(1536,117,l),
(1470,117,l),
(1470,252,l),
(1394,252,l),
(1394,117,l),
(1327,117,l)
);
},
{
closed = 1;
nodes = (
(1172,1214,l),
(1172,755,l),
(1387,755,l),
(1387,1214,l)
);
},
{
closed = 1;
nodes = (
(1127,389,l),
(1127,321,l),
(1203,321,l),
(1203,389,l)
);
}
);
width = 1830;
},
{
layerId = "78E15571-ED7D-4566-909A-841824FB4F05";
shapes = (
{
closed = 1;
nodes = (
(224,0,l),
(1711,0,l),
(1711,1483,l),
(224,1483,l)
);
},
{
closed = 1;
nodes = (
(1019,1366,l),
(1536,1366,l),
(1536,604,l),
(1019,604,l)
);
},
{
closed = 1;
nodes = (
(916,1366,l),
(916,604,l),
(764,604,l),
(764,749,l),
(549,1069,l),
(549,604,l),
(398,604,l),
(398,1366,l),
(549,1366,l),
(764,1041,l),
(764,1366,l)
);
},
{
closed = 1;
nodes = (
(398,456,l),
(629,456,l),
(629,389,l),
(465,389,l),
(465,183,l),
(561,183,l),
(561,252,l),
(515,252,l),
(515,321,l),
(629,321,l),
(629,117,l),
(398,117,l)
);
},
{
closed = 1;
nodes = (
(678,456,l),
(746,456,l),
(746,183,l),
(883,183,l),
(883,117,l),
(678,117,l)
);
},
{
closed = 1;
nodes = (
(795,456,l),
(862,456,l),
(862,321,l),
(938,321,l),
(938,456,l),
(1005,456,l),
(1005,117,l),
(938,117,l),
(938,252,l),
(795,252,l)
);
},
{
closed = 1;
nodes = (
(1060,456,l),
(1272,456,l),
(1272,252,l),
(1127,252,l),
(1127,117,l),
(1060,117,l)
);
},
{
closed = 1;
nodes = (
(1327,456,l),
(1394,456,l),
(1394,321,l),
(1470,321,l),
(1470,456,l),
(1536,456,l),
(1536,117,l),
(1470,117,l),
(1470,252,l),
(1394,252,l),
(1394,117,l),
(1327,117,l)
);
},
{
closed = 1;
nodes = (
(1172,1214,l),
(1172,755,l),
(1387,755,l),
(1387,1214,l)
);
},
{
closed = 1;
nodes = (
(1127,389,l),
(1127,321,l),
(1203,321,l),
(1203,389,l)
);
}
);
width = 1830;
}
);
},
{
glyphname = exclam;
layers = (
{
layerId = "96221EC5-23C3-47D4-93F5-B4F733922506";
shapes = (
{
closed = 1;
nodes = (
(417,454,l),
(679,1467,l),
(410,1467,l),
(206,454,l)
);
},
{
closed = 1;
nodes = (
(355,0,l),
(420,293,l),
(125,293,l),
(60,0,l)
);
}
);
width = 649;
},
{
layerId = "B233C9FF-3FF4-4605-8A2F-BA759C1250EC";
shapes = (
{
closed = 1;
nodes = (
(402,438,l),
(669,1468,l),
(422,1468,l),
(214,438,l)
);
},
{
closed = 1;
nodes = (
(344,0,l),
(404,270,l),
(132,270,l),
(72,0,l)
);
}
);
width = 650;
},
{
layerId = "197E8B11-68AA-4AD5-97B2-73874077EF42";
shapes = (
{
closed = 1;
nodes = (
(370,405,l),
(645,1469,l),
(450,1469,l),
(233,405,l)
);
},
{
closed = 1;
nodes = (
(319,0,l),
(369,219,l),
(148,219,l),
(99,0,l)
);
}
);
width = 652;
},
{
layerId = "78E15571-ED7D-4566-909A-841824FB4F05";
shapes = (
{
closed = 1;
nodes = (
(334,369,l),
(620,1469,l),
(480,1469,l),
(254,369,l)
);
},
{
closed = 1;
nodes = (
(292,0,l),
(330,162,l),
(166,162,l),
(129,0,l)
);
}
);
width = 654;
}
);
unicode = 33;
},
{
glyphname = quotedbl;
layers = (
{
layerId = "96221EC5-23C3-47D4-93F5-B4F733922506";
shapes = (
{
closed = 1;
nodes = (
(199,850,l),
(430,850,l),
(568,1448,l),
(337,1448,l)
);
},
{
closed = 1;
nodes = (
(619,850,l),
(850,850,l),
(988,1448,l),
(757,1448,l)
);
}
);
width = 892;
},
{
layerId = "B233C9FF-3FF4-4605-8A2F-BA759C1250EC";
shapes = (
{
closed = 1;
nodes = (
(228,888,l),
(438,888,l),
(567,1448,l),
(358,1448,l)
);
},
{
closed = 1;
nodes = (
(584,888,l),
(794,888,l),
(923,1448,l),
(714,1448,l)
);
}
);
width = 847;
},
{
layerId = "197E8B11-68AA-4AD5-97B2-73874077EF42";
shapes = (
{
closed = 1;
nodes = (
(251,973,l),
(409,973,l),
(519,1448,l),
(361,1448,l)
);
},
{
closed = 1;
nodes = (
(577,973,l),
(735,973,l),
(844,1448,l),
(686,1448,l)
);
}
);
width = 771;
},
{
layerId = "78E15571-ED7D-4566-909A-841824FB4F05";
shapes = (
{
closed = 1;
nodes = (
(298,1066,l),
(399,1066,l),
(486,1448,l),
(385,1448,l)
);
},
{
closed = 1;
nodes = (
(589,1066,l),
(690,1066,l),
(778,1448,l),
(677,1448,l)
);
}
);
width = 732;
}
);
unicode = 34;
},
{
glyphname = numbersign;
layers = (
{
layerId = "96221EC5-23C3-47D4-93F5-B4F733922506";
shapes = (
{
closed = 1;
nodes = (
(763,0,l),
(951,404,l),
(1236,404,l),
(1285,611,l),
(1039,611,l),
(1148,857,l),
(1424,857,l),
(1471,1053,l),
(1234,1053,l),
(1427,1468,l),
(1206,1468,l),
(1006,1021,l),
(777,1021,l),
(979,1468,l),
(758,1468,l),
(566,1064,l),
(282,1064,l),
(232,857,l),
(477,857,l),
(370,611,l),
(92,611,l),
(46,416,l),
(284,416,l),
(93,0,l),
(314,0,l),
(508,446,l),
(740,446,l),
(544,0,l)
);
},
{
closed = 1;
nodes = (
(820,611,l),
(589,611,l),
(697,857,l),
(929,857,l)
);
}
);
width = 1417;
},
{
layerId = "B233C9FF-3FF4-4605-8A2F-BA759C1250EC";
shapes = (
{
closed = 1;
nodes = (
(753,0,l),
(944,416,l),
(1227,416,l),
(1271,600,l),
(1023,600,l),
(1141,868,l),
(1415,868,l),
(1457,1044,l),
(1219,1044,l),
(1413,1468,l),
(1214,1468,l),
(1015,1021,l),
(763,1021,l),
(965,1468,l),
(766,1468,l),
(572,1053,l),
(290,1053,l),
(246,868,l),
(493,868,l),
(376,600,l),
(100,600,l),
(58,424,l),
(298,424,l),
(106,0,l),
(304,0,l),
(499,446,l),
(753,446,l),
(556,0,l)
);
},
{
closed = 1;
nodes = (
(826,600,l),
(572,600,l),
(690,868,l),
(944,868,l)
);
}
);
width = 1415;
},
{
layerId = "197E8B11-68AA-4AD5-97B2-73874077EF42";
shapes = (
{
closed = 1;
nodes = (
(730,0,l),
(927,442,l),
(1205,442,l),
(1237,574,l),
(985,574,l),
(1125,895,l),
(1394,895,l),
(1426,1026,l),
(1182,1026,l),
(1380,1468,l),
(1234,1468,l),
(1035,1020,l),
(730,1020,l),
(931,1468,l),
(784,1468,l),
(586,1028,l),
(306,1028,l),
(275,895,l),
(527,895,l),
(388,574,l),
(118,574,l),
(86,442,l),
(330,442,l),
(135,0,l),
(281,0,l),
(476,447,l),
(782,447,l),
(584,0,l)
);
},
{
closed = 1;
nodes = (
(839,574,l),
(534,574,l),
(674,895,l),
(979,895,l)
);
}
);
width = 1411;
},
{
layerId = "78E15571-ED7D-4566-909A-841824FB4F05";
shapes = (
{
closed = 1;
nodes = (
(708,0,l),
(911,471,l),
(1184,471,l),
(1203,546,l),
(945,546,l),
(1110,924,l),
(1373,924,l),
(1393,1007,l),
(1145,1007,l),
(1346,1468,l),
(1258,1468,l),
(1061,1020,l),
(697,1020,l),
(895,1468,l),
(808,1468,l),
(603,1001,l),
(329,1001,l),
(310,924,l),
(569,924,l),
(405,546,l),
(139,546,l),
(121,462,l),
(368,462,l),
(170,0,l),
(257,0,l),
(454,447,l),
(817,447,l),
(619,0,l)
);
},
{
closed = 1;
nodes = (
(857,546,l),
(494,546,l),
(659,924,l),
(1021,924,l)
);
}
);
width = 1410;
}
);
unicode = 35;
},
{
glyphname = dollar;
layers = (
{
layerId = "96221EC5-23C3-47D4-93F5-B4F733922506";
shapes = (
{
closed = 1;
nodes = (
(541,-252,l),
(602,-19,l),
(711,-6,o),
(900,88,o),
(1039,229,o),
(1118,408,o),
(1118,506,qs),
(1118,573,o),
(1070,676,o),
(991,755,o),
(891,814,o),
(786,863,o),
(685,906,o),
(607,951,o),
(559,1004,o),
(559,1037,qs),
(559,1072,o),
(596,1137,o),
(659,1187,o),
(740,1218,o),
(783,1218,qs),
(819,1218,o),
(879,1203,o),
(925,1174,o),
(956,1130,o),
(964,1102,q),
(1221,1214,l),
(1204,1266,o),
(1151,1348,o),
(1078,1411,o),
(986,1453,o),
(930,1463,q),
(992,1699,l),
(756,1699,l),
(696,1464,l),
(600,1442,o),
(443,1353,o),
(332,1232,o),
(271,1084,o),
(271,1002,qs),
(271,932,o),
(319,827,o),
(398,749,o),
(499,692,o),
(605,646,o),
(706,606,o),
(785,561,o),
(833,507,o),
(833,469,qs),
(833,422,o),
(787,339,o),
(708,277,o),
(603,241,o),
(542,241,qs),
(429,241,o),
(313,331,o),
(313,419,qs),
(313,424,o),
(314,436,o),
(315,446,q),
(29,411,l),
(29,379,ls),
(29,305,o),
(76,178,o),
(164,77,o),
(290,6,o),
(368,-10,q),
(306,-252,l)
);
}
);
width = 1229;
},
{
layerId = "B233C9FF-3FF4-4605-8A2F-BA759C1250EC";
shapes = (
{
closed = 1;
nodes = (
(523,-252,l),
(583,-18,l),
(694,-6,o),
(882,86,o),
(1020,224,o),
(1098,401,o),
(1098,500,qs),
(1098,569,o),
(1051,673,o),
(972,752,o),
(872,811,o),
(768,859,o),
(668,902,o),
(590,948,o),
(542,1004,o),
(542,1040,qs),
(542,1079,o),
(583,1152,o),
(651,1209,o),
(738,1243,o),
(785,1243,qs),
(823,1243,o),
(885,1227,o),
(933,1196,o),
(967,1148,o),
(977,1116,q),
(1206,1219,l),
(1188,1270,o),
(1133,1352,o),
(1059,1414,o),
(966,1455,o),
(912,1464,q),
(973,1699,l),
(768,1699,l),
(707,1464,l),
(613,1445,o),
(457,1360,o),
(346,1240,o),
(284,1091,o),
(284,1010,qs),
(284,942,o),
(332,841,o),
(411,764,o),
(511,706,o),
(616,658,o),
(717,615,o),
(795,567,o),
(843,509,o),
(843,471,qs),
(843,417,o),
(796,324,o),
(712,255,o),
(599,216,o),
(533,216,qs),
(416,216,o),
(293,313,o),
(293,407,qs),
(293,413,o),
(295,430,o),
(295,438,q),
(39,404,l),
(39,372,ls),
(39,298,o),
(87,170,o),
(175,71,o),
(301,4,o),
(379,-10,q),
(317,-252,l)
);
}
);
width = 1229;
},
{
layerId = "197E8B11-68AA-4AD5-97B2-73874077EF42";
shapes = (
{
closed = 1;
nodes = (
(482,-252,l),
(543,-17,l),
(657,-11,o),
(846,59,o),
(982,181,o),
(1057,352,o),
(1057,457,qs),
(1057,531,o),
(1009,638,o),
(932,718,o),
(833,776,o),
(729,826,o),
(630,874,o),
(553,933,o),
(505,1009,o),
(505,1062,qs),
(505,1114,o),
(550,1202,o),
(628,1265,o),
(731,1301,o),
(790,1301,qs),
(830,1301,o),
(900,1280,o),
(957,1240,o),
(998,1184,o),
(1008,1150,q),
(1173,1229,l),
(1157,1277,o),
(1099,1358,o),
(1021,1420,o),
(926,1459,o),
(872,1465,q),
(933,1699,l),
(795,1699,l),
(734,1464,l),
(641,1454,o),
(486,1382,o),
(375,1271,o),
(314,1125,o),
(314,1040,qs),
(314,967,o),
(361,861,o),
(439,782,o),
(539,725,o),
(643,675,o),
(743,627,o),
(821,568,o),
(868,490,o),
(868,436,qs),
(868,367,o),
(817,264,o),
(724,194,o),
(594,159,o),
(514,159,qs),
(387,159,o),
(249,273,o),
(249,379,qs),
(249,388,o),
(250,408,o),
(251,418,q),
(62,389,l),
(62,368,ls),
(62,289,o),
(113,160,o),
(204,63,o),
(330,1,o),
(405,-11,q),
(344,-252,l)
);
}
);
width = 1229;
},
{
layerId = "78E15571-ED7D-4566-909A-841824FB4F05";
shapes = (
{
closed = 1;
nodes = (
(437,-254,l),
(498,-14,l),
(615,-17,o),
(806,29,o),
(939,133,o),
(1011,297,o),
(1011,411,qs),
(1011,489,o),
(964,601,o),
(887,681,o),
(788,737,o),
(686,789,o),
(588,843,o),
(511,915,o),
(465,1015,o),
(465,1086,qs),
(465,1153,o),
(514,1258,o),
(603,1328,o),
(724,1364,o),
(795,1364,qs),
(836,1364,o),
(917,1337,o),
(983,1290,o),
(1031,1225,o),
(1043,1188,q),
(1137,1240,l),
(1121,1286,o),
(1062,1366,o),
(979,1426,o),
(881,1462,o),
(827,1465,q),
(888,1699,l),
(827,1699,l),
(764,1464,l),
(673,1463,o),
(519,1408,o),
(408,1304,o),
(347,1161,o),
(347,1075,qs),
(347,994,o),
(394,882,o),
(471,803,o),
(569,745,o),
(673,695,o),
(772,641,o),
(848,568,o),
(895,469,o),
(895,397,qs),
(895,312,o),
(841,197,o),
(738,127,o),
(588,96,o),
(493,96,qs),
(356,96,o),
(200,230,o),
(200,348,qs),
(200,361,o),
(201,384,o),
(203,396,q),
(88,371,l),
(88,365,ls),
(88,280,o),
(142,150,o),
(236,56,o),
(362,-4,o),
(435,-13,q),
(374,-254,l)
);
}
);
width = 1229;
}
);
unicode = 36;
},
{
glyphname = percent;
layers = (
{
layerId = "96221EC5-23C3-47D4-93F5-B4F733922506";
shapes = (
{
closed = 1;
nodes = (
(1176,-14,o),
(1308,54,o),
(1408,170,o),
(1466,325,o),
(1466,412,qs),
(1466,474,o),
(1433,574,o),
(1370,644,o),
(1282,681,o),
(1226,681,qs),
(1150,681,o),
(1016,613,o),
(915,497,o),
(857,341,o),
(857,252,qs),
(857,124,o),
(983,-14,o),
(1101,-14,qs)
);
},
{
closed = 1;
nodes = (
(1084,185,o),
(1055,231,o),
(1055,279,qs),
(1055,316,o),
(1082,388,o),
(1125,445,o),
(1180,480,o),
(1208,480,qs),
(1238,480,o),
(1265,438,o),
(1265,391,qs),
(1265,351,o),
(1240,276,o),
(1198,219,o),
(1143,185,o),
(1113,185,qs)
);
},
{
closed = 1;
nodes = (
(361,-28,l),
(1537,1504,l),
(1289,1504,l),
(114,-28,l)
);
},
{
closed = 1;
nodes = (
(512,775,o),
(644,843,o),
(744,959,o),
(802,1114,o),
(802,1201,qs),
(802,1263,o),
(769,1363,o),
(706,1433,o),
(618,1470,o),
(562,1470,qs),
(486,1470,o),
(352,1402,o),
(251,1286,o),
(193,1130,o),
(193,1041,qs),
(193,913,o),
(319,775,o),
(437,775,qs)
);
},
{
closed = 1;
nodes = (
(420,974,o),
(391,1020,o),
(391,1068,qs),
(391,1105,o),
(418,1177,o),
(461,1234,o),
(516,1269,o),
(544,1269,qs),
(574,1269,o),
(601,1227,o),
(601,1180,qs),
(601,1140,o),
(576,1065,o),
(534,1008,o),
(479,974,o),
(449,974,qs)
);
}
);
width = 1559;
},
{
layerId = "B233C9FF-3FF4-4605-8A2F-BA759C1250EC";
shapes = (
{
closed = 1;
nodes = (
(1181,-10,o),
(1309,58,o),
(1407,174,o),
(1464,328,o),
(1464,413,qs),
(1464,474,o),
(1432,571,o),
(1373,638,o),
(1287,674,o),
(1233,674,qs),
(1160,674,o),
(1029,607,o),
(932,491,o),
(875,336,o),
(875,248,qs),
(875,124,o),
(997,-10,o),
(1109,-10,qs)
);
},
{
closed = 1;
nodes = (
(1085,167,o),
(1051,211,o),
(1051,255,qs),
(1051,302,o),
(1079,389,o),
(1125,456,o),
(1186,496,o),
(1219,496,qs),
(1250,496,o),
(1285,451,o),
(1285,409,qs),
(1285,361,o),
(1258,273,o),
(1211,206,o),
(1151,167,o),
(1118,167,qs)
);
},
{
closed = 1;
nodes = (
(365,-20,l),
(1523,1489,l),
(1300,1489,l),
(142,-20,l)
);
},
{
closed = 1;
nodes = (
(518,786,o),
(646,854,o),
(744,970,o),
(801,1124,o),
(801,1209,qs),
(801,1270,o),
(769,1367,o),
(710,1434,o),
(624,1470,o),
(570,1470,qs),
(497,1470,o),
(366,1403,o),
(269,1287,o),
(212,1132,o),
(212,1044,qs),
(212,920,o),
(334,786,o),
(446,786,qs)
);
},
{
closed = 1;
nodes = (
(422,963,o),
(388,1007,o),
(388,1051,qs),
(388,1098,o),
(416,1185,o),
(462,1252,o),
(523,1292,o),
(556,1292,qs),
(587,1292,o),
(622,1247,o),
(622,1205,qs),
(622,1157,o),
(595,1069,o),
(548,1002,o),
(488,963,o),
(455,963,qs)
);
}
);
width = 1575;
},
{
layerId = "197E8B11-68AA-4AD5-97B2-73874077EF42";
shapes = (
{
closed = 1;
nodes = (
(1200,-1,o),
(1321,66,o),
(1413,179,o),
(1467,330,o),
(1467,413,qs),
(1467,469,o),
(1439,559,o),
(1387,622,o),
(1311,656,o),
(1262,656,qs),
(1190,656,o),
(1065,592,o),
(974,480,o),
(923,326,o),
(923,236,qs),
(923,121,o),
(1031,-1,o),
(1133,-1,qs)
);
},
{
closed = 1;
nodes = (
(1100,122,o),
(1051,180,o),
(1051,237,qs),
(1051,299,o),
(1081,407,o),
(1134,487,o),
(1205,533,o),
(1246,533,qs),
(1287,533,o),
(1337,471,o),
(1337,417,qs),
(1337,357,o),
(1306,249,o),
(1253,169,o),
(1183,122,o),
(1143,122,qs)
);
},
{
closed = 1;
nodes = (
(376,-5,l),
(1495,1456,l),
(1332,1456,l),
(212,-5,l)
);
},
{
closed = 1;
nodes = (
(536,813,o),
(657,880,o),
(749,994,o),
(803,1144,o),
(803,1227,qs),
(803,1284,o),
(775,1374,o),
(723,1437,o),
(647,1470,o),
(598,1470,qs),
(526,1470,o),
(401,1406,o),
(310,1294,o),
(258,1141,o),
(258,1051,qs),
(258,936,o),
(367,813,o),
(469,813,qs)
);
},
{
closed = 1;
nodes = (
(436,936,o),
(387,995,o),
(387,1051,qs),
(387,1113,o),
(417,1221,o),
(470,1301,o),
(541,1347,o),
(582,1347,qs),
(623,1347,o),
(673,1285,o),
(673,1231,qs),
(673,1171,o),
(642,1064,o),
(589,983,o),
(518,936,o),
(479,936,qs)
);
}
);
width = 1622;
},
{
layerId = "78E15571-ED7D-4566-909A-841824FB4F05";
shapes = (
{
closed = 1;
nodes = (
(1209,8,o),
(1323,74,o),
(1407,185,o),
(1457,332,o),
(1457,413,qs),
(1457,465,o),
(1435,547,o),
(1390,604,o),
(1325,635,o),
(1282,635,qs),
(1210,635,o),
(1094,576,o),
(1009,467,o),
(962,316,o),
(962,224,qs),
(962,118,o),
(1057,8,o),
(1147,8,qs)
);
},
{
closed = 1;
nodes = (
(1105,71,o),
(1038,146,o),
(1038,216,qs),
(1038,296,o),
(1071,427,o),
(1130,522,o),
(1214,574,o),
(1264,574,qs),
(1316,574,o),
(1381,494,o),
(1382,426,q),
(1382,353,o),
(1347,224,o),
(1286,127,o),
(1204,71,o),
(1158,71,qs)
);
},
{
closed = 1;
nodes = (
(375,12,l),
(1452,1419,l),
(1353,1419,l),
(277,12,l)
);
},
{
closed = 1;
nodes = (
(544,843,o),
(657,909,o),
(742,1020,o),
(791,1167,o),
(791,1248,qs),
(791,1299,o),
(769,1382,o),
(725,1439,o),
(659,1470,o),
(616,1470,qs),
(544,1470,o),
(428,1411,o),
(343,1302,o),
(297,1150,o),
(297,1059,qs),
(297,953,o),
(391,843,o),
(481,843,qs)
);
},
{
closed = 1;
nodes = (
(439,906,o),
(372,980,o),
(372,1051,qs),
(372,1131,o),
(405,1262,o),
(464,1357,o),
(549,1409,o),
(599,1409,qs),
(650,1409,o),
(715,1329,o),
(717,1261,q),
(717,1188,o),
(681,1058,o),
(621,962,o),
(539,906,o),
(493,906,qs)
);
}
);
width = 1646;
}
);
unicode = 37;
},
{
glyphname = ampersand;
layers = (
{
layerId = "96221EC5-23C3-47D4-93F5-B4F733922506";
shapes = (
{
closed = 1;
nodes = (
(1040,-85,l),
(1276,94,l),
(1121,325,l),
(1189,410,o),
(1279,584,o),
(1303,675,q),
(1038,727,l),
(1031,683,o),
(998,596,o),
(971,548,q),
(849,725,l),
(1013,818,o),
(1188,1041,o),
(1188,1160,qs),
(1188,1228,o),
(1138,1340,o),
(1048,1420,o),
(922,1464,o),
(847,1464,qs),
(744,1464,o),
(566,1401,o),
(435,1290,o),
(360,1138,o),
(360,1050,qs),
(360,981,o),
(407,860,o),
(457,798,q),
(235,684,o),
(16,431,o),
(16,288,qs),
(16,214,o),
(74,98,o),
(184,18,o),
(343,-25,o),
(444,-25,qs),
(502,-25,o),
(620,-6,o),
(736,32,o),
(850,87,o),
(904,124,q)
);
},
{
closed = 1;
nodes = (
(656,963,o),
(631,1035,o),
(631,1064,qs),
(631,1100,o),
(663,1167,o),
(718,1217,o),
(790,1247,o),
(829,1247,qs),
(854,1247,o),
(891,1237,o),
(917,1216,o),
(930,1185,o),
(930,1165,qs),
(930,1101,o),
(805,973,o),
(684,912,q)
);
},
{
closed = 1;
nodes = (
(423,211,o),
(365,231,o),
(327,263,o),
(309,303,o),
(309,323,qs),
(309,355,o),
(345,419,o),
(416,484,o),
(525,553,o),
(599,590,q),
(774,323,l),
(737,295,o),
(660,254,o),
(581,225,o),
(503,211,o),
(464,211,qs)
);
}
);
width = 1414;
},
{
layerId = "B233C9FF-3FF4-4605-8A2F-BA759C1250EC";
shapes = (
{
closed = 1;
nodes = (
(1049,-78,l),
(1256,80,l),
(1100,316,l),
(1168,402,o),
(1261,581,o),
(1287,678,q),
(1055,724,l),
(1042,669,o),
(999,566,o),
(968,514,q),
(823,731,l),
(1000,833,o),
(1172,1052,o),
(1172,1178,qs),
(1172,1241,o),
(1125,1346,o),
(1039,1422,o),
(920,1464,o),
(849,1464,qs),
(753,1464,o),
(583,1400,o),
(455,1290,o),
(380,1144,o),
(380,1062,qs),
(380,994,o),
(429,865,o),
(480,797,q),
(254,679,o),
(34,423,o),
(34,275,qs),
(34,207,o),
(91,97,o),
(198,19,o),
(349,-24,o),
(442,-24,qs),
(502,-24,o),
(622,-3,o),
(740,38,o),
(855,98,o),
(910,137,q)
);
},
{
closed = 1;
nodes = (
(648,951,o),
(616,1037,o),
(616,1072,qs),
(616,1109,o),
(654,1180,o),
(715,1235,o),
(793,1269,o),
(835,1269,qs),
(861,1269,o),
(903,1256,o),
(932,1232,o),
(947,1197,o),
(947,1175,qs),
(947,1107,o),
(815,971,o),
(680,898,q)
);
},
{
closed = 1;
nodes = (
(414,188,o),
(351,209,o),
(311,244,o),
(294,289,o),
(294,312,qs),
(294,348,o),
(329,418,o),
(404,490,o),
(521,567,o),
(603,611,q),
(795,314,l),
(756,283,o),
(674,236,o),
(590,204,o),
(504,188,o),
(460,188,qs)
);
}
);
width = 1411;
},
{
layerId = "197E8B11-68AA-4AD5-97B2-73874077EF42";
shapes = (
{
closed = 1;
nodes = (
(1068,-63,l),
(1211,46,l),
(1051,296,l),
(1117,380,o),
(1217,573,o),
(1251,683,q),
(1091,716,l),
(1067,635,o),
(1003,498,o),
(960,436,q),
(765,744,l),
(950,850,o),
(1138,1076,o),
(1138,1195,qs),
(1138,1256,o),
(1097,1355,o),
(1022,1426,o),
(917,1464,o),
(853,1464,qs),
(765,1464,o),
(609,1404,o),
(491,1302,o),
(422,1166,o),
(422,1090,qs),
(422,1023,o),
(475,882,o),
(533,793,q),
(297,664,o),
(64,410,o),
(64,268,qs),
(64,203,o),
(115,96,o),
(209,20,o),
(340,-22,o),
(421,-22,qs),
(487,-22,o),
(619,5,o),
(747,55,o),
(868,125,o),
(923,168,q)
);
},
{
closed = 1;
nodes = (
(626,935,o),
(583,1047,o),
(583,1090,qs),
(583,1134,o),
(627,1216,o),
(700,1279,o),
(795,1318,o),
(846,1318,qs),
(877,1318,o),
(929,1299,o),
(966,1267,o),
(986,1221,o),
(986,1194,qs),
(986,1117,o),
(827,953,o),
(669,865,q)
);
},
{
closed = 1;
nodes = (
(390,125,o),
(316,151,o),
(267,196,o),
(241,257,o),
(241,291,qs),
(241,337,o),
(285,424,o),
(376,513,o),
(517,607,o),
(613,660,q),
(841,296,l),
(799,261,o),
(703,198,o),
(601,152,o),
(493,125,o),
(437,125,qs)
);
}
);
width = 1404;
},
{
layerId = "78E15571-ED7D-4566-909A-841824FB4F05";
shapes = (
{
closed = 1;
nodes = (
(1091,-45,l),
(1163,10,l),
(1000,275,l),
(1065,356,o),
(1172,563,o),
(1215,688,q),
(1135,709,l),
(1096,598,o),
(1009,423,o),
(954,351,q),
(702,759,l),
(898,870,o),
(1102,1102,o),
(1102,1213,qs),
(1102,1273,o),
(1069,1366,o),
(1007,1431,o),
(917,1464,o),
(859,1464,qs),
(782,1464,o),
(641,1409,o),
(535,1314,o),
(472,1190,o),
(472,1122,qs),
(472,1055,o),
(528,900,o),
(593,789,q),
(347,649,o),
(100,397,o),
(100,261,qs),
(100,199,o),
(145,95,o),
(224,20,o),
(334,-22,o),
(400,-22,qs),
(472,-22,o),
(618,14,o),
(756,75,o),
(885,155,o),
(941,201,q)
);
},
{
closed = 1;
nodes = (
(605,917,o),
(549,1059,o),
(549,1110,qs),
(549,1161,o),
(600,1257,o),
(687,1329,o),
(800,1372,o),
(861,1372,qs),
(898,1372,o),
(961,1349,o),
(1007,1306,o),
(1033,1248,o),
(1033,1215,qs),
(1033,1129,o),
(844,934,o),
(660,829,q)
);
},
{
closed = 1;
nodes = (
(365,55,o),
(282,87,o),
(219,144,o),
(186,221,o),
(186,267,qs),
(186,324,o),
(240,432,o),
(349,539,o),
(514,651,o),
(627,713,q),
(897,277,l),
(849,236,o),
(738,156,o),
(616,94,o),
(483,55,o),
(415,55,qs)
);
}
);
width = 1401;
}
);
unicode = 38;
},
{
glyphname = quotesingle;
layers = (
{
layerId = "96221EC5-23C3-47D4-93F5-B4F733922506";
shapes = (
{
closed = 1;
nodes = (
(515,879,l),
(651,1477,l),
(419,1477,l),
(282,879,l)
);
}
);
width = 624;
},
{
layerId = "B233C9FF-3FF4-4605-8A2F-BA759C1250EC";
shapes = (
{
closed = 1;
nodes = (
(512,916,l),
(640,1477,l),
(430,1477,l),
(302,916,l)
);
}
);
width = 625;
},
{
layerId = "197E8B11-68AA-4AD5-97B2-73874077EF42";
shapes = (
{
closed = 1;
nodes = (
(506,1001,l),
(615,1477,l),
(457,1477,l),
(348,1001,l)
);
}
);
width = 627;
},
{
layerId = "78E15571-ED7D-4566-909A-841824FB4F05";
shapes = (
{
closed = 1;
nodes = (
(500,1096,l),
(588,1477,l),
(487,1477,l),
(399,1096,l)
);
}
);
width = 629;
}
);
unicode = 39;
},
{
glyphname = parenleft;
layers = (
{
layerId = "96221EC5-23C3-47D4-93F5-B4F733922506";
shapes = (
{
closed = 1;
nodes = (
(433,-151,l),
(368,-35,o),
(304,194,o),
(304,309,qs),
(304,486,o),
(377,845,o),
(517,1184,o),
(720,1488,o),
(850,1610,q),
(590,1610,l),
(507,1540,o),
(370,1349,o),
(261,1128,o),
(179,886,o),
(124,642,o),
(97,408,o),
(97,305,qs),
(97,227,o),
(110,91,o),
(136,-24,o),
(174,-116,o),
(200,-151,q)
);
}
);
width = 589;
},
{
layerId = "B233C9FF-3FF4-4605-8A2F-BA759C1250EC";
shapes = (
{
closed = 1;
nodes = (
(420,-120,l),
(357,-8,o),
(296,218,o),
(296,335,qs),
(296,501,o),
(371,846,o),
(509,1174,o),
(703,1467,o),
(822,1580,q),
(592,1580,l),
(512,1509,o),
(379,1326,o),
(272,1118,o),
(192,893,o),
(138,664,o),
(111,440,o),
(111,337,qs),
(111,283,o),
(119,161,o),
(142,40,o),
(183,-74,o),
(214,-120,q)
);
}
);
width = 587;
},
{
layerId = "197E8B11-68AA-4AD5-97B2-73874077EF42";
shapes = (
{
closed = 1;
nodes = (
(388,-57,l),
(329,51,o),
(277,274,o),
(277,391,qs),
(277,541,o),
(348,852,o),
(477,1147,o),
(654,1412,o),
(759,1516,q),
(595,1516,l),
(523,1448,o),
(400,1285,o),
(299,1103,o),
(221,908,o),
(168,707,o),
(141,504,o),
(141,406,qs),
(141,353,o),
(151,229,o),
(174,105,o),
(214,-11,o),
(245,-57,q)
);
}
);
width = 583;
},
{
layerId = "78E15571-ED7D-4566-909A-841824FB4F05";
shapes = (
{
closed = 1;
nodes = (
(357,14,l),
(301,116,o),
(258,336,o),
(258,454,qs),
(258,586,o),
(327,858,o),
(444,1117,o),
(603,1352,o),
(693,1444,q),
(601,1444,l),
(538,1381,o),
(426,1239,o),
(331,1087,o),
(257,925,o),
(204,754,o),
(177,576,o),
(177,484,qs),
(177,431,o),
(187,304,o),
(213,177,o),
(253,58,o),
(281,14,q)
);
}
);
width = 580;
}
);
unicode = 40;
},
{
glyphname = parenright;
layers = (
{
layerId = "96221EC5-23C3-47D4-93F5-B4F733922506";
shapes = (
{
closed = 1;
nodes = (
(90,-150,l),
(170,-83,o),
(308,107,o),
(421,331,o),
(508,579,o),
(567,825,o),
(597,1060,o),
(597,1159,qs),
(597,1228,o),
(584,1356,o),
(558,1471,o),
(519,1570,o),
(494,1610,q),
(253,1610,l),
(316,1507,o),
(379,1259,o),
(379,1129,qs),
(379,952,o),
(305,601,o),
(166,272,o),
(-34,-26,o),
(-160,-150,q)
);
}
);
width = 588;
},
{
layerId = "B233C9FF-3FF4-4605-8A2F-BA759C1250EC";
shapes = (
{
closed = 1;
nodes = (
(88,-120,l),
(169,-53,o),
(305,129,o),
(414,339,o),
(497,570,o),
(553,802,o),
(582,1028,o),
(582,1127,qs),
(582,1196,o),
(569,1325,o),
(542,1440,o),
(503,1540,o),
(476,1580,q),
(264,1580,l),
(325,1476,o),
(385,1229,o),
(385,1102,qs),
(385,932,o),
(313,597,o),
(178,283,o),
(-14,-2,o),
(-134,-120,q)
);
}
);
width = 587;
},
{
layerId = "197E8B11-68AA-4AD5-97B2-73874077EF42";
shapes = (
{
closed = 1;
nodes = (
(81,-57,l),
(154,6,o),
(280,168,o),
(383,353,o),
(463,556,o),
(517,761,o),
(545,964,o),
(545,1057,qs),
(545,1120,o),
(533,1244,o),
(507,1362,o),
(466,1470,o),
(437,1516,q),
(291,1516,l),
(347,1409,o),
(400,1163,o),
(400,1040,qs),
(400,890,o),
(329,588,o),
(202,304,o),
(27,48,o),
(-77,-57,q)
);
}
);
width = 584;
},
{
layerId = "78E15571-ED7D-4566-909A-841824FB4F05";
shapes = (
{
closed = 1;
nodes = (
(77,14,l),
(141,71,o),
(255,212,o),
(350,370,o),
(427,540,o),
(480,716,o),
(508,894,o),
(508,979,qs),
(508,1035,o),
(497,1156,o),
(471,1275,o),
(429,1392,o),
(397,1444,q),
(323,1444,l),
(374,1334,o),
(420,1091,o),
(420,971,qs),
(420,844,o),
(350,579,o),
(232,328,o),
(77,102,o),
(-11,14,q)
);
}
);
width = 583;
}
);
unicode = 41;
},
{
glyphname = asterisk;
layers = (
{
layerId = "96221EC5-23C3-47D4-93F5-B4F733922506";
shapes = (
{
closed = 1;
nodes = (
(439,849,l),
(595,1054,l),
(657,849,l),
(860,965,l),
(736,1116,l),
(971,1144,l),
(943,1333,l),
(721,1255,l),
(796,1447,l),
(569,1447,l),
(554,1255,l),
(361,1333,l),
(249,1144,l),
(467,1116,l),
(279,965,l)
);
}
);
width = 930;
},
{
layerId = "B233C9FF-3FF4-4605-8A2F-BA759C1250EC";
shapes = (
{
closed = 1;
nodes = (
(432,854,l),
(594,1067,l),
(658,854,l),
(839,958,l),
(713,1122,l),
(954,1153,l),
(931,1325,l),
(700,1241,l),
(778,1447,l),
(579,1447,l),
(560,1241,l),
(362,1325,l),
(262,1153,l),
(486,1122,l),
(290,958,l)
);
}
);
width = 923;
},
{
layerId = "197E8B11-68AA-4AD5-97B2-73874077EF42";
shapes = (
{
closed = 1;
nodes = (
(416,867,l),
(590,1097,l),
(659,867,l),
(788,946,l),
(656,1137,l),
(916,1175,l),
(901,1306,l),
(650,1209,l),
(737,1447,l),
(598,1447,l),
(573,1209,l),
(363,1306,l),
(290,1175,l),
(529,1137,l),
(315,945,l)
);
}
);
width = 902;
},
{
layerId = "78E15571-ED7D-4566-909A-841824FB4F05";
shapes = (
{
closed = 1;
nodes = (
(403,881,l),
(590,1132,l),
(667,882,l),
(736,933,l),
(599,1154,l),
(879,1201,l),
(874,1285,l),
(601,1173,l),
(697,1447,l),
(624,1447,l),
(593,1173,l),
(371,1285,l),
(326,1201,l),
(583,1154,l),
(348,932,l)
);
}
);
width = 892;
}
);
unicode = 42;
},
{
glyphname = plus;
layers = (
{
layerId = "96221EC5-23C3-47D4-93F5-B4F733922506";
shapes = (
{
closed = 1;
nodes = (
(744,109,l),
(744,532,l),
(1212,532,l),
(1212,745,l),
(744,745,l),
(744,1170,l),
(534,1170,l),
(534,745,l),
(66,745,l),
(66,532,l),
(534,532,l),
(534,109,l)
);
}
);
width = 1276;
},
{
layerId = "B233C9FF-3FF4-4605-8A2F-BA759C1250EC";
shapes = (
{
closed = 1;
nodes = (
(736,109,l),
(736,545,l),
(1204,545,l),
(1204,734,l),
(736,734,l),
(736,1170,l),
(548,1170,l),
(548,734,l),
(80,734,l),
(80,545,l),
(548,545,l),
(548,109,l)
);
}
);
width = 1283;
},
{
layerId = "197E8B11-68AA-4AD5-97B2-73874077EF42";
shapes = (
{
closed = 1;
nodes = (
(722,109,l),
(722,572,l),
(1190,572,l),
(1190,709,l),
(722,709,l),
(722,1169,l),
(584,1169,l),
(584,709,l),
(116,709,l),
(116,572,l),
(584,572,l),
(584,109,l)
);
}
);
width = 1306;
},
{
layerId = "78E15571-ED7D-4566-909A-841824FB4F05";
shapes = (
{
closed = 1;
nodes = (
(698,109,l),
(698,602,l),
(1168,602,l),
(1168,681,l),
(698,681,l),
(698,1169,l),
(617,1169,l),
(617,681,l),
(149,681,l),
(149,602,l),
(617,602,l),
(617,109,l)
);
}
);
width = 1317;
}
);
unicode = 43;
},
{
glyphname = comma;
layers = (
{
layerId = "96221EC5-23C3-47D4-93F5-B4F733922506";
shapes = (
{
closed = 1;
nodes = (
(100,-230,l),
(446,270,l),
(128,270,l),
(-90,-230,l)
);
}
);
width = 614;
},
{
layerId = "B233C9FF-3FF4-4605-8A2F-BA759C1250EC";
shapes = (
{
closed = 1;
nodes = (
(89,-230,l),
(430,270,l),
(139,270,l),
(-79,-230,l)
);
}
);
width = 614;
},
{
layerId = "197E8B11-68AA-4AD5-97B2-73874077EF42";
shapes = (
{
closed = 1;
nodes = (
(68,-231,l),
(397,269,l),
(170,269,l),
(-49,-231,l)
);
}
);
width = 614;
},
{
layerId = "78E15571-ED7D-4566-909A-841824FB4F05";
shapes = (
{
closed = 1;
nodes = (
(44,-231,l),
(360,266,l),
(205,266,l),
(-16,-231,l)
);
}
);
width = 614;
}
);
unicode = 44;
},
{
glyphname = hyphen;
layers = (
{
layerId = "96221EC5-23C3-47D4-93F5-B4F733922506";
shapes = (
{
closed = 1;
nodes = (
(760,487,l),
(829,757,l),
(209,757,l),
(140,487,l)
);
}
);
width = 918;
},
{
layerId = "B233C9FF-3FF4-4605-8A2F-BA759C1250EC";
shapes = (
{
closed = 1;
nodes = (
(751,545,l),
(797,734,l),
(199,734,l),
(154,545,l)
);
}
);
width = 891;
},
{
layerId = "197E8B11-68AA-4AD5-97B2-73874077EF42";
shapes = (
{
closed = 1;
nodes = (
(729,573,l),
(762,711,l),
(215,711,l),
(183,573,l)
);
}
);
width = 885;
},
{
layerId = "78E15571-ED7D-4566-909A-841824FB4F05";
shapes = (
{
closed = 1;
nodes = (
(708,605,l),
(726,684,l),
(236,684,l),
(218,605,l)
);
}
);
width = 882;
}
);
unicode = 45;
},
{
glyphname = period;
layers = (
{
layerId = "96221EC5-23C3-47D4-93F5-B4F733922506";
shapes = (
{
closed = 1;
nodes = (
(332,0,l),
(397,293,l),
(130,293,l),
(65,0,l)
);
}
);
width = 614;
},
{
layerId = "B233C9FF-3FF4-4605-8A2F-BA759C1250EC";
shapes = (
{
closed = 1;
nodes = (
(323,0,l),
(383,270,l),
(131,270,l),
(71,0,l)
);
}
);
width = 614;
},
{
layerId = "197E8B11-68AA-4AD5-97B2-73874077EF42";
shapes = (
{
closed = 1;
nodes = (
(311,0,l),
(361,219,l),
(145,219,l),
(94,0,l)
);
}
);
width = 614;
},
{
layerId = "78E15571-ED7D-4566-909A-841824FB4F05";
shapes = (
{
closed = 1;
nodes = (
(299,0,l),
(337,162,l),
(160,162,l),
(121,0,l)
);
}
);
width = 614;
}
);
unicode = 46;
},
{
glyphname = slash;
layers = (
{
layerId = "96221EC5-23C3-47D4-93F5-B4F733922506";
shapes = (
{
closed = 1;
nodes = (
(-17,-440,l),
(1253,1552,l),
(989,1552,l),
(-278,-440,l)
);
}
);
width = 955;
},
{
layerId = "B233C9FF-3FF4-4605-8A2F-BA759C1250EC";
shapes = (
{
closed = 1;
nodes = (
(-24,-440,l),
(1237,1552,l),
(998,1552,l),
(-260,-440,l)
);
}
);
width = 956;
},
{
layerId = "197E8B11-68AA-4AD5-97B2-73874077EF42";
shapes = (
{
closed = 1;
nodes = (
(-38,-441,l),
(1202,1552,l),
(1020,1552,l),
(-221,-441,l)
);
}
);
width = 961;
},
{
layerId = "78E15571-ED7D-4566-909A-841824FB4F05";
shapes = (
{
closed = 1;
nodes = (
(-56,-441,l),
(1162,1552,l),
(1043,1552,l),
(-181,-441,l)
);
}
);
width = 963;
}
);
unicode = 47;
},
{
glyphname = zero;
layers = (
{
layerId = "96221EC5-23C3-47D4-93F5-B4F733922506";
shapes = (
{
closed = 1;
nodes = (
(639,-20,o),
(832,67,o),
(988,213,o),
(1108,405,o),
(1189,616,o),
(1230,833,o),
(1230,930,qs),
(1230,1028,o),
(1185,1222,o),
(1085,1375,o),
(927,1470,o),
(813,1470,qs),
(696,1470,o),
(501,1383,o),
(343,1236,o),
(225,1042,o),
(145,828,o),
(105,608,o),
(105,508,qs),
(105,405,o),
(149,215,o),
(248,68,o),
(409,-20,o),
(525,-20,qs)
);
},
{
closed = 1;
nodes = (
(510,255,o),
(435,304,o),
(391,382,o),
(375,480,o),
(375,530,qs),
(375,581,o),
(397,718,o),
(440,864,o),
(504,1007,o),
(591,1120,o),
(699,1190,o),
(764,1190,qs),
(822,1190,o),
(894,1140,o),
(934,1061,o),
(948,963,o),
(948,916,qs),
(948,868,o),
(926,733,o),
(883,586,o),
(819,441,o),
(735,326,o),
(631,255,o),
(570,255,qs)
);
}
);
width = 1229;
},
{
layerId = "B233C9FF-3FF4-4605-8A2F-BA759C1250EC";
shapes = (
{
closed = 1;
nodes = (
(616,-20,o),
(801,64,o),
(958,207,o),
(1083,398,o),
(1170,613,o),
(1217,841,o),
(1217,949,qs),
(1217,1044,o),
(1174,1230,o),
(1077,1378,o),
(920,1470,o),
(807,1470,qs),
(691,1470,o),
(495,1382,o),
(338,1234,o),
(219,1038,o),
(139,824,o),
(99,603,o),
(99,504,qs),
(99,393,o),
(146,202,o),
(246,61,o),
(403,-20,o),
(512,-20,qs)
);
},
{
closed = 1;
nodes = (
(487,226,o),
(405,280,o),
(358,364,o),
(342,469,o),
(342,520,qs),
(342,580,o),
(366,730,o),
(414,885,o),
(485,1033,o),
(578,1149,o),
(694,1219,o),
(762,1219,qs),
(825,1219,o),
(903,1164,o),
(946,1078,o),
(961,975,o),
(961,928,qs),
(961,873,o),
(938,727,o),
(892,571,o),
(823,419,o),
(733,300,o),
(620,226,o),
(553,226,qs)
);
}
);
width = 1229;
},
{
layerId = "197E8B11-68AA-4AD5-97B2-73874077EF42";
shapes = (
{
closed = 1;
nodes = (
(587,-20,o),
(774,69,o),
(931,220,o),
(1054,418,o),
(1140,635,o),
(1185,857,o),
(1185,956,qs),
(1185,1048,o),
(1146,1232,o),
(1055,1379,o),
(904,1470,o),
(792,1470,qs),
(679,1470,o),
(486,1379,o),
(329,1227,o),
(208,1027,o),
(126,810,o),
(84,591,o),
(84,494,qs),
(84,391,o),
(124,205,o),
(216,64,o),
(368,-20,o),
(480,-20,qs)
);
},
{
closed = 1;
nodes = (
(434,155,o),
(338,215,o),
(284,312,o),
(264,434,o),
(264,495,qs),
(264,563,o),
(292,734,o),
(347,911,o),
(429,1079,o),
(539,1210,o),
(676,1290,o),
(757,1290,qs),
(829,1290,o),
(921,1228,o),
(973,1132,o),
(993,1013,o),
(993,956,qs),
(993,891,o),
(965,722,o),
(911,544,o),
(831,372,o),
(723,238,o),
(590,155,o),
(510,155,qs)
);
}
);
width = 1229;
},
{
layerId = "78E15571-ED7D-4566-909A-841824FB4F05";
shapes = (
{
closed = 1;
nodes = (
(556,-20,o),
(746,77,o),
(901,235,o),
(1023,439,o),
(1106,658,o),
(1149,874,o),
(1149,964,qs),
(1149,1054,o),
(1116,1235,o),
(1031,1379,o),
(886,1470,o),
(776,1470,qs),
(667,1470,o),
(477,1376,o),
(319,1218,o),
(196,1015,o),
(113,797,o),
(68,576,o),
(68,484,qs),
(68,390,o),
(99,208,o),
(183,67,o),
(329,-20,o),
(446,-20,qs)
);
},
{
closed = 1;
nodes = (
(376,76,o),
(265,143,o),
(202,255,o),
(177,395,o),
(177,468,qs),
(177,545,o),
(208,739,o),
(272,938,o),
(368,1129,o),
(496,1278,o),
(657,1368,o),
(753,1368,qs),
(834,1368,o),
(941,1300,o),
(1003,1191,o),
(1028,1055,o),
(1028,986,qs),
(1028,911,o),
(997,718,o),
(934,516,o),
(839,321,o),
(713,169,o),
(556,76,o),
(462,76,qs)
);
}
);
width = 1229;
}
);
unicode = 48;
},
{
glyphname = one;
layers = (
{
layerId = "96221EC5-23C3-47D4-93F5-B4F733922506";
shapes = (
{
closed = 1;
nodes = (
(735,0,l),
(1069,1447,l),
(793,1447,l),
(785,1406,o),
(754,1336,o),
(706,1285,o),
(638,1256,o),
(594,1256,qs),
(359,1256,l),
(311,1038,l),
(690,1038,l),
(450,0,l)
);
}
);
width = 1229;
},
{
layerId = "B233C9FF-3FF4-4605-8A2F-BA759C1250EC";
shapes = (
{
closed = 1;
nodes = (
(717,0,l),
(1051,1447,l),
(805,1447,l),
(796,1405,o),
(765,1333,o),
(715,1281,o),
(645,1252,o),
(598,1252,qs),
(363,1252,l),
(319,1055,l),
(705,1055,l),
(461,0,l)
);
}
);
width = 1229;
},
{
layerId = "197E8B11-68AA-4AD5-97B2-73874077EF42";
shapes = (
{
closed = 1;
nodes = (
(662,0,l),
(995,1447,l),
(819,1447,l),
(810,1403,o),
(773,1329,o),
(717,1274,o),
(642,1244,o),
(594,1244,qs),
(372,1244,l),
(338,1094,l),
(726,1094,l),
(473,0,l)
);
}
);
width = 1229;
},
{
layerId = "78E15571-ED7D-4566-909A-841824FB4F05";
shapes = (
{
closed = 1;
nodes = (
(602,0,l),
(934,1447,l),
(834,1447,l),
(825,1402,o),
(782,1323,o),
(720,1267,o),
(638,1234,o),
(591,1234,qs),
(381,1234,l),
(361,1138,l),
(749,1138,l),
(487,0,l)
);
}
);
width = 1229;
}
);
unicode = 49;
},
{
glyphname = two;
layers = (
{
layerId = "96221EC5-23C3-47D4-93F5-B4F733922506";
shapes = (
{
closed = 1;
nodes = (
(-72,0,l),
(1055,0,l),
(1116,261,l),
(485,261,l),
(586,311,o),
(774,438,o),
(938,584,o),
(1075,740,o),
(1173,896,o),
(1227,1046,o),
(1227,1111,qs),
(1227,1190,o),
(1169,1321,o),
(1064,1416,o),
(918,1468,o),
(830,1468,qs),
(724,1468,o),
(520,1385,o),
(350,1241,o),
(226,1046,o),
(200,934,q),
(472,893,l),
(491,965,o),
(555,1081,o),
(640,1163,o),
(742,1207,o),
(798,1207,qs),
(832,1207,o),
(885,1192,o),
(921,1161,o),
(940,1116,o),
(940,1086,qs),
(940,1037,o),
(868,908,o),
(739,761,o),
(560,602,o),
(346,445,o),
(104,296,o),
(-24,231,q)
);
}
);
width = 1229;
},
{
layerId = "B233C9FF-3FF4-4605-8A2F-BA759C1250EC";
shapes = (
{
closed = 1;
nodes = (
(-56,0,l),
(1040,0,l),
(1095,231,l),
(430,231,l),
(544,290,o),
(748,428,o),
(923,579,o),
(1063,738,o),
(1161,897,o),
(1214,1051,o),
(1214,1121,qs),
(1214,1199,o),
(1159,1327,o),
(1057,1418,o),
(915,1468,o),
(828,1468,qs),
(726,1468,o),
(534,1394,o),
(373,1261,o),
(254,1079,o),
(224,972,q),
(468,929,l),
(490,1000,o),
(557,1114,o),
(643,1193,o),
(746,1235,o),
(803,1235,qs),
(840,1235,o),
(897,1217,o),
(936,1183,o),
(956,1133,o),
(956,1101,qs),
(956,1049,o),
(893,922,o),
(774,779,o),
(604,622,o),
(388,459,o),
(132,293,o),
(-12,212,q)
);
}
);
width = 1229;
},
{
layerId = "197E8B11-68AA-4AD5-97B2-73874077EF42";
shapes = (
{
closed = 1;
nodes = (
(-39,0,l),
(990,0,l),
(1028,164,l),
(285,164,l),
(422,238,o),
(664,398,o),
(866,565,o),
(1026,735,o),
(1136,902,o),
(1194,1063,o),
(1194,1137,qs),
(1194,1211,o),
(1142,1333,o),
(1046,1420,o),
(909,1468,o),
(824,1468,qs),
(724,1468,o),
(541,1399,o),
(390,1272,o),
(279,1096,o),
(252,990,q),
(429,959,l),
(451,1037,o),
(526,1162,o),
(625,1251,o),
(743,1299,o),
(809,1299,qs),
(854,1299,o),
(925,1272,o),
(975,1225,o),
(1001,1160,o),
(1001,1121,qs),
(1001,1059,o),
(937,915,o),
(815,758,o),
(638,591,o),
(415,419,o),
(148,248,o),
(-3,165,q)
);
}
);
width = 1229;
},
{
layerId = "78E15571-ED7D-4566-909A-841824FB4F05";
shapes = (
{
closed = 1;
nodes = (
(-20,0,l),
(933,0,l),
(953,91,l),
(123,91,l),
(289,180,o),
(571,365,o),
(805,550,o),
(984,732,o),
(1108,908,o),
(1172,1077,o),
(1172,1155,qs),
(1172,1223,o),
(1123,1339,o),
(1033,1422,o),
(903,1468,o),
(820,1468,qs),
(723,1468,o),
(549,1404,o),
(410,1286,o),
(308,1116,o),
(282,1011,q),
(386,994,l),
(408,1078,o),
(492,1216,o),
(604,1316,o),
(742,1370,o),
(815,1370,qs),
(869,1370,o),
(957,1334,o),
(1017,1272,o),
(1051,1190,o),
(1051,1144,qs),
(1051,1070,o),
(985,908,o),
(859,736,o),
(677,555,o),
(445,376,o),
(166,197,o),
(6,113,q)
);
}
);
width = 1229;
}
);
unicode = 50;
},
{
glyphname = three;
layers = (
{
layerId = "96221EC5-23C3-47D4-93F5-B4F733922506";
shapes = (
{
closed = 1;
nodes = (
(624,-20,o),
(867,61,o),
(1044,204,o),
(1143,401,o),
(1143,518,qs),
(1143,603,o),
(1085,728,o),
(1023,774,q),
(1067,808,o),
(1136,891,o),
(1184,984,o),
(1210,1083,o),
(1210,1133,qs),
(1210,1206,o),
(1151,1329,o),
(1046,1418,o),
(902,1468,o),
(816,1468,qs),
(708,1468,o),
(515,1405,o),
(364,1291,o),
(260,1131,o),
(240,1034,q),
(507,993,l),
(519,1039,o),
(568,1114,o),
(637,1167,o),
(722,1196,o),
(770,1196,qs),
(806,1196,o),
(865,1182,o),
(906,1157,o),
(928,1121,o),
(928,1098,qs),
(928,1056,o),
(893,983,o),
(831,928,o),
(750,896,o),
(703,896,qs),
(548,896,l),
(486,639,l),
(657,639,ls),
(708,639,o),
(788,622,o),
(842,590,o),
(871,542,o),
(871,512,qs),
(871,458,o),
(816,362,o),
(722,291,o),
(597,249,o),
(526,249,qs),
(475,249,o),
(396,272,o),
(341,315,o),
(312,378,o),
(312,418,qs),
(312,432,o),
(315,463,o),
(318,480,q),
(43,480,l),
(35,451,o),
(28,391,o),
(28,362,qs),
(28,277,o),
(94,136,o),
(213,35,o),
(380,-20,o),
(481,-20,qs)
);
}
);
width = 1229;
},
{
layerId = "B233C9FF-3FF4-4605-8A2F-BA759C1250EC";
shapes = (
{
closed = 1;
nodes = (
(630,-20,o),
(862,61,o),
(1031,203,o),
(1126,400,o),
(1126,515,qs),
(1126,604,o),
(1060,732,o),
(994,774,q),
(1042,810,o),
(1117,895,o),
(1169,990,o),
(1196,1092,o),
(1196,1143,qs),
(1196,1215,o),
(1139,1335,o),
(1036,1421,o),
(892,1468,o),
(805,1468,qs),
(704,1468,o),
(526,1409,o),
(383,1299,o),
(282,1145,o),
(258,1049,q),
(495,1011,l),
(507,1060,o),
(560,1139,o),
(634,1196,o),
(725,1227,o),
(776,1227,qs),
(815,1227,o),
(878,1211,o),
(922,1180,o),
(945,1137,o),
(945,1110,qs),
(945,1064,o),
(906,981,o),
(839,919,o),
(750,883,o),
(700,883,qs),
(560,883,l),
(505,652,l),
(660,652,ls),
(713,652,o),
(796,633,o),
(854,596,o),
(885,543,o),
(885,509,qs),
(885,450,o),
(826,344,o),
(726,265,o),
(594,218,o),
(520,218,qs),
(467,218,o),
(383,243,o),
(324,290,o),
(293,357,o),
(293,400,qs),
(293,418,o),
(296,449,o),
(300,465,q),
(54,465,l),
(47,436,o),
(40,378,o),
(40,349,qs),
(40,265,o),
(105,129,o),
(223,33,o),
(390,-20,o),
(493,-20,qs)
);
}
);
width = 1229;
},
{
layerId = "197E8B11-68AA-4AD5-97B2-73874077EF42";
shapes = (
{
closed = 1;
nodes = (
(600,-20,o),
(820,60,o),
(981,201,o),
(1071,396,o),
(1071,510,qs),
(1071,608,o),
(992,739,o),
(909,775,q),
(965,807,o),
(1054,894,o),
(1116,995,o),
(1148,1108,o),
(1148,1167,qs),
(1148,1234,o),
(1096,1345,o),
(1002,1424,o),
(870,1468,o),
(791,1468,qs),
(697,1468,o),
(531,1413,o),
(397,1311,o),
(303,1168,o),
(282,1081,q),
(450,1051,l),
(463,1105,o),
(524,1195,o),
(609,1260,o),
(713,1296,o),
(770,1296,qs),
(814,1296,o),
(886,1273,o),
(938,1230,o),
(966,1171,o),
(966,1136,qs),
(966,1074,o),
(919,970,o),
(835,895,o),
(721,852,o),
(653,852,qs),
(569,852,l),
(529,683,l),
(655,683,ls),
(709,683,o),
(799,656,o),
(862,608,o),
(898,540,o),
(898,499,qs),
(898,428,o),
(832,301,o),
(720,205,o),
(572,148,o),
(490,148,qs),
(431,148,o),
(335,179,o),
(267,234,o),
(230,313,o),
(230,361,qs),
(230,379,o),
(234,415,o),
(238,432,q),
(62,428,l),
(55,399,o),
(47,343,o),
(47,316,qs),
(47,240,o),
(107,116,o),
(218,28,o),
(374,-20,o),
(470,-20,qs)
);
}
);
width = 1229;
},
{
layerId = "78E15571-ED7D-4566-909A-841824FB4F05";
shapes = (
{
closed = 1;
nodes = (
(567,-20,o),
(774,59,o),
(926,200,o),
(1011,392,o),
(1011,504,qs),
(1011,614,o),
(916,745,o),
(816,775,q),
(881,806,o),
(984,893,o),
(1056,1001,o),
(1096,1128,o),
(1096,1194,qs),
(1096,1255,o),
(1048,1356,o),
(963,1429,o),
(846,1468,o),
(775,1468,qs),
(690,1468,o),
(536,1416,o),
(414,1323,o),
(327,1194,o),
(308,1116,q),
(401,1096,l),
(415,1155,o),
(484,1257,o),
(581,1331,o),
(700,1373,o),
(763,1373,qs),
(811,1373,o),
(895,1341,o),
(956,1286,o),
(990,1210,o),
(990,1165,qs),
(990,1088,o),
(934,960,o),
(832,868,o),
(688,818,o),
(601,818,qs),
(578,818,l),
(556,718,l),
(651,718,ls),
(706,718,o),
(801,683,o),
(871,622,o),
(912,537,o),
(912,489,qs),
(912,404,o),
(838,253,o),
(714,139,o),
(550,72,o),
(457,72,qs),
(392,72,o),
(283,107,o),
(204,173,o),
(161,264,o),
(161,318,qs),
(161,337,o),
(165,376,o),
(171,395,q),
(71,386,l),
(63,357,o),
(56,304,o),
(56,280,qs),
(56,212,o),
(112,100,o),
(212,22,o),
(356,-20,o),
(445,-20,qs)
);
}
);
width = 1229;
}
);
unicode = 51;
},
{
glyphname = four;
layers = (
{
layerId = "96221EC5-23C3-47D4-93F5-B4F733922506";
shapes = (
{
closed = 1;
nodes = (
(850,0,l),
(921,325,l),
(1140,325,l),
(1198,592,l),
(979,592,l),
(1167,1447,l),
(925,1447,l),
(34,489,l),
(0,325,l),
(635,325,l),
(565,0,l)
);
},
{
closed = 1;
nodes = (
(693,592,l),
(430,592,l),
(780,982,l)
);
}
);
width = 1229;
},
{
layerId = "B233C9FF-3FF4-4605-8A2F-BA759C1250EC";
shapes = (
{
closed = 1;
nodes = (
(825,0,l),
(900,339,l),
(1121,339,l),
(1174,578,l),
(952,578,l),
(1146,1447,l),
(925,1447,l),
(33,487,l),
(2,339,l),
(643,339,l),
(569,0,l)
);
},
{
closed = 1;
nodes = (
(695,578,l),
(385,578,l),
(798,1031,l)
);
}
);
width = 1229;
},
{
layerId = "197E8B11-68AA-4AD5-97B2-73874077EF42";
shapes = (
{
closed = 1;
nodes = (
(765,0,l),
(850,375,l),
(1076,375,l),
(1113,542,l),
(887,542,l),
(1092,1447,l),
(925,1447,l),
(30,482,l),
(7,375,l),
(663,375,l),
(579,0,l)
);
},
{
closed = 1;
nodes = (
(700,542,l),
(275,542,l),
(839,1150,l)
);
}
);
width = 1229;
},
{
layerId = "78E15571-ED7D-4566-909A-841824FB4F05";
shapes = (
{
closed = 1;
nodes = (
(699,0,l),
(795,414,l),
(1025,414,l),
(1046,503,l),
(815,503,l),
(1034,1447,l),
(925,1447,l),
(29,476,l),
(13,414,l),
(686,414,l),
(590,0,l)
);
},
{
closed = 1;
nodes = (
(705,503,l),
(154,503,l),
(884,1282,l)
);
}
);
width = 1229;
}
);
unicode = 52;
},
{
glyphname = five;
layers = (
{
layerId = "96221EC5-23C3-47D4-93F5-B4F733922506";
shapes = (
{
closed = 1;
nodes = (
(681,-20,o),
(909,69,o),
(1081,235,o),
(1182,473,o),
(1182,621,qs),
(1182,707,o),
(1122,850,o),
(1013,953,o),
(861,1010,o),
(769,1010,qs),
(745,1010,o),
(685,1003,o),
(622,990,o),
(560,970,o),
(534,955,q),
(636,1178,l),
(1238,1178,l),
(1299,1447,l),
(464,1447,l),
(143,676,l),
(397,607,l),
(423,637,o),
(489,688,o),
(561,724,o),
(634,744,o),
(668,744,qs),
(760,744,o),
(864,650,o),
(864,554,qs),
(864,494,o),
(822,382,o),
(742,296,o),
(625,245,o),
(550,245,qs),
(502,245,o),
(421,275,o),
(363,337,o),
(330,430,o),
(330,493,q),
(51,443,l),
(51,343,o),
(127,173,o),
(262,49,o),
(446,-20,o),
(555,-20,qs)
);
}
);
width = 1229;
},
{
layerId = "B233C9FF-3FF4-4605-8A2F-BA759C1250EC";
shapes = (
{
closed = 1;
nodes = (
(638,-20,o),
(875,69,o),
(1045,230,o),
(1139,455,o),
(1139,591,qs),
(1139,679,o),
(1080,827,o),
(974,934,o),
(828,994,o),
(740,994,qs),
(707,994,o),
(647,989,o),
(591,977,o),
(538,958,o),
(512,944,q),
(631,1208,l),
(1231,1208,l),
(1285,1447,l),
(478,1447,l),
(164,686,l),
(388,616,l),
(417,649,o),
(485,703,o),
(560,740,o),
(638,761,o),
(675,761,qs),
(771,761,o),
(880,664,o),
(880,578,qs),
(880,494,o),
(830,360,o),
(737,265,o),
(604,214,o),
(522,214,qs),
(470,214,o),
(392,247,o),
(339,313,o),
(312,411,o),
(312,476,q),
(65,430,l),
(65,334,o),
(130,169,o),
(245,48,o),
(402,-20,o),
(495,-20,qs)
);
}
);
width = 1229;
},
{
layerId = "197E8B11-68AA-4AD5-97B2-73874077EF42";
shapes = (
{
closed = 1;
nodes = (
(605,-20,o),
(830,74,o),
(997,238,o),
(1093,459,o),
(1093,584,qs),
(1093,668,o),
(1040,807,o),
(941,905,o),
(804,960,o),
(720,960,qs),
(680,960,o),
(605,949,o),
(535,926,o),
(470,893,o),
(440,870,q),
(608,1277,l),
(1202,1277,l),
(1241,1447,l),
(498,1447,l),
(198,708,l),
(353,639,l),
(383,674,o),
(458,732,o),
(542,772,o),
(630,794,o),
(674,794,qs),
(783,794,o),
(904,679,o),
(904,575,qs),
(904,486,o),
(841,330,o),
(732,215,o),
(585,147,o),
(501,147,qs),
(439,147,o),
(349,183,o),
(289,255,o),
(260,365,o),
(260,439,q),
(80,398,l),
(80,306,o),
(138,152,o),
(242,41,o),
(388,-20,o),
(476,-20,qs)
);
}
);
width = 1229;
},
{
layerId = "78E15571-ED7D-4566-909A-841824FB4F05";
shapes = (
{
closed = 1;
nodes = (
(568,-20,o),
(779,80,o),
(943,247,o),
(1044,462,o),
(1044,578,qs),
(1044,658,o),
(995,785,o),
(907,874,o),
(779,921,o),
(699,921,qs),
(650,921,o),
(559,904,o),
(474,871,o),
(395,821,o),
(359,788,q),
(583,1354,l),
(1171,1354,l),
(1192,1447,l),
(519,1447,l),
(236,734,l),
(314,663,l),
(346,703,o),
(428,764,o),
(521,808,o),
(623,832,o),
(673,832,qs),
(797,832,o),
(933,697,o),
(933,572,qs),
(933,479,o),
(855,299,o),
(728,158,o),
(564,74,o),
(477,74,qs),
(406,74,o),
(301,111,o),
(234,191,o),
(202,313,o),
(202,399,q),
(97,364,l),
(97,275,o),
(147,133,o),
(239,34,o),
(372,-20,o),
(455,-20,qs)
);
}
);
width = 1229;
}
);
unicode = 53;
},
{
glyphname = six;
layers = (
{
layerId = "96221EC5-23C3-47D4-93F5-B4F733922506";
shapes = (
{
closed = 1;
nodes = (
(577,-20,o),
(740,22,o),
(888,100,o),
(1015,210,o),
(1109,345,o),
(1162,503,o),
(1162,589,qs),
(1162,687,o),
(1108,837,o),
(1007,938,o),
(864,989,o),
(775,989,qs),
(760,989,o),
(728,988,o),
(712,986,q),
(1143,1447,l),
(803,1447,l),
(203,753,ls),
(134,673,o),
(59,501,o),
(59,393,qs),
(59,300,o),
(128,147,o),
(246,39,o),
(405,-20,o),
(496,-20,qs)
);
},
{
closed = 1;
nodes = (
(512,253,o),
(437,274,o),
(378,316,o),
(342,381,o),
(342,424,qs),
(342,483,o),
(403,594,o),
(499,679,o),
(617,730,o),
(674,730,qs),
(713,730,o),
(786,710,o),
(843,668,o),
(878,605,o),
(878,561,qs),
(878,502,o),
(818,391,o),
(724,305,o),
(608,253,o),
(551,253,qs)
);
}
);
width = 1229;
},
{
layerId = "B233C9FF-3FF4-4605-8A2F-BA759C1250EC";
shapes = (
{
closed = 1;
nodes = (
(583,-20,o),
(740,23,o),
(882,101,o),
(1004,210,o),
(1095,343,o),
(1146,494,o),
(1146,575,qs),
(1146,664,o),
(1090,811,o),
(985,916,o),
(834,974,o),
(740,974,qs),
(726,974,o),
(699,972,o),
(684,971,q),
(1115,1447,l),
(813,1447,l),
(214,744,l),
(143,662,o),
(73,483,o),
(73,386,qs),
(73,292,o),
(141,141,o),
(258,36,o),
(416,-20,o),
(505,-20,qs)
);
},
{
closed = 1;
nodes = (
(495,222,o),
(418,248,o),
(359,296,o),
(325,367,o),
(325,412,qs),
(325,476,o),
(389,597,o),
(492,690,o),
(620,746,o),
(684,746,qs),
(726,746,o),
(802,721,o),
(859,673,o),
(893,604,o),
(893,559,qs),
(893,493,o),
(829,371,o),
(727,278,o),
(600,222,o),
(537,222,qs)
);
}
);
width = 1229;
},
{
layerId = "197E8B11-68AA-4AD5-97B2-73874077EF42";
shapes = (
{
closed = 1;
nodes = (
(560,-20,o),
(710,23,o),
(845,102,o),
(961,211,o),
(1045,342,o),
(1093,490,o),
(1093,568,qs),
(1093,659,o),
(1032,798,o),
(926,891,o),
(781,938,o),
(697,938,qs),
(671,938,o),
(609,927,o),
(580,915,q),
(1033,1447,l),
(818,1447,l),
(223,724,ls),
(157,645,o),
(85,464,o),
(85,365,qs),
(85,278,o),
(146,136,o),
(253,35,o),
(399,-20,o),
(484,-20,qs)
);
},
{
closed = 1;
nodes = (
(458,153,o),
(370,187,o),
(306,249,o),
(269,335,o),
(269,387,qs),
(269,463,o),
(337,604,o),
(449,712,o),
(593,777,o),
(669,777,qs),
(720,777,o),
(808,746,o),
(872,687,o),
(909,604,o),
(909,551,qs),
(909,476,o),
(840,333,o),
(728,221,o),
(584,153,o),
(509,153,qs)
);
}
);
width = 1229;
},
{
layerId = "78E15571-ED7D-4566-909A-841824FB4F05";
shapes = (
{
closed = 1;
nodes = (
(535,-20,o),
(677,25,o),
(805,104,o),
(912,213,o),
(991,342,o),
(1035,486,o),
(1035,559,qs),
(1035,655,o),
(968,783,o),
(860,864,o),
(723,898,o),
(651,898,qs),
(608,898,o),
(509,876,o),
(466,852,q),
(942,1447,l),
(824,1447,l),
(232,702,l),
(174,626,o),
(99,442,o),
(99,343,qs),
(99,263,o),
(152,130,o),
(247,34,o),
(380,-20,o),
(460,-20,qs)
);
},
{
closed = 1;
nodes = (
(418,77,o),
(318,120,o),
(246,195,o),
(208,299,o),
(208,360,qs),
(208,450,o),
(280,612,o),
(403,736,o),
(565,810,o),
(653,810,qs),
(714,810,o),
(814,772,o),
(887,704,o),
(927,604,o),
(927,542,qs),
(927,457,o),
(852,290,o),
(728,158,o),
(566,77,o),
(479,77,qs)
);
}
);
width = 1229;
}
);
unicode = 54;
},
{
glyphname = seven;
layers = (
{
layerId = "96221EC5-23C3-47D4-93F5-B4F733922506";
shapes = (
{
closed = 1;
nodes = (
(390,0,l),
(1335,1298,l),
(1369,1447,l),
(299,1447,l),
(238,1181,l),
(950,1181,l),
(65,0,l)
);
}
);
width = 1229;
},
{
layerId = "B233C9FF-3FF4-4605-8A2F-BA759C1250EC";
shapes = (
{
closed = 1;
nodes = (
(382,0,l),
(1325,1315,l),
(1355,1447,l),
(310,1447,l),
(256,1210,l),
(983,1210,l),
(90,0,l)
);
}
);
width = 1229;
},
{
layerId = "197E8B11-68AA-4AD5-97B2-73874077EF42";
shapes = (
{
closed = 1;
nodes = (
(345,0,l),
(1286,1352,l),
(1306,1447,l),
(320,1447,l),
(281,1277,l),
(1042,1277,l),
(131,0,l)
);
}
);
width = 1229;
},
{
layerId = "78E15571-ED7D-4566-909A-841824FB4F05";
shapes = (
{
closed = 1;
nodes = (
(303,0,l),
(1241,1393,l),
(1254,1447,l),
(332,1447,l),
(310,1352,l),
(1107,1352,l),
(178,0,l)
);
}
);
width = 1229;
}
);
unicode = 55;
},
{
glyphname = eight;
layers = (
{
layerId = "96221EC5-23C3-47D4-93F5-B4F733922506";
shapes = (
{
closed = 1;
nodes = (
(572,-20,o),
(731,8,o),
(878,65,o),
(1005,151,o),
(1098,269,o),
(1152,419,o),
(1152,510,qs),
(1152,590,o),
(1094,722,o),
(1026,768,q),
(1068,801,o),
(1140,882,o),
(1194,973,o),
(1225,1075,o),
(1225,1130,qs),
(1225,1217,o),
(1158,1344,o),
(1045,1428,o),
(899,1468,o),
(821,1468,qs),
(719,1468,o),
(519,1404,o),
(359,1283,o),
(260,1107,o),
(260,995,qs),
(260,940,o),
(291,840,o),
(326,797,q),
(262,762,o),
(155,665,o),
(78,547,o),
(36,411,o),
(36,336,qs),
(36,244,o),
(118,109,o),
(248,22,o),
(411,-20,o),
(492,-20,qs)
);
},
{
closed = 1;
nodes = (
(666,894,o),
(611,903,o),
(567,927,o),
(539,968,o),
(539,1000,qs),
(539,1046,o),
(586,1120,o),
(660,1172,o),
(748,1200,o),
(790,1200,qs),
(815,1200,o),
(870,1192,o),
(915,1170,o),
(945,1131,o),
(945,1099,qs),
(945,1053,o),
(897,977,o),
(823,923,o),
(734,894,o),
(692,894,qs)
);
},
{
closed = 1;
nodes = (
(503,243,o),
(428,254,o),
(365,284,o),
(323,337,o),
(323,380,qs),
(323,446,o),
(383,545,o),
(479,610,o),
(598,642,o),
(656,642,qs),
(688,642,o),
(763,632,o),
(827,603,o),
(870,551,o),
(870,510,qs),
(870,446,o),
(808,347,o),
(711,279,o),
(593,243,o),
(537,243,qs)
);
}
);
width = 1229;
},
{
layerId = "B233C9FF-3FF4-4605-8A2F-BA759C1250EC";
shapes = (
{
closed = 1;
nodes = (
(581,-20,o),
(735,10,o),
(875,68,o),
(996,157,o),
(1085,273,o),
(1136,419,o),
(1136,506,qs),
(1136,593,o),
(1067,724,o),
(998,770,q),
(1049,806,o),
(1128,891,o),
(1182,987,o),
(1210,1092,o),
(1210,1146,qs),
(1210,1229,o),
(1144,1351,o),
(1036,1430,o),
(896,1468,o),
(822,1468,qs),
(723,1468,o),
(528,1404,o),
(372,1284,o),
(276,1111,o),
(276,1001,qs),
(276,935,o),
(315,833,o),
(354,795,q),
(290,759,o),
(178,664,o),
(96,548,o),
(49,412,o),
(49,335,qs),
(49,241,o),
(128,106,o),
(256,20,o),
(419,-20,o),
(503,-20,qs)
);
},
{
closed = 1;
nodes = (
(649,879,o),
(587,896,o),
(546,927,o),
(525,973,o),
(525,1002,qs),
(525,1054,o),
(575,1138,o),
(653,1198,o),
(750,1231,o),
(797,1231,qs),
(833,1231,o),
(894,1216,o),
(938,1186,o),
(963,1141,o),
(963,1112,qs),
(963,1061,o),
(913,975,o),
(834,913,o),
(737,879,o),
(690,879,qs)
);
},
{
closed = 1;
nodes = (
(482,212,o),
(400,231,o),
(340,269,o),
(305,328,o),
(305,368,qs),
(305,438,o),
(370,546,o),
(472,620,o),
(598,658,o),
(660,658,qs),
(697,658,o),
(776,645,o),
(842,611,o),
(885,552,o),
(885,507,qs),
(885,438,o),
(820,329,o),
(718,253,o),
(592,212,o),
(530,212,qs)
);
}
);
width = 1229;
},
{
layerId = "197E8B11-68AA-4AD5-97B2-73874077EF42";
shapes = (
{
closed = 1;
nodes = (
(561,-20,o),
(708,11,o),
(842,71,o),
(955,159,o),
(1038,274,o),
(1085,416,o),
(1085,499,qs),
(1085,594,o),
(1002,731,o),
(919,774,q),
(976,806,o),
(1068,891,o),
(1132,992,o),
(1167,1107,o),
(1167,1170,qs),
(1167,1246,o),
(1107,1358,o),
(1009,1432,o),
(881,1468,o),
(812,1468,qs),
(716,1468,o),
(531,1403,o),
(385,1284,o),
(297,1116,o),
(297,1012,qs),
(297,940,o),
(349,828,o),
(404,788,q),
(331,755,o),
(207,661,o),
(115,540,o),
(63,395,o),
(63,312,qs),
(63,223,o),
(136,97,o),
(254,17,o),
(406,-20,o),
(485,-20,qs)
);
},
{
closed = 1;
nodes = (
(628,845,o),
(557,865,o),
(506,907,o),
(479,968,o),
(479,1009,qs),
(479,1071,o),
(533,1177,o),
(622,1255,o),
(735,1299,o),
(794,1299,qs),
(835,1299,o),
(905,1279,o),
(957,1238,o),
(987,1177,o),
(987,1138,qs),
(987,1077,o),
(933,970,o),
(845,890,o),
(731,844,o),
(672,845,q)
);
},
{
closed = 1;
nodes = (
(453,143,o),
(361,167,o),
(292,216,o),
(250,290,o),
(250,341,qs),
(250,421,o),
(319,551,o),
(431,644,o),
(575,694,o),
(650,694,qs),
(695,694,o),
(785,672,o),
(856,625,o),
(901,550,o),
(901,498,qs),
(901,420,o),
(832,289,o),
(720,195,o),
(577,143,o),
(504,143,qs)
);
}
);
width = 1229;
},
{
layerId = "78E15571-ED7D-4566-909A-841824FB4F05";
shapes = (
{
closed = 1;
nodes = (
(539,-20,o),
(680,13,o),
(805,73,o),
(910,162,o),
(986,276,o),
(1028,412,o),
(1028,490,qs),
(1028,594,o),
(930,739,o),
(832,779,q),
(895,808,o),
(1001,891,o),
(1077,997,o),
(1119,1124,o),
(1119,1197,qs),
(1119,1266,o),
(1067,1367,o),
(979,1434,o),
(865,1468,o),
(802,1468,qs),
(709,1468,o),
(534,1403,o),
(400,1284,o),
(320,1121,o),
(320,1024,qs),
(320,945,o),
(387,822,o),
(460,781,q),
(378,751,o),
(239,657,o),
(136,531,o),
(78,377,o),
(78,287,qs),
(78,204,o),
(144,88,o),
(253,14,o),
(391,-20,o),
(464,-20,qs)
);
},
{
closed = 1;
nodes = (
(606,806,o),
(523,832,o),
(463,885,o),
(428,964,o),
(428,1017,qs),
(428,1089,o),
(487,1219,o),
(586,1318,o),
(719,1376,o),
(791,1376,qs),
(837,1376,o),
(919,1348,o),
(978,1295,o),
(1013,1218,o),
(1013,1167,qs),
(1013,1094,o),
(954,964,o),
(856,865,o),
(725,807,o),
(653,806,q)
);
},
{
closed = 1;
nodes = (
(422,67,o),
(319,97,o),
(238,156,o),
(190,250,o),
(190,311,qs),
(190,402,o),
(264,557,o),
(388,671,o),
(550,735,o),
(638,735,qs),
(694,735,o),
(794,702,o),
(871,640,o),
(918,549,o),
(918,489,qs),
(918,399,o),
(844,246,o),
(722,132,o),
(562,67,o),
(474,67,qs)
);
}
);
width = 1229;
}
);
unicode = 56;
},
{
glyphname = nine;
layers = (
{
layerId = "96221EC5-23C3-47D4-93F5-B4F733922506";
shapes = (
{
closed = 1;
nodes = (
(523,0,l),
(1124,694,ls),
(1158,733,o),
(1211,816,o),
(1249,906,o),
(1269,1002,o),
(1269,1053,qs),
(1269,1146,o),
(1200,1299,o),
(1081,1408,o),
(922,1468,o),
(831,1468,qs),
(748,1468,o),
(585,1426,o),
(437,1348,o),
(310,1238,o),
(217,1102,o),
(165,944,o),
(165,858,qs),
(165,779,o),
(225,648,o),
(328,556,o),
(468,505,o),
(548,505,qs),
(577,505,o),
(637,512,o),
(668,519,q),
(180,0,l)
);
},
{
closed = 1;
nodes = (
(615,716,o),
(541,737,o),
(482,779,o),
(446,843,o),
(446,886,qs),
(446,945,o),
(507,1056,o),
(602,1142,o),
(720,1194,o),
(777,1194,qs),
(816,1194,o),
(891,1174,o),
(949,1132,o),
(985,1068,o),
(985,1024,qs),
(985,965,o),
(924,854,o),
(828,768,o),
(710,716,o),
(653,716,qs)
);
}
);
width = 1229;
},
{
layerId = "B233C9FF-3FF4-4605-8A2F-BA759C1250EC";
shapes = (
{
closed = 1;
nodes = (
(514,0,l),
(1113,702,ls),
(1148,744,o),
(1201,830,o),
(1237,919,o),
(1254,1012,o),
(1254,1061,qs),
(1254,1156,o),
(1187,1307,o),
(1070,1412,o),
(912,1468,o),
(822,1468,qs),
(743,1468,o),
(587,1425,o),
(444,1347,o),
(322,1238,o),
(232,1105,o),
(181,953,o),
(181,871,qs),
(181,801,o),
(228,668,o),
(314,566,o),
(435,504,o),
(509,504,qs),
(567,504,o),
(684,535,o),
(722,564,q),
(210,0,l)
);
},
{
closed = 1;
nodes = (
(600,700,o),
(524,726,o),
(466,775,o),
(432,845,o),
(432,889,qs),
(432,955,o),
(497,1076,o),
(599,1169,o),
(727,1225,o),
(791,1225,qs),
(833,1225,o),
(910,1199,o),
(968,1151,o),
(1002,1081,o),
(1002,1036,qs),
(1002,969,o),
(938,848,o),
(835,755,o),
(706,700,o),
(642,700,qs)
);
}
);
width = 1229;
},
{
layerId = "197E8B11-68AA-4AD5-97B2-73874077EF42";
shapes = (
{
closed = 1;
nodes = (
(447,0,l),
(1071,723,ls),
(1104,761,o),
(1155,847,o),
(1189,938,o),
(1207,1034,o),
(1207,1082,qs),
(1207,1169,o),
(1146,1312,o),
(1039,1413,o),
(894,1468,o),
(809,1468,qs),
(732,1468,o),
(582,1425,o),
(446,1346,o),
(331,1236,o),
(247,1105,o),
(200,957,o),
(200,878,qs),
(200,799,o),
(253,668,o),
(348,574,o),
(480,521,o),
(558,521,qs),
(605,521,o),
(698,540,o),
(735,557,q),
(233,0,l)
);
},
{
closed = 1;
nodes = (
(571,670,o),
(483,701,o),
(419,760,o),
(383,844,o),
(383,897,qs),
(383,973,o),
(452,1115,o),
(566,1226,o),
(710,1294,o),
(785,1294,qs),
(835,1294,o),
(922,1259,o),
(986,1198,o),
(1023,1112,o),
(1023,1062,qs),
(1023,984,o),
(955,843,o),
(843,735,o),
(699,670,o),
(623,670,qs)
);
}
);
width = 1229;
},
{
layerId = "78E15571-ED7D-4566-909A-841824FB4F05";
shapes = (
{
closed = 1;
nodes = (
(372,0,l),
(1023,746,ls),
(1053,781,o),
(1103,867,o),
(1137,961,o),
(1155,1058,o),
(1155,1106,qs),
(1155,1184,o),
(1101,1317,o),
(1006,1413,o),
(873,1468,o),
(796,1468,qs),
(720,1468,o),
(578,1424,o),
(449,1343,o),
(342,1235,o),
(264,1105,o),
(220,960,o),
(220,887,qs),
(220,798,o),
(280,668,o),
(386,582,o),
(530,542,o),
(612,542,qs),
(647,542,o),
(713,545,o),
(750,550,q),
(259,0,l)
);
},
{
closed = 1;
nodes = (
(540,637,o),
(438,674,o),
(367,744,o),
(328,843,o),
(328,906,qs),
(328,993,o),
(404,1159,o),
(529,1291,o),
(692,1371,o),
(779,1371,qs),
(838,1371,o),
(936,1325,o),
(1006,1249,o),
(1046,1148,o),
(1046,1089,qs),
(1046,1001,o),
(975,837,o),
(852,711,o),
(690,637,o),
(601,637,qs)
);
}
);
width = 1229;
}
);
unicode = 57;
},
{
glyphname = colon;
layers = (
{
layerId = "96221EC5-23C3-47D4-93F5-B4F733922506";
shapes = (
{
closed = 1;
nodes = (
(501,684,l),
(569,977,l),
(274,977,l),
(207,684,l)
);
},
{
closed = 1;
nodes = (
(345,0,l),
(411,293,l),
(116,293,l),
(50,0,l)
);
}
);
width = 614;
},
{
layerId = "B233C9FF-3FF4-4605-8A2F-BA759C1250EC";
shapes = (
{
closed = 1;
nodes = (
(495,707,l),
(557,977,l),
(285,977,l),
(222,707,l)
);
},
{
closed = 1;
nodes = (
(333,0,l),
(394,270,l),
(122,270,l),
(60,0,l)
);
}
);
width = 614;
},
{
layerId = "197E8B11-68AA-4AD5-97B2-73874077EF42";
shapes = (
{
closed = 1;
nodes = (
(477,757,l),
(528,976,l),
(306,976,l),
(256,757,l)
);
},
{
closed = 1;
nodes = (
(303,0,l),
(354,219,l),
(133,219,l),
(83,0,l)
);
}
);
width = 614;
},
{
layerId = "78E15571-ED7D-4566-909A-841824FB4F05";
shapes = (
{
closed = 1;
nodes = (
(458,814,l),
(495,976,l),
(330,976,l),
(292,814,l)
);
},
{
closed = 1;
nodes = (
(270,0,l),
(308,162,l),
(145,162,l),
(107,0,l)
);
}
);
width = 614;
}
);
unicode = 58;
},
{
glyphname = semicolon;
layers = (
{
layerId = "96221EC5-23C3-47D4-93F5-B4F733922506";
shapes = (
{
closed = 1;
nodes = (
(476,684,l),
(544,977,l),
(249,977,l),
(179,684,l)
);
},
{
closed = 1;
nodes = (
(101,-230,l),
(450,270,l),
(129,270,l),
(-88,-230,l)
);
}
);
width = 614;
},
{
layerId = "B233C9FF-3FF4-4605-8A2F-BA759C1250EC";
shapes = (
{
closed = 1;
nodes = (
(474,707,l),
(537,977,l),
(264,977,l),
(201,707,l)
);
},
{
closed = 1;
nodes = (
(90,-230,l),
(432,270,l),
(140,270,l),
(-78,-230,l)
);
}
);
width = 614;
},
{
layerId = "197E8B11-68AA-4AD5-97B2-73874077EF42";
shapes = (
{
closed = 1;
nodes = (
(468,757,l),
(519,976,l),
(298,976,l),
(247,757,l)
);
},
{
closed = 1;
nodes = (
(62,-231,l),
(390,269,l),
(163,269,l),
(-55,-231,l)
);
}
);
width = 614;
},
{
layerId = "78E15571-ED7D-4566-909A-841824FB4F05";
shapes = (
{
closed = 1;
nodes = (
(462,814,l),
(500,976,l),
(336,976,l),
(297,814,l)
);
},
{
closed = 1;
nodes = (
(32,-231,l),
(344,266,l),
(189,266,l),
(-30,-231,l)
);
}
);
width = 614;
}
);
unicode = 59;
},
{
glyphname = less;
layers = (
{
layerId = "96221EC5-23C3-47D4-93F5-B4F733922506";
shapes = (
{
closed = 1;
nodes = (
(1062,150,l),
(1179,351,l),
(476,690,l),
(1179,1029,l),
(1062,1230,l),
(26,690,l)
);
}
);
width = 1271;
},
{
layerId = "B233C9FF-3FF4-4605-8A2F-BA759C1250EC";
shapes = (
{
closed = 1;
nodes = (
(1055,156,l),
(1160,338,l),
(451,690,l),
(1160,1042,l),
(1055,1225,l),
(46,690,l)
);
}
);
width = 1267;
},
{
layerId = "197E8B11-68AA-4AD5-97B2-73874077EF42";
shapes = (
{
closed = 1;
nodes = (
(1038,169,l),
(1119,306,l),
(390,690,l),
(1119,1073,l),
(1038,1211,l),
(92,690,l)
);
}
);
width = 1255;
},
{
layerId = "78E15571-ED7D-4566-909A-841824FB4F05";
shapes = (
{
closed = 1;
nodes = (
(1023,183,l),
(1076,272,l),
(326,690,l),
(1076,1108,l),
(1023,1196,l),
(146,690,l)
);
}
);
width = 1249;
}
);
unicode = 60;
},
{
glyphname = equal;
layers = (
{
layerId = "96221EC5-23C3-47D4-93F5-B4F733922506";
shapes = (
{
closed = 1;
nodes = (
(1085,763,l),
(1085,996,l),
(213,996,l),
(213,763,l)
);
},
{
closed = 1;
nodes = (
(1085,379,l),
(1085,613,l),
(213,613,l),
(213,379,l)
);
}
);
width = 1297;
},
{
layerId = "B233C9FF-3FF4-4605-8A2F-BA759C1250EC";
shapes = (
{
closed = 1;
nodes = (
(1074,770,l),
(1074,981,l),
(224,981,l),
(224,770,l)
);
},
{
closed = 1;
nodes = (
(1074,394,l),
(1074,606,l),
(224,606,l),
(224,394,l)
);
}
);
width = 1298;
},
{
layerId = "197E8B11-68AA-4AD5-97B2-73874077EF42";
shapes = (
{
closed = 1;
nodes = (
(1050,787,l),
(1050,947,l),
(251,947,l),
(251,787,l)
);
},
{
closed = 1;
nodes = (
(1050,428,l),
(1050,589,l),
(251,589,l),
(251,428,l)
);
}
);
width = 1302;
},
{
layerId = "78E15571-ED7D-4566-909A-841824FB4F05";
shapes = (
{
closed = 1;
nodes = (
(1023,805,l),
(1023,910,l),
(280,910,l),
(280,805,l)
);
},
{
closed = 1;
nodes = (
(1023,467,l),
(1023,568,l),
(280,568,l),
(280,467,l)
);
}
);
width = 1304;
}
);
unicode = 61;
},
{
glyphname = greater;
layers = (
{
layerId = "96221EC5-23C3-47D4-93F5-B4F733922506";
shapes = (
{
closed = 1;
nodes = (
(209,150,l),
(1245,690,l),
(209,1230,l),
(92,1029,l),
(795,690,l),
(92,351,l)
);
}
);
width = 1272;
},
{
layerId = "B233C9FF-3FF4-4605-8A2F-BA759C1250EC";
shapes = (
{
closed = 1;
nodes = (
(212,156,l),
(1221,690,l),
(212,1225,l),
(106,1042,l),
(816,690,l),
(106,338,l)
);
}
);
width = 1267;
},
{
layerId = "197E8B11-68AA-4AD5-97B2-73874077EF42";
shapes = (
{
closed = 1;
nodes = (
(217,169,l),
(1164,690,l),
(217,1211,l),
(137,1073,l),
(865,690,l),
(137,306,l)
);
}
);
width = 1254;
},
{
layerId = "78E15571-ED7D-4566-909A-841824FB4F05";
shapes = (
{
closed = 1;
nodes = (
(225,183,l),
(1103,690,l),
(225,1196,l),
(175,1108,l),
(922,690,l),
(175,272,l)
);
}
);
width = 1247;
}
);
unicode = 62;
},
{
glyphname = question;
layers = (
{
layerId = "96221EC5-23C3-47D4-93F5-B4F733922506";
shapes = (
{
closed = 1;
nodes = (
(597,450,l),
(611,520,ls),
(617,551,o),
(642,600,o),
(675,638,o),
(716,666,o),
(738,677,qs),
(813,713,o),
(944,801,o),
(1042,910,o),
(1098,1043,o),
(1098,1124,qs),
(1098,1207,o),
(1044,1335,o),
(941,1423,o),
(791,1468,o),
(694,1468,qs),
(583,1468,o),
(401,1395,o),
(262,1265,o),
(168,1086,o),
(144,981,q),
(380,981,l),
(394,1042,o),
(451,1138,o),
(534,1203,o),
(641,1238,o),
(707,1238,qs),
(741,1238,o),
(797,1219,o),
(837,1184,o),
(859,1135,o),
(859,1104,qs),
(859,1070,o),
(821,1002,o),
(759,939,o),
(678,886,o),
(635,866,q),
(566,836,o),
(481,777,o),
(428,700,o),
(396,593,o),
(379,515,qs),
(365,450,l)
);
},
{
closed = 1;
nodes = (
(530,0,l),
(595,293,l),
(300,293,l),
(236,0,l)
);
}
);
width = 1011;
},
{
layerId = "B233C9FF-3FF4-4605-8A2F-BA759C1250EC";
shapes = (
{
closed = 1;
nodes = (
(589,434,l),
(621,570,ls),
(625,587,o),
(645,616,o),
(679,644,o),
(729,671,o),
(763,687,qs),
(836,722,o),
(957,806,o),
(1043,915,o),
(1091,1053,o),
(1091,1142,qs),
(1091,1227,o),
(1025,1351,o),
(917,1431,o),
(776,1468,o),
(700,1468,qs),
(594,1468,o),
(419,1399,o),
(283,1276,o),
(190,1106,o),
(166,1005,q),
(380,1005,l),
(393,1063,o),
(443,1158,o),
(519,1225,o),
(622,1261,o),
(688,1261,qs),
(731,1261,o),
(800,1247,o),
(850,1216,o),
(877,1169,o),
(877,1136,qs),
(877,1085,o),
(843,1008,o),
(786,949,o),
(712,902,o),
(672,882,qs),
(619,854,o),
(537,806,o),
(475,744,o),
(431,658,o),
(416,594,qs),
(378,434,l)
);
},
{
closed = 1;
nodes = (
(524,0,l),
(585,270,l),
(312,270,l),
(252,0,l)
);
}
);
width = 1021;
},
{
layerId = "197E8B11-68AA-4AD5-97B2-73874077EF42";
shapes = (
{
closed = 1;
nodes = (
(572,401,l),
(602,532,ls),
(614,581,o),
(641,646,o),
(683,693,o),
(746,730,o),
(792,751,qs),
(860,783,o),
(969,861,o),
(1046,961,o),
(1087,1087,o),
(1087,1166,qs),
(1087,1246,o),
(1025,1360,o),
(921,1434,o),
(789,1468,o),
(719,1468,qs),
(627,1468,o),
(463,1407,o),
(332,1298,o),
(239,1148,o),
(218,1058,q),
(383,1058,l),
(396,1116,o),
(458,1210,o),
(545,1276,o),
(654,1312,o),
(715,1312,qs),
(757,1312,o),
(833,1296,o),
(891,1261,o),
(925,1203,o),
(925,1161,qs),
(925,1108,o),
(890,1023,o),
(831,955,o),
(753,901,o),
(709,879,qs),
(648,849,o),
(563,794,o),
(503,723,o),
(463,626,o),
(447,554,qs),
(413,401,l)
);
},
{
closed = 1;
nodes = (
(514,0,l),
(564,219,l),
(343,219,l),
(293,0,l)
);
}
);
width = 1053;
},
{
layerId = "78E15571-ED7D-4566-909A-841824FB4F05";
shapes = (
{
closed = 1;
nodes = (
(547,365,l),
(575,489,l),
(593,575,o),
(629,679,o),
(680,747,o),
(757,795,o),
(818,823,qs),
(878,851,o),
(975,923,o),
(1040,1014,o),
(1075,1126,o),
(1075,1195,qs),
(1075,1267,o),
(1016,1371,o),
(920,1437,o),
(795,1468,o),
(731,1468,qs),
(656,1468,o),
(505,1416,o),
(377,1324,o),
(284,1195,o),
(268,1118,q),
(379,1118,l),
(393,1175,o),
(467,1267,o),
(568,1333,o),
(683,1369,o),
(738,1369,qs),
(780,1369,o),
(862,1352,o),
(929,1311,o),
(970,1241,o),
(970,1190,qs),
(970,1135,o),
(935,1041,o),
(873,963,o),
(789,900,o),
(742,878,qs),
(672,843,o),
(584,781,o),
(527,701,o),
(492,592,o),
(474,509,qs),
(443,365,l)
);
},
{
closed = 1;
nodes = (
(496,0,l),
(534,162,l),
(369,162,l),
(331,0,l)
);
}
);
width = 1070;
}
);
unicode = 63;
},
{
glyphname = at;
layers = (
{
layerId = "96221EC5-23C3-47D4-93F5-B4F733922506";
shapes = (
{
closed = 1;
nodes = (
(902,-356,o),
(1067,-334,o),
(1150,-306,q),
(1109,-96,l),
(1044,-117,o),
(917,-140,o),
(849,-140,qs),
(738,-140,o),
(530,-81,o),
(370,40,o),
(273,222,o),
(273,344,qs),
(273,467,o),
(346,698,o),
(475,901,o),
(652,1070,o),
(862,1192,o),
(1095,1260,o),
(1215,1260,qs),
(1332,1260,o),
(1540,1194,o),
(1695,1065,o),
(1786,874,o),
(1786,750,qs),
(1786,694,o),
(1762,558,o),
(1715,421,o),
(1645,291,o),
(1552,190,o),
(1437,129,o),
(1368,129,qs),
(1358,129,o),
(1338,138,o),
(1324,156,o),
(1315,183,o),
(1315,201,qs),
(1315,213,o),
(1327,265,o),
(1351,339,o),
(1390,434,o),
(1416,492,qs),
(1665,1031,l),
(1448,1043,l),
(1410,961,l),
(1392,996,o),
(1340,1046,o),
(1278,1079,o),
(1207,1094,o),
(1168,1094,qs),
(1084,1094,o),
(922,1028,o),
(777,915,o),
(656,765,o),
(568,599,o),
(518,425,o),
(518,344,qs),
(518,277,o),
(553,164,o),
(623,82,o),
(728,37,o),
(799,37,qs),
(842,37,o),
(925,52,o),
(1003,80,o),
(1077,122,o),
(1111,148,q),
(1111,88,o),
(1141,0,o),
(1201,-58,o),
(1292,-85,o),
(1354,-85,qs),
(1455,-85,o),
(1628,-10,o),
(1770,116,o),
(1879,283,o),
(1953,469,o),
(1992,661,o),
(1992,750,qs),
(1992,917,o),
(1880,1183,o),
(1681,1368,o),
(1406,1466,o),
(1243,1466,qs),
(1091,1466,o),
(798,1386,o),
(536,1240,o),
(316,1034,o),
(156,782,o),
(67,492,o),
(67,334,qs),
(67,173,o),
(181,-83,o),
(382,-261,o),
(656,-356,o),
(815,-356,qs)
);
},
{
closed = 1;
nodes = (
(781,251,o),
(719,297,o),
(719,355,qs),
(719,411,o),
(754,532,o),
(816,649,o),
(902,754,o),
(1004,833,o),
(1118,880,o),
(1178,880,qs),
(1204,880,o),
(1247,870,o),
(1278,846,o),
(1295,808,o),
(1295,779,qs),
(1295,726,o),
(1258,605,o),
(1193,488,o),
(1105,381,o),
(1003,299,o),
(892,251,o),
(837,251,qs)
);
}
);
width = 2041;
},
{
layerId = "B233C9FF-3FF4-4605-8A2F-BA759C1250EC";
shapes = (
{
closed = 1;
nodes = (
(920,-356,o),
(1080,-332,o),
(1155,-306,q),
(1116,-112,l),
(1051,-134,o),
(921,-156,o),
(854,-156,qs),
(735,-156,o),
(524,-93,o),
(366,32,o),
(273,220,o),
(273,345,qs),
(273,470,o),
(346,704,o),
(475,911,o),
(654,1083,o),
(866,1206,o),
(1103,1275,o),
(1227,1275,qs),
(1347,1275,o),
(1557,1208,o),
(1713,1076,o),
(1802,880,o),
(1802,750,qs),
(1802,689,o),
(1777,548,o),
(1729,406,o),
(1658,273,o),
(1566,171,o),
(1454,110,o),
(1389,110,qs),
(1365,110,o),
(1334,126,o),
(1315,150,o),
(1308,178,o),
(1308,190,qs),
(1308,205,o),
(1311,231,o),
(1319,261,o),
(1332,296,o),
(1342,318,qs),
(1657,1025,l),
(1455,1036,l),
(1411,937,l),
(1400,969,o),
(1359,1024,o),
(1299,1064,o),
(1220,1086,o),
(1170,1086,qs),
(1085,1086,o),
(923,1019,o),
(781,906,o),
(662,756,o),
(576,591,o),
(528,421,o),
(528,343,qs),
(528,277,o),
(563,168,o),
(631,88,o),
(734,44,o),
(803,44,qs),
(846,44,o),
(930,59,o),
(1010,90,o),
(1087,137,o),
(1124,168,q),
(1119,105,o),
(1150,12,o),
(1213,-48,o),
(1304,-78,o),
(1361,-78,qs),
(1462,-78,o),
(1634,-3,o),
(1775,125,o),
(1883,293,o),
(1956,479,o),
(1994,671,o),
(1994,759,qs),
(1994,907,o),
(1897,1165,o),
(1708,1356,o),
(1427,1466,o),
(1243,1466,qs),
(1090,1466,o),
(798,1383,o),
(540,1233,o),
(324,1024,o),
(168,771,o),
(81,482,o),
(81,328,qs),
(81,164,o),
(196,-90,o),
(398,-265,o),
(673,-356,o),
(833,-356,qs)
);
},
{
closed = 1;
nodes = (
(780,244,o),
(714,293,o),
(714,355,qs),
(714,412,o),
(751,535,o),
(816,653,o),
(906,759,o),
(1011,839,o),
(1127,887,o),
(1187,887,qs),
(1216,887,o),
(1261,873,o),
(1290,846,o),
(1305,806,o),
(1305,779,qs),
(1305,725,o),
(1268,603,o),
(1204,484,o),
(1116,375,o),
(1012,293,o),
(898,244,o),
(839,244,qs)
);
}
);
width = 2057;
},
{
layerId = "197E8B11-68AA-4AD5-97B2-73874077EF42";
shapes = (
{
closed = 1;
nodes = (
(939,-357,o),
(1097,-332,o),
(1173,-307,q),
(1137,-149,l),
(1072,-170,o),
(939,-191,o),
(871,-191,qs),
(749,-191,o),
(533,-126,o),
(371,5,o),
(278,200,o),
(278,330,qs),
(278,460,o),
(351,705,o),
(483,923,o),
(666,1105,o),
(884,1237,o),
(1130,1310,o),
(1260,1310,qs),
(1385,1310,o),
(1600,1240,o),
(1758,1103,o),
(1848,900,o),
(1848,768,qs),
(1848,704,o),
(1823,553,o),
(1773,402,o),
(1698,261,o),
(1599,152,o),
(1476,87,o),
(1403,87,qs),
(1378,87,o),
(1341,104,o),
(1316,135,o),
(1304,176,o),
(1304,200,qs),
(1304,220,o),
(1309,254,o),
(1319,291,o),
(1338,334,o),
(1351,364,qs),
(1645,1011,l),
(1479,1019,l),
(1419,880,l),
(1414,925,o),
(1377,995,o),
(1315,1044,o),
(1232,1069,o),
(1181,1069,qs),
(1099,1069,o),
(943,1003,o),
(805,891,o),
(689,744,o),
(605,582,o),
(558,416,o),
(558,341,qs),
(558,278,o),
(590,175,o),
(655,101,o),
(753,61,o),
(818,61,qs),
(867,61,o),
(960,82,o),
(1048,122,o),
(1129,179,o),
(1165,214,q),
(1153,152,o),
(1176,51,o),
(1235,-21,o),
(1327,-61,o),
(1385,-61,qs),
(1485,-61,o),
(1655,15,o),
(1793,144,o),
(1898,314,o),
(1969,501,o),
(2005,692,o),
(2005,778,qs),
(2005,932,o),
(1902,1186,o),
(1712,1367,o),
(1443,1466,o),
(1276,1466,qs),
(1122,1466,o),
(831,1382,o),
(574,1229,o),
(359,1016,o),
(205,760,o),
(119,469,o),
(119,314,qs),
(119,152,o),
(233,-98,o),
(431,-269,o),
(701,-357,o),
(856,-357,qs)
);
},
{
closed = 1;
nodes = (
(783,225,o),
(708,284,o),
(708,355,qs),
(708,412,o),
(746,541,o),
(813,667,o),
(904,781,o),
(1012,869,o),
(1131,920,o),
(1192,920,qs),
(1225,920,o),
(1278,900,o),
(1314,863,o),
(1334,811,o),
(1334,778,qs),
(1334,720,o),
(1296,594,o),
(1229,471,o),
(1137,360,o),
(1030,275,o),
(911,225,o),
(851,225,qs)
);
}
);
width = 2107;
},
{
layerId = "78E15571-ED7D-4566-909A-841824FB4F05";
shapes = (
{
closed = 1;
nodes = (
(947,-357,o),
(1100,-332,o),
(1179,-307,q),
(1146,-190,l),
(1080,-211,o),
(944,-230,o),
(874,-230,qs),
(748,-230,o),
(527,-162,o),
(362,-25,o),
(266,179,o),
(266,314,qs),
(266,448,o),
(342,707,o),
(477,937,o),
(665,1131,o),
(890,1270,o),
(1145,1349,o),
(1281,1349,qs),
(1411,1349,o),
(1632,1275,o),
(1793,1132,o),
(1883,923,o),
(1883,788,qs),
(1883,721,o),
(1858,561,o),
(1806,398,o),
(1728,248,o),
(1622,131,o),
(1485,62,o),
(1403,62,qs),
(1377,62,o),
(1332,80,o),
(1303,119,o),
(1285,175,o),
(1285,212,qs),
(1285,238,o),
(1290,280,o),
(1304,324,o),
(1328,378,o),
(1347,415,q),
(1617,995,l),
(1490,1001,l),
(1412,817,l),
(1414,876,o),
(1380,964,o),
(1318,1022,o),
(1229,1051,o),
(1178,1051,qs),
(1101,1051,o),
(951,985,o),
(816,876,o),
(703,731,o),
(622,573,o),
(575,410,o),
(575,338,qs),
(575,280,o),
(605,183,o),
(666,116,o),
(758,79,o),
(820,79,qs),
(873,79,o),
(980,108,o),
(1075,158,o),
(1161,226,o),
(1195,265,q),
(1176,206,o),
(1188,95,o),
(1244,8,o),
(1338,-43,o),
(1397,-43,qs),
(1496,-43,o),
(1663,35,o),
(1798,167,o),
(1900,338,o),
(1968,524,o),
(2002,715,o),
(2002,799,qs),
(2002,961,o),
(1892,1209,o),
(1702,1379,o),
(1445,1466,o),
(1297,1466,qs),
(1143,1466,o),
(852,1381,o),
(595,1225,o),
(383,1009,o),
(231,750,o),
(146,456,o),
(146,299,qs),
(146,139,o),
(259,-107,o),
(454,-272,o),
(716,-357,o),
(867,-357,qs)
);
},
{
closed = 1;
nodes = (
(771,206,o),
(686,274,o),
(686,354,qs),
(686,414,o),
(725,549,o),
(794,682,o),
(888,807,o),
(999,901,o),
(1121,958,o),
(1183,958,qs),
(1219,958,o),
(1281,930,o),
(1326,883,o),
(1352,816,o),
(1352,777,qs),
(1352,716,o),
(1311,584,o),
(1241,456,o),
(1146,342,o),
(1033,256,o),
(911,206,o),
(848,206,qs)
);
}
);
width = 2131;
}
);
unicode = 64;
},
{
glyphname = A;
layers = (
{
layerId = "96221EC5-23C3-47D4-93F5-B4F733922506";
shapes = (
{
closed = 1;
nodes = (
(1271,0,l),
(1017,1448,l),
(800,1448,l),
(-123,0,l),
(198,0,l),
(818,1020,l),
(962,0,l)
);
},
{
closed = 1;
nodes = (
(912,559,l),
(508,559,l),
(350,314,l),
(953,314,l)
);
}
);
width = 1388;
},
{
layerId = "B233C9FF-3FF4-4605-8A2F-BA759C1250EC";
shapes = (
{
closed = 1;
nodes = (
(1243,0,l),
(1000,1448,l),
(805,1448,l),
(-106,0,l),
(180,0,l),
(822,1065,l),
(967,0,l)
);
},
{
closed = 1;
nodes = (
(922,537,l),
(474,537,l),
(333,314,l),
(958,314,l)
);
}
);
width = 1375;
},
{
layerId = "197E8B11-68AA-4AD5-97B2-73874077EF42";
shapes = (
{
closed = 1;
nodes = (
(1177,0,l),
(959,1448,l),
(814,1448,l),
(-73,0,l),
(137,0,l),
(829,1167,l),
(975,0,l)
);
},
{
closed = 1;
nodes = (
(942,484,l),
(393,484,l),
(290,317,l),
(968,317,l)
);
}
);
width = 1342;
},
{
layerId = "78E15571-ED7D-4566-909A-841824FB4F05";
shapes = (
{
closed = 1;
nodes = (
(1114,0,l),
(925,1448,l),
(835,1448,l),
(-27,0,l),
(101,0,l),
(847,1281,l),
(995,0,l)
);
},
{
closed = 1;
nodes = (
(975,426,l),
(314,426,l),
(251,320,l),
(989,320,l)
);
}
);
width = 1326;
}
);
unicode = 65;
},
{
glyphname = B;
layers = (
{
layerId = "96221EC5-23C3-47D4-93F5-B4F733922506";
shapes = (
{
closed = 1;
nodes = (
(669,0,ls),
(768,0,o),
(967,72,o),
(1127,201,o),
(1227,379,o),
(1227,485,qs),
(1227,524,o),
(1210,609,o),
(1174,687,o),
(1117,749,o),
(1078,764,q),
(1128,790,o),
(1212,869,o),
(1272,965,o),
(1306,1075,o),
(1306,1132,qs),
(1306,1216,o),
(1241,1335,o),
(1133,1412,o),
(993,1448,o),
(919,1448,qs),
(392,1448,l),
(59,0,l)
);
},
{
closed = 1;
nodes = (
(553,881,l),
(623,1186,l),
(876,1186,ls),
(901,1186,o),
(959,1177,o),
(1008,1154,o),
(1041,1114,o),
(1041,1082,qs),
(1041,1038,o),
(1003,964,o),
(942,911,o),
(863,881,o),
(821,881,qs)
);
},
{
closed = 1;
nodes = (
(414,279,l),
(495,632,l),
(792,632,ls),
(819,632,o),
(877,618,o),
(925,589,o),
(956,543,o),
(956,510,qs),
(956,462,o),
(914,378,o),
(845,315,o),
(757,279,o),
(712,279,qs)
);
}
);
width = 1314;
},
{
layerId = "B233C9FF-3FF4-4605-8A2F-BA759C1250EC";
shapes = (
{
closed = 1;
nodes = (
(640,0,ls),
(742,0,o),
(945,67,o),
(1105,193,o),
(1205,372,o),
(1205,484,qs),
(1205,525,o),
(1187,610,o),
(1148,686,o),
(1090,747,o),
(1049,763,q),
(1102,789,o),
(1189,869,o),
(1252,968,o),
(1286,1081,o),
(1286,1140,qs),
(1286,1224,o),
(1220,1341,o),
(1111,1414,o),
(972,1448,o),
(898,1448,qs),
(402,1448,l),
(70,0,l)
);
},
{
closed = 1;
nodes = (
(528,864,l),
(608,1213,l),
(860,1213,ls),
(889,1213,o),
(954,1205,o),
(1008,1180,o),
(1044,1135,o),
(1044,1098,qs),
(1044,1046,o),
(1001,960,o),
(930,898,o),
(838,864,o),
(788,864,qs)
);
},
{
closed = 1;
nodes = (
(386,248,l),
(476,640,l),
(780,640,ls),
(825,640,o),
(893,619,o),
(940,582,o),
(963,533,o),
(963,505,qs),
(963,449,o),
(916,355,o),
(840,286,o),
(741,248,o),
(688,248,qs)
);
}
);
width = 1303;
},
{
layerId = "197E8B11-68AA-4AD5-97B2-73874077EF42";
shapes = (
{
closed = 1;
nodes = (
(599,0,ls),
(707,0,o),
(908,62,o),
(1063,184,o),
(1156,363,o),
(1156,481,qs),
(1156,527,o),
(1133,612,o),
(1089,683,o),
(1024,740,o),
(981,760,q),
(1039,789,o),
(1135,871,o),
(1204,972,o),
(1243,1091,o),
(1243,1157,qs),
(1243,1243,o),
(1166,1355,o),
(1046,1421,o),
(898,1448,o),
(828,1448,qs),
(425,1448,l),
(92,0,l)
);
},
{
closed = 1;
nodes = (
(470,826,l),
(574,1276,l),
(825,1276,ls),
(862,1276,o),
(942,1267,o),
(1009,1237,o),
(1052,1181,o),
(1052,1133,qs),
(1052,1063,o),
(997,950,o),
(904,869,o),
(782,826,o),
(715,826,qs)
);
},
{
closed = 1;
nodes = (
(322,179,l),
(432,658,l),
(753,658,ls),
(800,658,o),
(882,641,o),
(942,602,o),
(976,539,o),
(976,494,qs),
(976,419,o),
(922,302,o),
(830,222,o),
(705,179,o),
(633,179,qs)
);
}
);
width = 1283;
},
{
layerId = "78E15571-ED7D-4566-909A-841824FB4F05";
shapes = (
{
closed = 1;
nodes = (
(559,0,ls),
(673,0,o),
(872,56,o),
(1021,174,o),
(1107,354,o),
(1107,477,qs),
(1107,530,o),
(1079,612,o),
(1029,680,o),
(957,734,o),
(911,756,q),
(975,789,o),
(1080,873,o),
(1158,977,o),
(1200,1102,o),
(1200,1177,qs),
(1200,1264,o),
(1112,1372,o),
(979,1430,o),
(823,1448,o),
(755,1448,qs),
(455,1448,l),
(122,0,l)
);
},
{
closed = 1;
nodes = (
(412,784,l),
(541,1347,l),
(792,1347,ls),
(837,1347,o),
(935,1336,o),
(1014,1302,o),
(1066,1232,o),
(1066,1172,qs),
(1066,1083,o),
(997,938,o),
(880,838,o),
(725,784,o),
(640,784,qs)
);
},
{
closed = 1;
nodes = (
(256,103,l),
(389,678,l),
(729,678,ls),
(778,678,o),
(873,664,o),
(950,623,o),
(996,545,o),
(996,481,qs),
(996,386,o),
(934,245,o),
(824,150,o),
(671,103,o),
(578,103,qs)
);
}
);
width = 1273;
}
);
unicode = 66;
},
{
glyphname = C;
layers = (
{
layerId = "96221EC5-23C3-47D4-93F5-B4F733922506";
shapes = (
{
closed = 1;
nodes = (
(786,-20,o),
(999,33,o),
(1184,138,o),
(1341,293,o),
(1407,394,q),
(1163,526,l),
(1086,397,o),
(864,257,o),
(711,257,qs),
(636,257,o),
(515,291,o),
(430,363,o),
(384,476,o),
(384,555,qs),
(384,634,o),
(419,793,o),
(487,940,o),
(585,1068,o),
(710,1163,o),
(859,1218,o),
(945,1218,qs),
(1009,1218,o),
(1123,1187,o),
(1209,1121,o),
(1258,1020,o),
(1258,949,q),
(1549,1034,l),
(1530,1143,o),
(1430,1306,o),
(1283,1415,o),
(1097,1470,o),
(990,1470,qs),
(859,1470,o),
(624,1400,o),
(426,1273,o),
(267,1097,o),
(157,887,o),
(97,649,o),
(97,523,qs),
(97,393,o),
(179,191,o),
(328,52,o),
(537,-20,o),
(665,-20,qs)
);
}
);
width = 1466;
},
{
layerId = "B233C9FF-3FF4-4605-8A2F-BA759C1250EC";
shapes = (
{
closed = 1;
nodes = (
(789,-20,o),
(995,36,o),
(1175,142,o),
(1329,292,o),
(1391,386,q),
(1172,506,l),
(1087,367,o),
(859,226,o),
(705,226,qs),
(625,226,o),
(500,265,o),
(414,343,o),
(368,463,o),
(368,545,qs),
(368,628,o),
(404,797,o),
(474,952,o),
(576,1086,o),
(708,1186,o),
(867,1243,o),
(958,1243,qs),
(1026,1243,o),
(1140,1212,o),
(1224,1145,o),
(1274,1041,o),
(1279,969,q),
(1537,1044,l),
(1519,1152,o),
(1422,1312,o),
(1278,1418,o),
(1095,1470,o),
(990,1470,qs),
(861,1470,o),
(630,1400,o),
(435,1273,o),
(279,1098,o),
(170,887,o),
(112,650,o),
(112,524,qs),
(112,390,o),
(192,186,o),
(339,49,o),
(547,-20,o),
(675,-20,qs)
);
}
);
width = 1466;
},
{
layerId = "197E8B11-68AA-4AD5-97B2-73874077EF42";
shapes = (
{
closed = 1;
nodes = (
(766,-20,o),
(961,35,o),
(1133,136,o),
(1280,280,o),
(1339,368,q),
(1180,456,l),
(1092,312,o),
(845,163,o),
(680,163,qs),
(591,163,o),
(456,208,o),
(364,297,o),
(317,431,o),
(317,521,qs),
(317,611,o),
(355,797,o),
(428,969,o),
(536,1121,o),
(676,1233,o),
(848,1298,o),
(949,1298,qs),
(1020,1298,o),
(1145,1266,o),
(1241,1197,o),
(1302,1088,o),
(1308,1011,q),
(1492,1070,l),
(1475,1172,o),
(1382,1322,o),
(1246,1422,o),
(1072,1470,o),
(973,1470,qs),
(844,1470,o),
(618,1395,o),
(430,1261,o),
(282,1078,o),
(180,864,o),
(127,627,o),
(127,507,qs),
(127,380,o),
(199,183,o),
(336,49,o),
(533,-20,o),
(657,-20,qs)
);
}
);
width = 1461;
},
{
layerId = "78E15571-ED7D-4566-909A-841824FB4F05";
shapes = (
{
closed = 1;
nodes = (
(742,-20,o),
(927,34,o),
(1090,130,o),
(1228,265,o),
(1285,347,q),
(1191,401,l),
(1101,251,o),
(833,93,o),
(656,93,qs),
(557,93,o),
(410,144,o),
(312,246,o),
(265,397,o),
(265,494,qs),
(265,592,o),
(303,796,o),
(380,989,o),
(493,1159,o),
(643,1286,o),
(830,1360,o),
(940,1360,qs),
(1014,1360,o),
(1154,1328,o),
(1264,1254,o),
(1335,1139,o),
(1343,1056,q),
(1446,1100,l),
(1429,1195,o),
(1342,1334,o),
(1213,1425,o),
(1050,1470,o),
(958,1470,qs),
(828,1470,o),
(608,1389,o),
(427,1246,o),
(288,1056,o),
(194,837,o),
(145,602,o),
(145,488,qs),
(145,368,o),
(210,180,o),
(335,49,o),
(520,-20,o),
(641,-20,qs)
);
}
);
width = 1458;
}
);
unicode = 67;
},
{
glyphname = D;
layers = (
{
layerId = "96221EC5-23C3-47D4-93F5-B4F733922506";
shapes = (
{
closed = 1;
nodes = (
(498,0,ls),
(710,0,o),
(1058,133,o),
(1307,375,o),
(1443,716,o),
(1443,925,qs),
(1443,1069,o),
(1346,1268,o),
(1179,1392,o),
(952,1447,o),
(821,1447,qs),
(392,1447,l),
(59,0,l)
);
},
{
closed = 1;
nodes = (
(411,266,l),
(622,1179,l),
(769,1179,ls),
(839,1179,o),
(978,1165,o),
(1089,1114,o),
(1159,1012,o),
(1159,924,qs),
(1159,777,o),
(1075,534,o),
(913,361,o),
(675,266,o),
(521,266,qs)
);
}
);
width = 1442;
},
{
layerId = "B233C9FF-3FF4-4605-8A2F-BA759C1250EC";
shapes = (
{
closed = 1;
nodes = (
(493,0,ls),
(700,0,o),
(1044,130,o),
(1293,371,o),
(1431,715,o),
(1431,928,qs),
(1431,1048,o),
(1357,1240,o),
(1205,1375,o),
(974,1447,o),
(816,1447,qs),
(402,1447,l),
(70,0,l)
);
},
{
closed = 1;
nodes = (
(384,239,l),
(608,1208,l),
(770,1208,ls),
(848,1208,o),
(994,1190,o),
(1108,1130,o),
(1177,1018,o),
(1177,925,qs),
(1177,773,o),
(1086,521,o),
(915,340,o),
(667,239,o),
(510,239,qs)
);
}
);
width = 1443;
},
{
layerId = "197E8B11-68AA-4AD5-97B2-73874077EF42";
shapes = (
{
closed = 1;
nodes = (
(482,0,ls),
(690,0,o),
(1031,138,o),
(1273,385,o),
(1406,728,o),
(1406,934,qs),
(1406,1070,o),
(1317,1265,o),
(1153,1389,o),
(922,1447,o),
(780,1447,qs),
(428,1447,l),
(95,0,l)
);
},
{
closed = 1;
nodes = (
(326,174,l),
(580,1274,l),
(774,1274,ls),
(864,1274,o),
(1026,1243,o),
(1147,1164,o),
(1218,1029,o),
(1218,926,qs),
(1218,766,o),
(1114,491,o),
(922,289,o),
(652,174,o),
(486,174,qs)
);
}
);
width = 1448;
},
{
layerId = "78E15571-ED7D-4566-909A-841824FB4F05";
shapes = (
{
closed = 1;
nodes = (
(467,0,ls),
(677,0,o),
(1013,146,o),
(1249,400,o),
(1375,743,o),
(1375,940,qs),
(1375,1096,o),
(1269,1292,o),
(1093,1406,o),
(862,1447,o),
(738,1447,qs),
(454,1447,l),
(121,0,l)
);
},
{
closed = 1;
nodes = (
(260,104,l),
(547,1348,l),
(776,1348,ls),
(881,1348,o),
(1058,1302,o),
(1189,1202,o),
(1262,1041,o),
(1262,928,qs),
(1262,759,o),
(1141,458,o),
(927,234,o),
(633,104,o),
(458,104,qs)
);
}
);
width = 1450;
}
);
unicode = 68;
},
{
glyphname = E;
layers = (
{
layerId = "96221EC5-23C3-47D4-93F5-B4F733922506";
shapes = (
{
closed = 1;
nodes = (
(1029,0,l),
(1094,276,l),
(414,276,l),
(484,588,l),
(1133,588,l),
(1194,858,l),
(545,858,l),
(622,1179,l),
(1302,1179,l),
(1362,1448,l),
(392,1448,l),
(59,0,l)
);
}
);
width = 1275;
},
{
layerId = "B233C9FF-3FF4-4605-8A2F-BA759C1250EC";
shapes = (
{
closed = 1;
nodes = (
(1032,0,l),
(1089,246,l),
(386,246,l),
(468,604,l),
(1122,604,l),
(1177,843,l),
(522,843,l),
(608,1209,l),
(1311,1209,l),
(1365,1448,l),
(402,1448,l),
(70,0,l)
);
}
);
width = 1275;
},
{
layerId = "197E8B11-68AA-4AD5-97B2-73874077EF42";
shapes = (
{
closed = 1;
nodes = (
(1038,0,l),
(1079,177,l),
(325,177,l),
(431,641,l),
(1100,641,l),
(1138,807,l),
(471,807,l),
(579,1279,l),
(1333,1279,l),
(1371,1448,l),
(427,1448,l),
(94,0,l)
);
}
);
width = 1277;
},
{
layerId = "78E15571-ED7D-4566-909A-841824FB4F05";
shapes = (
{
closed = 1;
nodes = (
(1046,0,l),
(1067,101,l),
(258,101,l),
(391,682,l),
(1075,682,l),
(1096,767,l),
(414,767,l),
(548,1356,l),
(1357,1356,l),
(1379,1448,l),
(454,1448,l),
(121,0,l)
);
}
);
width = 1279;
}
);
unicode = 69;
},
{
glyphname = F;
layers = (
{
layerId = "96221EC5-23C3-47D4-93F5-B4F733922506";
shapes = (
{
closed = 1;
nodes = (
(349,0,l),
(484,588,l),
(1159,588,l),
(1220,858,l),
(545,858,l),
(622,1179,l),
(1386,1179,l),
(1448,1448,l),
(392,1448,l),
(59,0,l)
);
}
);
width = 1275;
},
{
layerId = "B233C9FF-3FF4-4605-8A2F-BA759C1250EC";
shapes = (
{
closed = 1;
nodes = (
(330,0,l),
(468,604,l),
(1143,604,l),
(1197,843,l),
(522,843,l),
(608,1209,l),
(1373,1209,l),
(1428,1448,l),
(402,1448,l),
(70,0,l)
);
}
);
width = 1265;
},
{
layerId = "197E8B11-68AA-4AD5-97B2-73874077EF42";
shapes = (
{
closed = 1;
nodes = (
(282,0,l),
(428,641,l),
(1104,641,l),
(1143,807,l),
(468,807,l),
(576,1279,l),
(1343,1279,l),
(1382,1448,l),
(424,1448,l),
(91,0,l)
);
}
);
width = 1237;
},
{
layerId = "78E15571-ED7D-4566-909A-841824FB4F05";
shapes = (
{
closed = 1;
nodes = (
(237,0,l),
(392,682,l),
(1070,682,l),
(1092,767,l),
(416,767,l),
(549,1356,l),
(1316,1356,l),
(1339,1448,l),
(456,1448,l),
(123,0,l)
);
}
);
width = 1224;
}
);
unicode = 70;
},
{
glyphname = G;
layers = (
{
layerId = "96221EC5-23C3-47D4-93F5-B4F733922506";
shapes = (
{
closed = 1;
nodes = (
(733,-20,o),
(860,1,o),
(977,47,o),
(1082,120,o),
(1126,172,q),
(1113,0,l),
(1339,0,l),
(1524,798,l),
(812,798,l),
(760,573,l),
(1190,573,l),
(1162,506,o),
(1064,384,o),
(938,291,o),
(792,237,o),
(718,237,qs),
(640,237,o),
(516,274,o),
(430,351,o),
(384,470,o),
(384,551,qs),
(384,630,o),
(421,790,o),
(490,938,o),
(589,1068,o),
(716,1164,o),
(867,1220,o),
(952,1220,qs),
(1021,1220,o),
(1136,1191,o),
(1221,1127,o),
(1272,1024,o),
(1276,950,q),
(1548,1034,l),
(1527,1141,o),
(1427,1304,o),
(1282,1414,o),
(1097,1470,o),
(991,1470,qs),
(858,1470,o),
(623,1400,o),
(425,1274,o),
(267,1098,o),
(158,887,o),
(99,648,o),
(99,522,qs),
(99,392,o),
(181,190,o),
(330,52,o),
(539,-20,o),
(666,-20,qs)
);
}
);
width = 1579;
},
{
layerId = "B233C9FF-3FF4-4605-8A2F-BA759C1250EC";
shapes = (
{
closed = 1;
nodes = (
(743,-20,o),
(874,6,o),
(994,59,o),
(1100,139,o),
(1143,193,q),
(1118,0,l),
(1323,0,l),
(1503,782,l),
(823,782,l),
(774,578,l),
(1206,578,l),
(1176,500,o),
(1075,366,o),
(944,268,o),
(788,212,o),
(702,212,qs),
(622,212,o),
(497,254,o),
(411,337,o),
(367,461,o),
(367,542,qs),
(367,625,o),
(404,794,o),
(475,950,o),
(578,1086,o),
(711,1186,o),
(871,1243,o),
(963,1243,qs),
(1033,1243,o),
(1147,1211,o),
(1231,1143,o),
(1283,1040,o),
(1290,969,q),
(1535,1044,l),
(1512,1150,o),
(1416,1310,o),
(1276,1417,o),
(1097,1470,o),
(990,1470,qs),
(861,1470,o),
(631,1401,o),
(436,1275,o),
(280,1100,o),
(170,889,o),
(112,651,o),
(112,524,qs),
(112,390,o),
(192,186,o),
(339,49,o),
(547,-20,o),
(675,-20,qs)
);
}
);
width = 1571;
},
{
layerId = "197E8B11-68AA-4AD5-97B2-73874077EF42";
shapes = (
{
closed = 1;
nodes = (
(744,-20,o),
(892,14,o),
(1024,80,o),
(1138,179,o),
(1181,243,q),
(1130,0,l),
(1285,0,l),
(1457,746,l),
(845,746,l),
(810,601,l),
(1243,601,l),
(1215,507,o),
(1109,344,o),
(964,223,o),
(785,154,o),
(684,154,qs),
(595,154,o),
(461,203,o),
(371,297,o),
(325,434,o),
(325,521,qs),
(325,612,o),
(364,798,o),
(440,970,o),
(551,1121,o),
(693,1232,o),
(867,1296,o),
(968,1296,qs),
(1040,1296,o),
(1159,1261,o),
(1250,1191,o),
(1309,1083,o),
(1322,1011,q),
(1505,1069,l),
(1483,1168,o),
(1390,1318,o),
(1256,1419,o),
(1086,1470,o),
(986,1470,qs),
(858,1470,o),
(633,1394,o),
(444,1260,o),
(295,1077,o),
(192,862,o),
(137,626,o),
(137,505,qs),
(137,378,o),
(210,182,o),
(346,48,o),
(543,-20,o),
(668,-20,qs)
);
}
);
width = 1550;
},
{
layerId = "78E15571-ED7D-4566-909A-841824FB4F05";
shapes = (
{
closed = 1;
nodes = (
(752,-20,o),
(916,22,o),
(1063,104,o),
(1185,223,o),
(1228,299,q),
(1148,0,l),
(1249,0,l),
(1411,707,l),
(875,707,l),
(855,627,l),
(1288,627,l),
(1263,515,o),
(1153,319,o),
(993,174,o),
(788,91,o),
(669,91,qs),
(571,91,o),
(427,148,o),
(331,252,o),
(285,404,o),
(285,499,qs),
(285,599,o),
(327,803,o),
(407,993,o),
(524,1159,o),
(680,1283,o),
(869,1355,o),
(979,1355,qs),
(1054,1355,o),
(1179,1318,o),
(1276,1244,o),
(1345,1133,o),
(1364,1058,q),
(1477,1095,l),
(1455,1188,o),
(1366,1329,o),
(1240,1424,o),
(1079,1470,o),
(986,1470,qs),
(860,1470,o),
(639,1388,o),
(459,1244,o),
(318,1052,o),
(221,832,o),
(172,598,o),
(172,486,qs),
(172,366,o),
(234,178,o),
(360,48,o),
(545,-20,o),
(667,-20,qs)
);
}
);
width = 1540;
}
);
unicode = 71;
},
{
glyphname = H;
layers = (
{
layerId = "96221EC5-23C3-47D4-93F5-B4F733922506";
shapes = (
{
closed = 1;
nodes = (
(1242,0,l),
(1576,1448,l),
(1286,1448,l),
(1148,858,l),
(545,858,l),
(682,1448,l),
(392,1448,l),
(59,0,l),
(349,0,l),
(484,588,l),
(1086,588,l),
(952,0,l)
);
}
);
width = 1536;
},
{
layerId = "B233C9FF-3FF4-4605-8A2F-BA759C1250EC";
shapes = (
{
closed = 1;
nodes = (
(1223,0,l),
(1556,1448,l),
(1296,1448,l),
(1155,843,l),
(522,843,l),
(663,1448,l),
(402,1448,l),
(70,0,l),
(330,0,l),
(468,604,l),
(1101,604,l),
(963,0,l)
);
}
);
width = 1527;
},
{
layerId = "197E8B11-68AA-4AD5-97B2-73874077EF42";
shapes = (
{
closed = 1;
nodes = (
(1176,0,l),
(1510,1448,l),
(1318,1448,l),
(1171,807,l),
(468,807,l),
(615,1448,l),
(424,1448,l),
(91,0,l),
(282,0,l),
(428,641,l),
(1131,641,l),
(986,0,l)
);
}
);
width = 1502;
},
{
layerId = "78E15571-ED7D-4566-909A-841824FB4F05";
shapes = (
{
closed = 1;
nodes = (
(1133,0,l),
(1467,1448,l),
(1351,1448,l),
(1197,767,l),
(416,767,l),
(570,1448,l),
(456,1448,l),
(123,0,l),
(237,0,l),
(392,682,l),
(1173,682,l),
(1019,0,l)
);
}
);
width = 1489;
}
);
unicode = 72;
},
{
glyphname = I;
layers = (
{
layerId = "96221EC5-23C3-47D4-93F5-B4F733922506";
shapes = (
{
closed = 1;
nodes = (
(349,0,l),
(682,1448,l),
(392,1448,l),
(59,0,l)
);
}
);
width = 642;
},
{
layerId = "B233C9FF-3FF4-4605-8A2F-BA759C1250EC";
shapes = (
{
closed = 1;
nodes = (
(330,0,l),
(663,1448,l),
(402,1448,l),
(70,0,l)
);
}
);
width = 633;
},
{
layerId = "197E8B11-68AA-4AD5-97B2-73874077EF42";
shapes = (
{
closed = 1;
nodes = (
(282,0,l),
(615,1448,l),
(424,1448,l),
(91,0,l)
);
}
);
width = 607;
},
{
layerId = "78E15571-ED7D-4566-909A-841824FB4F05";
shapes = (
{
closed = 1;
nodes = (
(237,0,l),
(570,1448,l),
(456,1448,l),
(123,0,l)
);
}
);
width = 594;
}
);
unicode = 73;
},
{
glyphname = J;
layers = (
{
layerId = "96221EC5-23C3-47D4-93F5-B4F733922506";
shapes = (
{
closed = 1;
nodes = (
(534,-20,o),
(740,53,o),
(893,191,o),
(996,389,o),
(1025,513,qs),
(1240,1447,l),
(952,1447,l),
(740,537,l),
(726,474,o),
(685,369,o),
(619,293,o),
(520,251,o),
(449,251,qs),
(407,251,o),
(347,273,o),
(308,315,o),
(290,377,o),
(290,417,qs),
(290,435,o),
(293,467,o),
(296,481,q),
(9,481,l),
(5,453,o),
(2,403,o),
(2,378,qs),
(2,289,o),
(61,142,o),
(166,37,o),
(314,-20,o),
(402,-20,qs)
);
}
);
width = 1170;
},
{
layerId = "B233C9FF-3FF4-4605-8A2F-BA759C1250EC";
shapes = (
{
closed = 1;
nodes = (
(539,-20,o),
(737,57,o),
(884,197,o),
(981,393,o),
(1009,512,qs),
(1225,1447,l),
(966,1447,l),
(753,528,ls),
(737,461,o),
(693,348,o),
(622,266,o),
(517,220,o),
(440,220,qs),
(395,220,o),
(331,245,o),
(290,292,o),
(270,358,o),
(270,399,qs),
(270,416,o),
(273,450,o),
(276,466,q),
(20,466,l),
(17,437,o),
(13,392,o),
(13,374,qs),
(13,281,o),
(70,134,o),
(175,33,o),
(321,-20,o),
(411,-20,qs)
);
}
);
width = 1166;
},
{
layerId = "197E8B11-68AA-4AD5-97B2-73874077EF42";
shapes = (
{
closed = 1;
nodes = (
(552,-20,o),
(742,76,o),
(878,251,o),
(970,496,o),
(1004,645,qs),
(1189,1447,l),
(998,1447,l),
(781,510,ls),
(764,434,o),
(710,303,o),
(625,206,o),
(503,151,o),
(416,151,qs),
(367,151,o),
(295,181,o),
(248,236,o),
(226,313,o),
(226,359,qs),
(226,378,o),
(229,414,o),
(232,432,q),
(45,428,l),
(41,404,o),
(38,362,o),
(38,342,qs),
(38,251,o),
(93,115,o),
(194,24,o),
(334,-20,o),
(418,-20,qs)
);
}
);
width = 1157;
},
{
layerId = "78E15571-ED7D-4566-909A-841824FB4F05";
shapes = (
{
closed = 1;
nodes = (
(569,-20,o),
(751,97,o),
(875,311,o),
(960,610,o),
(1001,792,qs),
(1152,1447,l),
(1036,1447,l),
(816,491,ls),
(796,404,o),
(733,254,o),
(631,140,o),
(490,73,o),
(392,73,qs),
(337,73,o),
(256,111,o),
(205,175,o),
(180,264,o),
(180,316,qs),
(180,335,o),
(183,374,o),
(186,395,q),
(75,386,l),
(71,368,o),
(67,328,o),
(67,306,qs),
(67,218,o),
(122,93,o),
(218,15,o),
(351,-20,o),
(430,-20,qs)
);
}
);
width = 1153;
}
);
unicode = 74;
},
{
glyphname = K;
layers = (
{
layerId = "96221EC5-23C3-47D4-93F5-B4F733922506";
shapes = (
{
closed = 1;
nodes = (
(1414,0,l),
(1022,847,l),
(1751,1447,l),
(1355,1447,l),
(513,722,l),
(682,1447,l),
(392,1447,l),
(59,0,l),
(349,0,l),
(436,369,l),
(777,650,l),
(1057,0,l)
);
}
);
width = 1537;
},
{
layerId = "B233C9FF-3FF4-4605-8A2F-BA759C1250EC";
shapes = (
{
closed = 1;
nodes = (
(1389,0,l),
(1000,854,l),
(1717,1447,l),
(1365,1447,l),
(486,692,l),
(663,1447,l),
(402,1447,l),
(70,0,l),
(330,0,l),
(418,376,l),
(784,680,l),
(1072,0,l)
);
}
);
width = 1527;
},
{
layerId = "197E8B11-68AA-4AD5-97B2-73874077EF42";
shapes = (
{
closed = 1;
nodes = (
(1310,0,l),
(932,870,l),
(1623,1447,l),
(1367,1447,l),
(408,627,l),
(598,1447,l),
(407,1447,l),
(74,0,l),
(265,0,l),
(357,392,l),
(774,740,l),
(1083,0,l)
);
}
);
width = 1496;
},
{
layerId = "78E15571-ED7D-4566-909A-841824FB4F05";
shapes = (
{
closed = 1;
nodes = (
(1232,0,l),
(868,888,l),
(1529,1447,l),
(1379,1447,l),
(332,557,l),
(538,1447,l),
(424,1447,l),
(89,0,l),
(204,0,l),
(299,409,l),
(774,806,l),
(1106,0,l)
);
}
);
width = 1481;
}
);
unicode = 75;
},
{
glyphname = L;
layers = (
{
layerId = "96221EC5-23C3-47D4-93F5-B4F733922506";
shapes = (
{
closed = 1;
nodes = (
(968,0,l),
(1032,276,l),
(414,276,l),
(682,1448,l),
(392,1448,l),
(59,0,l)
);
}
);
width = 1095;
},
{
layerId = "B233C9FF-3FF4-4605-8A2F-BA759C1250EC";
shapes = (
{
closed = 1;
nodes = (
(948,0,l),
(1005,246,l),
(386,246,l),
(663,1448,l),
(402,1448,l),
(70,0,l)
);
}
);
width = 1089;
},
{
layerId = "197E8B11-68AA-4AD5-97B2-73874077EF42";
shapes = (
{
closed = 1;
nodes = (
(902,0,l),
(942,177,l),
(323,177,l),
(616,1448,l),
(425,1448,l),
(92,0,l)
);
}
);
width = 1072;
},
{
layerId = "78E15571-ED7D-4566-909A-841824FB4F05";
shapes = (
{
closed = 1;
nodes = (
(856,0,l),
(878,101,l),
(259,101,l),
(570,1448,l),
(455,1448,l),
(122,0,l)
);
}
);
width = 1063;
}
);
unicode = 76;
},
{
glyphname = M;
layers = (
{
layerId = "96221EC5-23C3-47D4-93F5-B4F733922506";
shapes = (
{
closed = 1;
nodes = (
(1556,0,l),
(1890,1447,l),
(1511,1447,l),
(910,459,l),
(767,1447,l),
(392,1447,l),
(59,0,l),
(335,0,l),
(570,1012,l),
(699,126,l),
(975,126,l),
(1514,1012,l),
(1279,0,l)
);
}
);
width = 1850;
},
{
layerId = "B233C9FF-3FF4-4605-8A2F-BA759C1250EC";
shapes = (
{
closed = 1;
nodes = (
(1537,0,l),
(1871,1447,l),
(1519,1447,l),
(895,418,l),
(751,1447,l),
(402,1447,l),
(70,0,l),
(318,0,l),
(570,1082,l),
(707,126,l),
(958,126,l),
(1539,1082,l),
(1287,0,l)
);
}
);
width = 1841;
},
{
layerId = "197E8B11-68AA-4AD5-97B2-73874077EF42";
shapes = (
{
closed = 1;
nodes = (
(1474,0,l),
(1809,1447,l),
(1523,1447,l),
(843,322,l),
(690,1447,l),
(407,1447,l),
(74,0,l),
(261,0,l),
(546,1228,l),
(704,126,l),
(903,126,l),
(1573,1228,l),
(1288,0,l)
);
}
);
width = 1813;
},
{
layerId = "78E15571-ED7D-4566-909A-841824FB4F05";
shapes = (
{
closed = 1;
nodes = (
(1416,0,l),
(1749,1447,l),
(1538,1447,l),
(797,217,l),
(633,1447,l),
(424,1447,l),
(89,0,l),
(207,0,l),
(531,1390,l),
(712,126,l),
(851,126,l),
(1621,1390,l),
(1299,0,l)
);
}
);
width = 1800;
}
);
unicode = 77;
},
{
glyphname = N;
layers = (
{
layerId = "96221EC5-23C3-47D4-93F5-B4F733922506";
shapes = (
{
closed = 1;
nodes = (
(1204,0,l),
(1538,1447,l),
(1261,1447,l),
(1041,511,l),
(657,1447,l),
(392,1447,l),
(59,0,l),
(335,0,l),
(555,938,l),
(938,0,l)
);
}
);
width = 1498;
},
{
layerId = "B233C9FF-3FF4-4605-8A2F-BA759C1250EC";
shapes = (
{
closed = 1;
nodes = (
(1185,0,l),
(1519,1447,l),
(1269,1447,l),
(1032,434,l),
(658,1447,l),
(402,1447,l),
(70,0,l),
(318,0,l),
(556,1015,l),
(927,0,l)
);
}
);
width = 1489;
},
{
layerId = "197E8B11-68AA-4AD5-97B2-73874077EF42";
shapes = (
{
closed = 1;
nodes = (
(1123,0,l),
(1456,1447,l),
(1270,1447,l),
(996,268,l),
(640,1447,l),
(408,1447,l),
(75,0,l),
(262,0,l),
(537,1181,l),
(888,0,l)
);
}
);
width = 1461;
},
{
layerId = "78E15571-ED7D-4566-909A-841824FB4F05";
shapes = (
{
closed = 1;
nodes = (
(1062,0,l),
(1395,1447,l),
(1279,1447,l),
(963,82,l),
(627,1447,l),
(423,1447,l),
(89,0,l),
(207,0,l),
(522,1367,l),
(854,0,l)
);
}
);
width = 1446;
}
);
unicode = 78;
},
{
glyphname = O;
layers = (
{
layerId = "96221EC5-23C3-47D4-93F5-B4F733922506";
shapes = (
{
closed = 1;
nodes = (
(795,-20,o),
(1031,47,o),
(1232,168,o),
(1393,339,o),
(1505,547,o),
(1566,788,o),
(1566,918,qs),
(1566,1050,o),
(1487,1254,o),
(1340,1395,o),
(1131,1468,o),
(1000,1468,qs),
(868,1468,o),
(631,1401,o),
(431,1278,o),
(269,1106,o),
(157,895,o),
(96,651,o),
(96,519,qs),
(96,390,o),
(179,189,o),
(329,52,o),
(537,-20,o),
(663,-20,qs)
);
},
{
closed = 1;
nodes = (
(639,236,o),
(523,271,o),
(444,343,o),
(402,454,o),
(402,530,qs),
(402,608,o),
(435,769,o),
(498,920,o),
(592,1054,o),
(714,1153,o),
(863,1211,o),
(950,1211,qs),
(1100,1211,o),
(1261,1070,o),
(1261,915,qs),
(1261,837,o),
(1228,676,o),
(1164,525,o),
(1070,392,o),
(948,293,o),
(800,236,o),
(713,236,qs)
);
}
);
width = 1566;
},
{
layerId = "B233C9FF-3FF4-4605-8A2F-BA759C1250EC";
shapes = (
{
closed = 1;
nodes = (
(803,-20,o),
(1033,50,o),
(1228,176,o),
(1384,350,o),
(1493,560,o),
(1551,798,o),
(1551,924,qs),
(1551,1059,o),
(1471,1262,o),
(1325,1399,o),
(1118,1468,o),
(990,1468,qs),
(861,1468,o),
(630,1398,o),
(435,1273,o),
(279,1098,o),
(170,888,o),
(111,649,o),
(111,522,qs),
(111,388,o),
(192,185,o),
(339,49,o),
(546,-20,o),
(673,-20,qs)
);
},
{
closed = 1;
nodes = (
(621,210,o),
(503,251,o),
(422,331,o),
(381,449,o),
(381,526,qs),
(381,609,o),
(416,779,o),
(483,937,o),
(583,1075,o),
(712,1178,o),
(870,1237,o),
(963,1237,qs),
(1119,1237,o),
(1282,1076,o),
(1282,920,qs),
(1282,837,o),
(1247,667,o),
(1179,509,o),
(1079,372,o),
(949,269,o),
(791,210,o),
(698,210,qs)
);
}
);
width = 1565;
},
{
layerId = "197E8B11-68AA-4AD5-97B2-73874077EF42";
shapes = (
{
closed = 1;
nodes = (
(780,-20,o),
(1006,55,o),
(1194,187,o),
(1342,369,o),
(1445,582,o),
(1499,818,o),
(1499,938,qs),
(1499,1065,o),
(1427,1262,o),
(1291,1398,o),
(1095,1468,o),
(970,1468,qs),
(841,1468,o),
(616,1393,o),
(427,1260,o),
(279,1078,o),
(176,865,o),
(122,629,o),
(122,508,qs),
(122,381,o),
(193,185,o),
(330,50,o),
(526,-20,o),
(651,-20,qs)
);
},
{
closed = 1;
nodes = (
(586,153,o),
(455,201,o),
(365,293,o),
(319,426,o),
(319,510,qs),
(319,601,o),
(355,788,o),
(426,962,o),
(531,1115,o),
(671,1228,o),
(843,1293,o),
(946,1293,qs),
(1123,1293,o),
(1303,1104,o),
(1303,929,qs),
(1303,838,o),
(1266,653,o),
(1193,481,o),
(1086,330,o),
(945,218,o),
(773,153,o),
(671,153,qs)
);
}
);
width = 1522;
},
{
layerId = "78E15571-ED7D-4566-909A-841824FB4F05";
shapes = (
{
closed = 1;
nodes = (
(768,-20,o),
(988,61,o),
(1170,201,o),
(1309,389,o),
(1405,605,o),
(1454,839,o),
(1454,955,qs),
(1454,1073,o),
(1391,1264,o),
(1267,1397,o),
(1083,1468,o),
(961,1468,qs),
(834,1468,o),
(613,1387,o),
(432,1247,o),
(291,1057,o),
(196,840,o),
(146,607,o),
(146,492,qs),
(146,374,o),
(210,185,o),
(332,52,o),
(517,-20,o),
(639,-20,qs)
);
},
{
closed = 1;
nodes = (
(561,90,o),
(415,146,o),
(316,250,o),
(264,399,o),
(264,494,qs),
(264,594,o),
(301,799,o),
(375,991,o),
(488,1159,o),
(638,1284,o),
(827,1356,o),
(940,1356,qs),
(1143,1356,o),
(1341,1134,o),
(1341,938,qs),
(1341,841,o),
(1301,638,o),
(1222,450,o),
(1106,284,o),
(954,161,o),
(766,90,o),
(655,90,qs)
);
}
);
width = 1501;
}
);
unicode = 79;
},
{
glyphname = P;
layers = (
{
layerId = "96221EC5-23C3-47D4-93F5-B4F733922506";
shapes = (
{
closed = 1;
nodes = (
(346,0,l),
(481,584,l),
(615,584,ls),
(697,584,o),
(860,605,o),
(1010,654,o),
(1141,733,o),
(1237,847,o),
(1292,999,o),
(1292,1097,qs),
(1292,1192,o),
(1218,1325,o),
(1094,1409,o),
(936,1447,o),
(853,1447,qs),
(392,1447,l),
(59,0,l)
);
},
{
closed = 1;
nodes = (
(543,857,l),
(616,1174,l),
(802,1174,ls),
(828,1174,o),
(899,1169,o),
(963,1150,o),
(1008,1109,o),
(1008,1072,qs),
(1008,1012,o),
(954,930,o),
(869,879,o),
(765,857,o),
(715,857,qs)
);
}
);
width = 1247;
},
{
layerId = "B233C9FF-3FF4-4605-8A2F-BA759C1250EC";
shapes = (
{
closed = 1;
nodes = (
(327,0,l),
(466,600,l),
(667,600,ls),
(744,600,o),
(894,628,o),
(1030,684,o),
(1145,768,o),
(1229,881,o),
(1276,1022,o),
(1276,1107,qs),
(1276,1199,o),
(1202,1329,o),
(1082,1410,o),
(929,1447,o),
(849,1447,qs),
(402,1447,l),
(70,0,l)
);
},
{
closed = 1;
nodes = (
(520,843,l),
(604,1204,l),
(812,1204,ls),
(864,1204,o),
(943,1189,o),
(995,1160,o),
(1021,1115,o),
(1021,1085,qs),
(1021,1020,o),
(966,928,o),
(877,869,o),
(765,843,o),
(709,843,qs)
);
}
);
width = 1195;
},
{
layerId = "197E8B11-68AA-4AD5-97B2-73874077EF42";
shapes = (
{
closed = 1;
nodes = (
(283,0,l),
(430,637,l),
(626,637,ls),
(703,637,o),
(854,662,o),
(990,713,o),
(1106,792,o),
(1191,901,o),
(1238,1042,o),
(1238,1130,qs),
(1238,1216,o),
(1170,1336,o),
(1058,1412,o),
(914,1447,o),
(840,1447,qs),
(426,1447,l),
(93,0,l)
);
},
{
closed = 1;
nodes = (
(469,810,l),
(577,1274,l),
(815,1274,ls),
(865,1274,o),
(951,1258,o),
(1014,1221,o),
(1051,1160,o),
(1051,1115,qs),
(1051,1038,o),
(992,924,o),
(893,848,o),
(764,810,o),
(694,810,qs)
);
}
);
width = 1187;
},
{
layerId = "78E15571-ED7D-4566-909A-841824FB4F05";
shapes = (
{
closed = 1;
nodes = (
(237,0,l),
(391,679,l),
(584,679,ls),
(661,679,o),
(812,698,o),
(950,745,o),
(1066,818,o),
(1151,925,o),
(1199,1066,o),
(1199,1156,qs),
(1199,1234,o),
(1137,1345,o),
(1033,1415,o),
(902,1447,o),
(833,1447,qs),
(455,1447,l),
(122,0,l)
);
},
{
closed = 1;
nodes = (
(414,774,l),
(549,1351,l),
(821,1351,ls),
(867,1351,o),
(962,1335,o),
(1040,1289,o),
(1087,1210,o),
(1087,1148,qs),
(1087,1059,o),
(1024,921,o),
(913,826,o),
(766,774,o),
(681,774,qs)
);
}
);
width = 1183;
}
);
unicode = 80;
},
{
glyphname = Q;
layers = (
{
layerId = "96221EC5-23C3-47D4-93F5-B4F733922506";
shapes = (
{
closed = 1;
nodes = (
(1235,-129,l),
(1463,47,l),
(1295,233,l),
(1360,301,o),
(1460,464,o),
(1530,643,o),
(1566,832,o),
(1566,925,qs),
(1566,1055,o),
(1485,1257,o),
(1336,1396,o),
(1128,1468,o),
(1000,1468,qs),
(870,1468,o),
(635,1402,o),
(434,1280,o),
(272,1109,o),
(158,900,o),
(96,659,o),
(96,528,qs),
(96,397,o),
(176,192,o),
(324,52,o),
(534,-20,o),
(663,-20,qs),
(773,-20,o),
(975,21,o),
(1073,74,q)
);
},
{
closed = 1;
nodes = (
(636,255,o),
(516,289,o),
(430,362,o),
(384,474,o),
(384,552,qs),
(384,631,o),
(421,786,o),
(489,929,o),
(588,1051,o),
(714,1141,o),
(863,1192,o),
(947,1192,qs),
(1022,1192,o),
(1145,1158,o),
(1232,1086,o),
(1279,973,o),
(1279,893,qs),
(1279,834,o),
(1259,722,o),
(1221,616,o),
(1167,516,o),
(1134,468,q),
(979,626,l),
(754,455,l),
(906,288,l),
(858,272,o),
(760,255,o),
(710,255,qs)
);
}
);
width = 1617;
},
{
layerId = "B233C9FF-3FF4-4605-8A2F-BA759C1250EC";
shapes = (
{
closed = 1;
nodes = (
(1235,-122,l),
(1437,36,l),
(1273,224,l),
(1338,293,o),
(1441,457,o),
(1513,637,o),
(1551,827,o),
(1551,922,qs),
(1551,1057,o),
(1472,1261,o),
(1326,1399,o),
(1118,1468,o),
(990,1468,qs),
(861,1468,o),
(631,1399,o),
(435,1273,o),
(279,1098,o),
(169,888,o),
(111,649,o),
(111,522,qs),
(111,388,o),
(191,185,o),
(339,48,o),
(546,-20,o),
(673,-20,qs),
(788,-20,o),
(988,30,o),
(1076,80,q)
);
},
{
closed = 1;
nodes = (
(625,224,o),
(500,263,o),
(414,342,o),
(368,461,o),
(368,542,qs),
(368,626,o),
(405,792,o),
(476,943,o),
(578,1073,o),
(710,1168,o),
(869,1223,o),
(961,1223,qs),
(1039,1223,o),
(1163,1184,o),
(1249,1105,o),
(1294,985,o),
(1294,904,qs),
(1294,842,o),
(1271,716,o),
(1227,594,o),
(1166,481,o),
(1128,432,q),
(973,600,l),
(774,446,l),
(927,270,l),
(870,247,o),
(758,224,o),
(702,224,qs)
);
}
);
width = 1611;
},
{
layerId = "197E8B11-68AA-4AD5-97B2-73874077EF42";
shapes = (
{
closed = 1;
nodes = (
(1235,-107,l),
(1381,13,l),
(1218,215,l),
(1285,283,o),
(1390,455,o),
(1463,645,o),
(1502,843,o),
(1502,937,qs),
(1502,1064,o),
(1431,1262,o),
(1295,1398,o),
(1098,1469,o),
(973,1469,qs),
(845,1469,o),
(620,1394,o),
(431,1262,o),
(282,1080,o),
(179,867,o),
(124,629,o),
(124,508,qs),
(124,381,o),
(196,184,o),
(333,50,o),
(529,-20,o),
(654,-20,qs),
(772,-20,o),
(983,37,o),
(1076,101,q)
);
},
{
closed = 1;
nodes = (
(591,158,o),
(457,206,o),
(365,297,o),
(317,430,o),
(317,516,qs),
(317,607,o),
(354,793,o),
(427,964,o),
(534,1114,o),
(674,1225,o),
(847,1289,o),
(949,1289,qs),
(1038,1289,o),
(1173,1240,o),
(1264,1148,o),
(1311,1012,o),
(1311,924,qs),
(1311,853,o),
(1283,701,o),
(1231,554,o),
(1158,419,o),
(1112,364,q),
(961,546,l),
(819,427,l),
(967,240,l),
(899,198,o),
(754,158,o),
(677,158,qs)
);
}
);
width = 1596;
},
{
layerId = "78E15571-ED7D-4566-909A-841824FB4F05";
shapes = (
{
closed = 1;
nodes = (
(1240,-89,l),
(1324,-13,l),
(1164,205,l),
(1231,271,o),
(1339,452,o),
(1414,653,o),
(1453,861,o),
(1453,955,qs),
(1453,1073,o),
(1389,1264,o),
(1265,1398,o),
(1080,1469,o),
(960,1469,qs),
(833,1469,o),
(614,1390,o),
(433,1250,o),
(293,1061,o),
(196,843,o),
(145,608,o),
(145,492,qs),
(145,374,o),
(208,184,o),
(332,50,o),
(516,-20,o),
(638,-20,qs),
(760,-20,o),
(983,46,o),
(1081,125,q)
);
},
{
closed = 1;
nodes = (
(558,86,o),
(414,142,o),
(317,246,o),
(268,396,o),
(268,489,qs),
(268,588,o),
(305,793,o),
(378,988,o),
(491,1159,o),
(640,1287,o),
(829,1361,o),
(942,1361,qs),
(1043,1361,o),
(1190,1305,o),
(1287,1195,o),
(1334,1041,o),
(1334,945,qs),
(1334,864,o),
(1301,685,o),
(1240,511,o),
(1154,352,o),
(1100,289,q),
(954,486,l),
(873,406,l),
(1017,207,l),
(937,144,o),
(756,86,o),
(655,86,qs)
);
}
);
width = 1589;
}
);
unicode = 81;
},
{
glyphname = R;
layers = (
{
layerId = "96221EC5-23C3-47D4-93F5-B4F733922506";
shapes = (
{
closed = 1;
nodes = (
(1185,-2,l),
(933,632,l),
(1010,659,o),
(1144,749,o),
(1243,869,o),
(1300,1016,o),
(1300,1102,qs),
(1300,1188,o),
(1228,1318,o),
(1109,1404,o),
(959,1447,o),
(881,1447,qs),
(392,1447,l),
(57,-2,l),
(346,-2,l),
(489,609,l),
(656,609,l),
(871,-2,l)
);
},
{
closed = 1;
nodes = (
(545,841,l),
(624,1187,l),
(826,1187,ls),
(856,1187,o),
(921,1178,o),
(976,1152,o),
(1012,1106,o),
(1012,1069,qs),
(1012,1018,o),
(966,934,o),
(893,874,o),
(800,841,o),
(752,841,qs)
);
}
);
width = 1312;
},
{
layerId = "B233C9FF-3FF4-4605-8A2F-BA759C1250EC";
shapes = (
{
closed = 1;
nodes = (
(1153,-2,l),
(906,640,l),
(983,664,o),
(1120,751,o),
(1222,870,o),
(1281,1018,o),
(1281,1103,qs),
(1281,1193,o),
(1210,1323,o),
(1093,1407,o),
(943,1447,o),
(864,1447,qs),
(402,1447,l),
(68,-2,l),
(327,-2,l),
(472,618,l),
(658,618,l),
(872,-2,l)
);
},
{
closed = 1;
nodes = (
(522,830,l),
(610,1214,l),
(826,1214,ls),
(876,1214,o),
(950,1195,o),
(999,1160,o),
(1024,1111,o),
(1024,1081,qs),
(1024,1025,o),
(976,932,o),
(897,866,o),
(796,830,o),
(744,830,qs)
);
}
);
width = 1298;
},
{
layerId = "197E8B11-68AA-4AD5-97B2-73874077EF42";
shapes = (
{
closed = 1;
nodes = (
(1078,-2,l),
(842,659,l),
(924,677,o),
(1067,761,o),
(1174,882,o),
(1235,1034,o),
(1235,1121,qs),
(1235,1204,o),
(1170,1326,o),
(1061,1407,o),
(921,1446,o),
(847,1446,qs),
(423,1446,l),
(87,-2,l),
(278,-2,l),
(428,639,l),
(660,639,l),
(872,-2,l)
);
},
{
closed = 1;
nodes = (
(467,805,l),
(576,1276,l),
(822,1276,ls),
(870,1276,o),
(952,1256,o),
(1014,1215,o),
(1049,1152,o),
(1049,1108,qs),
(1049,1047,o),
(995,937,o),
(907,853,o),
(793,805,o),
(733,805,qs)
);
}
);
width = 1262;
},
{
layerId = "78E15571-ED7D-4566-909A-841824FB4F05";
shapes = (
{
closed = 1;
nodes = (
(1005,-2,l),
(782,680,l),
(869,692,o),
(1019,772,o),
(1131,894,o),
(1195,1051,o),
(1195,1141,qs),
(1195,1216,o),
(1136,1331,o),
(1037,1406,o),
(908,1445,o),
(838,1445,qs),
(455,1445,l),
(120,-2,l),
(235,-2,l),
(389,662,l),
(674,662,l),
(883,-2,l)
);
},
{
closed = 1;
nodes = (
(416,775,l),
(548,1345,l),
(827,1345,ls),
(873,1345,o),
(966,1325,o),
(1040,1277,o),
(1087,1197,o),
(1087,1138,qs),
(1087,1073,o),
(1028,942,o),
(928,840,o),
(801,775,o),
(732,775,qs)
);
}
);
width = 1244;
}
);
unicode = 82;
},
{
glyphname = S;
layers = (
{
layerId = "96221EC5-23C3-47D4-93F5-B4F733922506";
shapes = (
{
closed = 1;
nodes = (
(650,-15,o),
(853,43,o),
(1014,159,o),
(1114,332,o),
(1114,447,qs),
(1114,526,o),
(1067,646,o),
(990,739,o),
(891,809,o),
(788,867,o),
(690,918,o),
(612,973,o),
(565,1035,o),
(565,1075,qs),
(565,1112,o),
(597,1168,o),
(649,1205,o),
(713,1224,o),
(746,1224,qs),
(783,1224,o),
(850,1200,o),
(905,1158,o),
(945,1100,o),
(956,1065,q),
(1214,1189,l),
(1188,1261,o),
(1090,1367,o),
(965,1435,o),
(822,1467,o),
(749,1467,qs),
(657,1467,o),
(482,1417,o),
(344,1316,o),
(260,1164,o),
(260,1062,qs),
(260,987,o),
(307,875,o),
(384,790,o),
(483,726,o),
(586,672,o),
(685,621,o),
(762,561,o),
(809,488,o),
(809,438,qs),
(809,388,o),
(770,315,o),
(705,269,o),
(621,248,o),
(575,248,qs),
(519,248,o),
(428,280,o),
(365,341,o),
(331,430,o),
(331,487,q),
(26,437,l),
(26,325,o),
(111,156,o),
(254,42,o),
(443,-15,o),
(547,-15,qs)
);
}
);
width = 1188;
},
{
layerId = "B233C9FF-3FF4-4605-8A2F-BA759C1250EC";
shapes = (
{
closed = 1;
nodes = (
(637,-16,o),
(836,42,o),
(993,157,o),
(1091,329,o),
(1091,442,qs),
(1091,522,o),
(1042,643,o),
(964,736,o),
(863,807,o),
(758,865,o),
(657,917,o),
(579,974,o),
(530,1039,o),
(530,1082,qs),
(530,1124,o),
(567,1187,o),
(627,1228,o),
(701,1248,o),
(738,1248,qs),
(776,1248,o),
(848,1229,o),
(909,1191,o),
(955,1134,o),
(967,1097,q),
(1191,1204,l),
(1165,1274,o),
(1070,1374,o),
(949,1438,o),
(810,1468,o),
(740,1468,qs),
(650,1468,o),
(479,1418,o),
(345,1318,o),
(264,1169,o),
(264,1069,qs),
(264,993,o),
(312,881,o),
(391,796,o),
(492,732,o),
(597,677,o),
(697,625,o),
(776,563,o),
(824,485,o),
(824,432,qs),
(824,376,o),
(780,297,o),
(707,247,o),
(614,224,o),
(564,224,qs),
(506,224,o),
(407,252,o),
(333,311,o),
(292,402,o),
(292,464,q),
(26,420,l),
(26,311,o),
(109,147,o),
(250,38,o),
(434,-16,o),
(535,-16,qs)
);
}
);
width = 1164;
},
{
layerId = "197E8B11-68AA-4AD5-97B2-73874077EF42";
shapes = (
{
closed = 1;
nodes = (
(609,-16,o),
(800,46,o),
(948,164,o),
(1039,335,o),
(1039,443,qs),
(1039,519,o),
(992,632,o),
(915,717,o),
(816,781,o),
(713,835,o),
(615,886,o),
(537,946,o),
(490,1020,o),
(490,1071,qs),
(490,1125,o),
(538,1212,o),
(616,1272,o),
(714,1304,o),
(764,1304,qs),
(803,1304,o),
(876,1284,o),
(937,1245,o),
(983,1187,o),
(996,1149,q),
(1157,1227,l),
(1134,1289,o),
(1054,1380,o),
(951,1440,o),
(830,1468,o),
(767,1468,qs),
(677,1468,o),
(507,1411,o),
(376,1303,o),
(297,1148,o),
(297,1052,qs),
(297,980,o),
(344,874,o),
(421,794,o),
(520,733,o),
(623,680,o),
(722,627,o),
(799,563,o),
(846,480,o),
(846,423,qs),
(846,355,o),
(791,256,o),
(700,191,o),
(585,160,o),
(524,160,qs),
(460,160,o),
(355,194,o),
(279,260,o),
(237,359,o),
(237,424,q),
(46,389,l),
(46,289,o),
(121,137,o),
(248,35,o),
(416,-16,o),
(509,-16,qs)
);
}
);
width = 1148;
},
{
layerId = "78E15571-ED7D-4566-909A-841824FB4F05";
shapes = (
{
closed = 1;
nodes = (
(584,-16,o),
(764,51,o),
(905,173,o),
(988,341,o),
(988,443,qs),
(988,516,o),
(941,619,o),
(866,696,o),
(770,753,o),
(670,802,o),
(572,852,o),
(497,915,o),
(451,999,o),
(451,1058,qs),
(451,1127,o),
(511,1241,o),
(609,1322,o),
(734,1366,o),
(797,1366,qs),
(839,1366,o),
(912,1344,o),
(973,1305,o),
(1019,1246,o),
(1034,1206,q),
(1124,1253,l),
(1104,1307,o),
(1041,1388,o),
(957,1442,o),
(859,1468,o),
(803,1468,qs),
(712,1468,o),
(545,1402,o),
(417,1285,o),
(339,1126,o),
(339,1033,qs),
(339,965,o),
(385,867,o),
(460,791,o),
(556,735,o),
(658,683,o),
(754,630,o),
(829,562,o),
(875,474,o),
(875,414,qs),
(875,333,o),
(808,211,o),
(697,130,o),
(557,90,o),
(485,90,qs),
(415,90,o),
(303,128,o),
(224,203,o),
(182,311,o),
(182,379,q),
(75,356,l),
(75,265,o),
(139,127,o),
(251,32,o),
(401,-16,o),
(487,-16,qs)
);
}
);
width = 1139;
}
);
unicode = 83;
},
{
glyphname = T;
layers = (
{
layerId = "96221EC5-23C3-47D4-93F5-B4F733922506";
shapes = (
{
closed = 1;
nodes = (
(636,0,l),
(907,1179,l),
(1349,1179,l),
(1411,1448,l),
(236,1448,l),
(175,1179,l),
(618,1179,l),
(346,0,l)
);
}
);
width = 1213;
},
{
layerId = "B233C9FF-3FF4-4605-8A2F-BA759C1250EC";
shapes = (
{
closed = 1;
nodes = (
(618,0,l),
(897,1209,l),
(1351,1209,l),
(1405,1448,l),
(239,1448,l),
(184,1209,l),
(638,1209,l),
(358,0,l)
);
}
);
width = 1208;
},
{
layerId = "197E8B11-68AA-4AD5-97B2-73874077EF42";
shapes = (
{
closed = 1;
nodes = (
(542,0,l),
(838,1279,l),
(1316,1279,l),
(1354,1448,l),
(205,1448,l),
(167,1279,l),
(646,1279,l),
(350,0,l)
);
}
);
width = 1124;
},
{
layerId = "78E15571-ED7D-4566-909A-841824FB4F05";
shapes = (
{
closed = 1;
nodes = (
(484,0,l),
(798,1356,l),
(1303,1356,l),
(1323,1448,l),
(195,1448,l),
(175,1356,l),
(681,1356,l),
(367,0,l)
);
}
);
width = 1082;
}
);
unicode = 84;
},
{
glyphname = U;
layers = (
{
layerId = "96221EC5-23C3-47D4-93F5-B4F733922506";
shapes = (
{
closed = 1;
nodes = (
(754,-20,o),
(982,60,o),
(1150,212,o),
(1261,433,o),
(1293,573,qs),
(1495,1447,l),
(1205,1447,l),
(1011,610,ls),
(992,529,o),
(940,399,o),
(856,309,o),
(731,261,o),
(640,261,qs),
(596,261,o),
(518,273,o),
(460,309,o),
(427,373,o),
(427,425,qs),
(427,445,o),
(431,486,o),
(437,526,o),
(445,567,o),
(450,587,qs),
(647,1447,l),
(356,1447,l),
(159,586,ls),
(153,561,o),
(144,510,o),
(137,460,o),
(133,408,o),
(133,382,qs),
(133,270,o),
(203,116,o),
(329,21,o),
(501,-20,o),
(603,-20,qs)
);
}
);
width = 1420;
},
{
layerId = "B233C9FF-3FF4-4605-8A2F-BA759C1250EC";
shapes = (
{
closed = 1;
nodes = (
(733,-20,o),
(952,53,o),
(1121,199,o),
(1239,418,o),
(1273,564,qs),
(1477,1447,l),
(1217,1447,l),
(1021,604,ls),
(1001,520,o),
(944,383,o),
(854,284,o),
(722,230,o),
(629,230,qs),
(572,230,o),
(488,251,o),
(433,296,o),
(407,366,o),
(407,415,qs),
(407,432,o),
(410,470,o),
(416,512,o),
(424,558,o),
(430,583,qs),
(629,1447,l),
(369,1447,l),
(168,574,ls),
(162,548,o),
(153,498,o),
(146,449,o),
(143,402,o),
(143,379,qs),
(143,288,o),
(196,140,o),
(307,36,o),
(479,-20,o),
(598,-20,qs)
);
}
);
width = 1413;
},
{
layerId = "197E8B11-68AA-4AD5-97B2-73874077EF42";
shapes = (
{
closed = 1;
nodes = (
(719,-20,o),
(931,64,o),
(1091,217,o),
(1200,431,o),
(1230,562,qs),
(1433,1447,l),
(1242,1447,l),
(1044,589,ls),
(1023,500,o),
(957,344,o),
(854,228,o),
(706,161,o),
(603,161,qs),
(540,161,o),
(448,188,o),
(388,245,o),
(359,332,o),
(359,391,qs),
(359,415,o),
(368,485,o),
(383,566,o),
(401,652,o),
(410,690,qs),
(585,1447,l),
(394,1447,l),
(217,681,l),
(207,642,o),
(189,554,o),
(174,470,o),
(165,396,o),
(165,371,qs),
(165,278,o),
(218,132,o),
(324,32,o),
(482,-20,o),
(586,-20,qs)
);
}
);
width = 1393;
},
{
layerId = "78E15571-ED7D-4566-909A-841824FB4F05";
shapes = (
{
closed = 1;
nodes = (
(710,-20,o),
(913,76,o),
(1063,237,o),
(1161,446,o),
(1187,559,qs),
(1391,1447,l),
(1277,1447,l),
(1074,574,ls),
(1052,478,o),
(977,301,o),
(859,165,o),
(693,85,o),
(581,85,qs),
(512,85,o),
(409,119,o),
(343,188,o),
(311,295,o),
(311,366,qs),
(311,396,o),
(328,502,o),
(352,626,o),
(382,756,o),
(394,810,qs),
(542,1447,l),
(427,1447,l),
(276,800,ls),
(263,746,o),
(234,617,o),
(210,494,o),
(194,392,o),
(194,362,qs),
(194,266,o),
(248,123,o),
(350,28,o),
(491,-20,o),
(579,-20,qs)
);
}
);
width = 1383;
}
);
unicode = 85;
},
{
glyphname = V;
layers = (
{
layerId = "96221EC5-23C3-47D4-93F5-B4F733922506";
shapes = (
{
closed = 1;
nodes = (
(681,0,l),
(1602,1448,l),
(1276,1448,l),
(681,486,l),
(532,1448,l),
(212,1448,l),
(469,0,l)
);
}
);
width = 1396;
},
{
layerId = "B233C9FF-3FF4-4605-8A2F-BA759C1250EC";
shapes = (
{
closed = 1;
nodes = (
(671,0,l),
(1581,1448,l),
(1292,1448,l),
(665,422,l),
(514,1448,l),
(230,1448,l),
(476,0,l)
);
}
);
width = 1375;
},
{
layerId = "197E8B11-68AA-4AD5-97B2-73874077EF42";
shapes = (
{
closed = 1;
nodes = (
(626,0,l),
(1512,1448,l),
(1305,1448,l),
(608,278,l),
(453,1448,l),
(249,1448,l),
(470,0,l)
);
}
);
width = 1330;
},
{
layerId = "78E15571-ED7D-4566-909A-841824FB4F05";
shapes = (
{
closed = 1;
nodes = (
(592,0,l),
(1451,1448,l),
(1335,1448,l),
(562,119,l),
(401,1448,l),
(284,1448,l),
(479,0,l)
);
}
);
width = 1308;
}
);
unicode = 86;
},
{
glyphname = W;
layers = (
{
layerId = "96221EC5-23C3-47D4-93F5-B4F733922506";
shapes = (
{
closed = 1;
nodes = (
(1441,0,l),
(2217,1447,l),
(1915,1447,l),
(1384,439,l),
(1309,1447,l),
(1085,1447,l),
(545,439,l),
(479,1447,l),
(177,1447,l),
(286,0,l),
(559,0,l),
(1090,989,l),
(1167,0,l)
);
}
);
width = 2060;
},
{
layerId = "B233C9FF-3FF4-4605-8A2F-BA759C1250EC";
shapes = (
{
closed = 1;
nodes = (
(1424,0,l),
(2192,1447,l),
(1922,1447,l),
(1368,382,l),
(1293,1447,l),
(1092,1447,l),
(525,382,l),
(463,1447,l),
(193,1447,l),
(293,0,l),
(544,0,l),
(1098,1036,l),
(1174,0,l)
);
}
);
width = 2051;
},
{
layerId = "197E8B11-68AA-4AD5-97B2-73874077EF42";
shapes = (
{
closed = 1;
nodes = (
(1385,0,l),
(2135,1447,l),
(1938,1447,l),
(1330,254,l),
(1256,1447,l),
(1104,1447,l),
(481,254,l),
(422,1447,l),
(225,1447,l),
(306,0,l),
(509,0,l),
(1110,1140,l),
(1183,0,l)
);
}
);
width = 2026;
},
{
layerId = "78E15571-ED7D-4566-909A-841824FB4F05";
shapes = (
{
closed = 1;
nodes = (
(1351,0,l),
(2080,1447,l),
(1964,1447,l),
(1297,113,l),
(1222,1447,l),
(1127,1447,l),
(439,113,l),
(383,1447,l),
(270,1447,l),
(330,0,l),
(478,0,l),
(1131,1256,l),
(1203,0,l)
);
}
);
width = 2014;
}
);
rightKerningGroup = W;
unicode = 87;
},
{
glyphname = X;
layers = (
{
layerId = "96221EC5-23C3-47D4-93F5-B4F733922506";
shapes = (
{
closed = 1;
nodes = (
(1269,0,l),
(952,724,l),
(1607,1447,l),
(1255,1447,l),
(784,902,l),
(571,1447,l),
(229,1447,l),
(543,724,l),
(-114,0,l),
(240,0,l),
(710,538,l),
(927,0,l)
);
}
);
width = 1399;
},
{
layerId = "B233C9FF-3FF4-4605-8A2F-BA759C1250EC";
shapes = (
{
closed = 1;
nodes = (
(1229,0,l),
(914,724,l),
(1567,1447,l),
(1252,1447,l),
(770,889,l),
(552,1447,l),
(246,1447,l),
(558,724,l),
(-96,0,l),
(220,0,l),
(700,550,l),
(925,0,l)
);
}
);
width = 1375;
},
{
layerId = "197E8B11-68AA-4AD5-97B2-73874077EF42";
shapes = (
{
closed = 1;
nodes = (
(1097,0,l),
(787,724,l),
(1433,1447,l),
(1205,1447,l),
(696,858,l),
(464,1447,l),
(241,1447,l),
(550,724,l),
(-99,0,l),
(132,0,l),
(638,579,l),
(877,0,l)
);
}
);
width = 1245;
},
{
layerId = "78E15571-ED7D-4566-909A-841824FB4F05";
shapes = (
{
closed = 1;
nodes = (
(991,0,l),
(685,724,l),
(1325,1447,l),
(1192,1447,l),
(653,825,l),
(406,1447,l),
(274,1447,l),
(579,724,l),
(-65,0,l),
(74,0,l),
(610,611,l),
(865,0,l)
);
}
);
width = 1181;
}
);
unicode = 88;
},
{
glyphname = Y;
layers = (
{
layerId = "96221EC5-23C3-47D4-93F5-B4F733922506";
shapes = (
{
closed = 1;
nodes = (
(753,0,l),
(885,563,l),
(1688,1447,l),
(1339,1447,l),
(790,818,l),
(534,1447,l),
(195,1447,l),
(593,563,l),
(461,0,l)
);
}
);
width = 1446;
},
{
layerId = "B233C9FF-3FF4-4605-8A2F-BA759C1250EC";
shapes = (
{
closed = 1;
nodes = (
(728,0,l),
(860,564,l),
(1651,1447,l),
(1340,1447,l),
(776,797,l),
(516,1447,l),
(214,1447,l),
(600,564,l),
(468,0,l)
);
}
);
width = 1428;
},
{
layerId = "197E8B11-68AA-4AD5-97B2-73874077EF42";
shapes = (
{
closed = 1;
nodes = (
(667,0,l),
(799,565,l),
(1563,1447,l),
(1337,1447,l),
(740,747,l),
(471,1447,l),
(252,1447,l),
(611,565,l),
(480,0,l)
);
}
);
width = 1379;
},
{
layerId = "78E15571-ED7D-4566-909A-841824FB4F05";
shapes = (
{
closed = 1;
nodes = (
(616,0,l),
(748,567,l),
(1481,1447,l),
(1351,1447,l),
(716,693,l),
(438,1447,l),
(311,1447,l),
(640,567,l),
(509,0,l)
);
}
);
width = 1355;
}
);
unicode = 89;
},
{
glyphname = Z;
layers = (
{
layerId = "96221EC5-23C3-47D4-93F5-B4F733922506";
shapes = (
{
closed = 1;
nodes = (
(1114,0,l),
(1177,269,l),
(407,269,l),
(1402,1242,l),
(1449,1448,l),
(312,1448,l),
(251,1179,l),
(976,1179,l),
(-26,205,l),
(-67,0,l)
);
}
);
width = 1298;
},
{
layerId = "B233C9FF-3FF4-4605-8A2F-BA759C1250EC";
shapes = (
{
closed = 1;
nodes = (
(1109,0,l),
(1164,239,l),
(362,239,l),
(1401,1259,l),
(1443,1448,l),
(323,1448,l),
(268,1209,l),
(1025,1209,l),
(-18,185,l),
(-56,0,l)
);
}
);
width = 1303;
},
{
layerId = "197E8B11-68AA-4AD5-97B2-73874077EF42";
shapes = (
{
closed = 1;
nodes = (
(1099,0,l),
(1140,170,l),
(265,170,l),
(1400,1298,l),
(1432,1448,l),
(349,1448,l),
(310,1279,l),
(1140,1279,l),
(-1,139,l),
(-30,0,l)
);
}
);
width = 1315;
},
{
layerId = "78E15571-ED7D-4566-909A-841824FB4F05";
shapes = (
{
closed = 1;
nodes = (
(1081,0,l),
(1107,92,l),
(151,92,l),
(1394,1342,l),
(1416,1448,l),
(373,1448,l),
(351,1356,l),
(1263,1356,l),
(13,88,l),
(-6,0,l)
);
}
);
width = 1321;
}
);
unicode = 90;
},
{
glyphname = bracketleft;
layers = (
{
layerId = "96221EC5-23C3-47D4-93F5-B4F733922506";
shapes = (
{
closed = 1;
nodes = (
(473,-190,l),
(518,0,l),
(276,0,l),
(610,1444,l),
(851,1444,l),
(894,1632,l),
(429,1632,l),
(8,-190,l)
);
}
);
width = 656;
},
{
layerId = "B233C9FF-3FF4-4605-8A2F-BA759C1250EC";
shapes = (
{
closed = 1;
nodes = (
(466,-168,l),
(506,0,l),
(264,0,l),
(598,1445,l),
(839,1445,l),
(877,1611,l),
(434,1611,l),
(24,-168,l)
);
}
);
width = 656;
},
{
layerId = "197E8B11-68AA-4AD5-97B2-73874077EF42";
shapes = (
{
closed = 1;
nodes = (
(449,-118,l),
(477,-2,l),
(235,-2,l),
(570,1448,l),
(811,1448,l),
(837,1562,l),
(445,1562,l),
(58,-118,l)
);
}
);
width = 657;
},
{
layerId = "78E15571-ED7D-4566-909A-841824FB4F05";
shapes = (
{
closed = 1;
nodes = (
(431,-63,l),
(446,-4,l),
(204,-4,l),
(539,1451,l),
(781,1451,l),
(792,1508,l),
(459,1508,l),
(96,-63,l)
);
}
);
width = 657;
}
);
unicode = 91;
},
{
glyphname = backslash;
layers = (
{
layerId = "96221EC5-23C3-47D4-93F5-B4F733922506";
shapes = (
{
closed = 1;
nodes = (
(787,-440,l),
(438,1552,l),
(189,1552,l),
(535,-440,l)
);
}
);
width = 955;
},
{
layerId = "B233C9FF-3FF4-4605-8A2F-BA759C1250EC";
shapes = (
{
closed = 1;
nodes = (
(772,-440,l),
(432,1552,l),
(206,1552,l),
(543,-440,l)
);
}
);
width = 956;
},
{
layerId = "197E8B11-68AA-4AD5-97B2-73874077EF42";
shapes = (
{
closed = 1;
nodes = (
(737,-441,l),
(418,1552,l),
(243,1552,l),
(564,-441,l)
);
}
);
width = 960;
},
{
layerId = "78E15571-ED7D-4566-909A-841824FB4F05";
shapes = (
{
closed = 1;
nodes = (
(697,-441,l),
(402,1552,l),
(282,1552,l),
(585,-441,l)
);
}
);
width = 962;
}
);
unicode = 92;
},
{
glyphname = bracketright;
layers = (
{
layerId = "96221EC5-23C3-47D4-93F5-B4F733922506";
shapes = (
{
closed = 1;
nodes = (
(323,-190,l),
(745,1632,l),
(281,1632,l),
(238,1444,l),
(478,1444,l),
(145,0,l),
(-96,0,l),
(-142,-190,l)
);
}
);
width = 656;
},
{
layerId = "B233C9FF-3FF4-4605-8A2F-BA759C1250EC";
shapes = (
{
closed = 1;
nodes = (
(318,-168,l),
(730,1611,l),
(288,1611,l),
(250,1445,l),
(490,1445,l),
(158,0,l),
(-84,0,l),
(-124,-168,l)
);
}
);
width = 656;
},
{
layerId = "197E8B11-68AA-4AD5-97B2-73874077EF42";
shapes = (
{
closed = 1;
nodes = (
(308,-118,l),
(695,1562,l),
(305,1562,l),
(279,1448,l),
(520,1448,l),
(186,-2,l),
(-56,-2,l),
(-83,-118,l)
);
}
);
width = 657;
},
{
layerId = "78E15571-ED7D-4566-909A-841824FB4F05";
shapes = (
{
closed = 1;
nodes = (
(296,-63,l),
(658,1508,l),
(323,1508,l),
(311,1451,l),
(553,1451,l),
(218,-4,l),
(-25,-4,l),
(-38,-63,l)
);
}
);
width = 657;
}
);
unicode = 93;
},
{
glyphname = asciicircum;
layers = (
{
layerId = "96221EC5-23C3-47D4-93F5-B4F733922506";
shapes = (
{
closed = 1;
nodes = (
(1025,813,l),
(736,1554,l),
(111,813,l),
(391,813,l),
(645,1111,l),
(759,813,l)
);
}
);
width = 1004;
},
{
layerId = "B233C9FF-3FF4-4605-8A2F-BA759C1250EC";
shapes = (
{
closed = 1;
nodes = (
(1009,824,l),
(732,1533,l),
(134,824,l),
(388,824,l),
(650,1133,l),
(768,824,l)
);
}
);
width = 1005;
},
{
layerId = "197E8B11-68AA-4AD5-97B2-73874077EF42";
shapes = (
{
closed = 1;
nodes = (
(972,850,l),
(723,1483,l),
(188,850,l),
(379,850,l),
(662,1182,l),
(790,850,l)
);
}
);
width = 1009;
},
{
layerId = "78E15571-ED7D-4566-909A-841824FB4F05";
shapes = (
{
closed = 1;
nodes = (
(930,877,l),
(713,1428,l),
(248,877,l),
(370,877,l),
(676,1238,l),
(814,877,l)
);
}
);
width = 1011;
}
);
unicode = 94;
},
{
glyphname = underscore;
layers = (
{
layerId = "96221EC5-23C3-47D4-93F5-B4F733922506";
shapes = (
{
closed = 1;
nodes = (
(920,-211,l),
(969,0,l),
(76,0,l),
(27,-211,l)
);
}
);
width = 1278;
},
{
layerId = "B233C9FF-3FF4-4605-8A2F-BA759C1250EC";
shapes = (
{
closed = 1;
nodes = (
(912,-188,l),
(956,0,l),
(86,0,l),
(42,-188,l)
);
}
);
width = 1277;
},
{
layerId = "197E8B11-68AA-4AD5-97B2-73874077EF42";
shapes = (
{
closed = 1;
nodes = (
(898,-139,l),
(929,-2,l),
(110,-2,l),
(78,-139,l)
);
}
);
width = 1275;
},
{
layerId = "78E15571-ED7D-4566-909A-841824FB4F05";
shapes = (
{
closed = 1;
nodes = (
(882,-84,l),
(899,-4,l),
(137,-4,l),
(117,-84,l)
);
}
);
width = 1274;
}
);
unicode = 95;
},
{
glyphname = grave;
layers = (
{
layerId = "96221EC5-23C3-47D4-93F5-B4F733922506";
shapes = (
{
closed = 1;
nodes = (
(681,1192,l),
(528,1508,l),
(245,1508,l),
(495,1192,l)
);
}
);
width = 543;
},
{
layerId = "B233C9FF-3FF4-4605-8A2F-BA759C1250EC";
shapes = (
{
closed = 1;
nodes = (
(651,1192,l),
(490,1508,l),
(228,1508,l),
(473,1192,l)
);
}
);
width = 545;
},
{
layerId = "197E8B11-68AA-4AD5-97B2-73874077EF42";
shapes = (
{
closed = 1;
nodes = (
(627,1192,l),
(469,1496,l),
(260,1496,l),
(481,1192,l)
);
}
);
width = 551;
},
{
layerId = "78E15571-ED7D-4566-909A-841824FB4F05";
shapes = (
{
closed = 1;
nodes = (
(597,1192,l),
(442,1483,l),
(293,1483,l),
(486,1192,l)
);
}
);
width = 554;
}
);
unicode = 96;
},
{
glyphname = a;
layers = (
{
layerId = "96221EC5-23C3-47D4-93F5-B4F733922506";
shapes = (
{
closed = 1;
nodes = (
(491,-20,o),
(647,31,o),
(712,93,q),
(703,0,l),
(971,0,l),
(1216,1064,l),
(920,1064,l),
(891,964,l),
(869,996,o),
(807,1042,o),
(735,1072,o),
(658,1085,o),
(620,1085,qs),
(532,1085,o),
(376,1027,o),
(246,926,o),
(143,790,o),
(71,635,o),
(33,468,o),
(33,386,qs),
(33,298,o),
(80,150,o),
(174,41,o),
(311,-20,o),
(402,-20,qs)
);
},
{
closed = 1;
nodes = (
(456,239,o),
(389,259,o),
(342,302,o),
(317,368,o),
(317,413,qs),
(317,461,o),
(338,561,o),
(378,654,o),
(437,736,o),
(514,797,o),
(606,833,o),
(660,833,qs),
(703,833,o),
(770,811,o),
(815,768,o),
(839,701,o),
(839,655,qs),
(839,606,o),
(819,505,o),
(780,413,o),
(722,332,o),
(646,273,o),
(553,239,o),
(498,239,qs)
);
}
);
width = 1229;
},
{
layerId = "B233C9FF-3FF4-4605-8A2F-BA759C1250EC";
shapes = (
{
closed = 1;
nodes = (
(504,-20,o),
(664,41,o),
(727,102,q),
(713,0,l),
(954,0,l),
(1200,1064,l),
(936,1064,l),
(905,951,l),
(883,988,o),
(821,1038,o),
(748,1070,o),
(667,1084,o),
(627,1084,qs),
(538,1084,o),
(383,1025,o),
(254,922,o),
(154,784,o),
(84,627,o),
(48,460,o),
(48,380,qs),
(48,294,o),
(92,147,o),
(182,40,o),
(316,-20,o),
(406,-20,qs)
);
},
{
closed = 1;
nodes = (
(444,210,o),
(373,236,o),
(325,285,o),
(301,356,o),
(301,402,qs),
(301,454,o),
(323,561,o),
(366,663,o),
(429,752,o),
(510,819,o),
(608,858,o),
(666,858,qs),
(715,858,o),
(786,830,o),
(832,779,o),
(854,707,o),
(854,664,qs),
(854,612,o),
(833,504,o),
(791,403,o),
(729,314,o),
(649,248,o),
(549,210,o),
(491,210,qs)
);
}
);
width = 1203;
},
{
layerId = "197E8B11-68AA-4AD5-97B2-73874077EF42";
shapes = (
{
closed = 1;
nodes = (
(504,-20,o),
(681,55,o),
(748,125,q),
(725,0,l),
(904,0,l),
(1148,1064,l),
(959,1064,l),
(924,925,l),
(901,968,o),
(839,1029,o),
(763,1067,o),
(676,1084,o),
(629,1084,qs),
(541,1084,o),
(389,1021,o),
(264,914,o),
(167,771,o),
(100,612,o),
(65,445,o),
(65,368,qs),
(65,286,o),
(105,145,o),
(188,40,o),
(315,-20,o),
(402,-20,qs)
);
},
{
closed = 1;
nodes = (
(405,145,o),
(325,179,o),
(273,240,o),
(249,326,o),
(249,378,qs),
(249,437,o),
(273,562,o),
(321,682,o),
(391,790,o),
(483,871,o),
(596,919,o),
(662,919,qs),
(718,919,o),
(798,885,o),
(849,823,o),
(873,738,o),
(873,687,qs),
(873,629,o),
(849,503,o),
(802,382,o),
(733,274,o),
(641,193,o),
(527,145,o),
(460,145,qs)
);
}
);
width = 1175;
},
{
layerId = "78E15571-ED7D-4566-909A-841824FB4F05";
shapes = (
{
closed = 1;
nodes = (
(512,-20,o),
(707,72,o),
(780,151,q),
(746,0,l),
(856,0,l),
(1099,1064,l),
(992,1064,l),
(951,895,l),
(928,946,o),
(865,1017,o),
(787,1063,o),
(693,1084,o),
(638,1084,qs),
(552,1084,o),
(404,1018,o),
(282,905,o),
(190,758,o),
(126,594,o),
(92,429,o),
(92,353,qs),
(92,279,o),
(128,142,o),
(203,40,o),
(323,-20,o),
(407,-20,qs)
);
},
{
closed = 1;
nodes = (
(369,73,o),
(280,116,o),
(224,192,o),
(198,293,o),
(198,351,qs),
(198,418,o),
(225,562,o),
(278,703,o),
(357,831,o),
(461,928,o),
(590,987,o),
(667,987,qs),
(730,987,o),
(819,945,o),
(876,873,o),
(902,773,o),
(902,714,qs),
(902,647,o),
(876,502,o),
(823,360,o),
(745,231,o),
(641,132,o),
(512,73,o),
(435,73,qs)
);
}
);
width = 1160;
}
);
leftKerningGroup = a;
unicode = 97;
},
{
glyphname = b;
layers = (
{
layerId = "96221EC5-23C3-47D4-93F5-B4F733922506";
shapes = (
{
closed = 1;
nodes = (
(719,-20,o),
(875,37,o),
(1005,137,o),
(1106,272,o),
(1177,427,o),
(1213,594,o),
(1213,677,qs),
(1213,766,o),
(1168,915,o),
(1077,1024,o),
(940,1084,o),
(848,1084,qs),
(764,1084,o),
(612,1038,o),
(550,982,q),
(675,1444,l),
(373,1444,l),
(27,0,l),
(330,0,l),
(356,100,l),
(379,68,o),
(441,22,o),
(513,-7,o),
(591,-20,o),
(630,-20,qs)
);
},
{
closed = 1;
nodes = (
(549,240,o),
(481,260,o),
(434,304,o),
(409,371,o),
(409,417,qs),
(409,468,o),
(430,568,o),
(470,660,o),
(530,739,o),
(607,797,o),
(700,829,o),
(754,829,qs),
(796,829,o),
(862,808,o),
(909,765,o),
(934,699,o),
(934,654,qs),
(934,605,o),
(913,506,o),
(874,414,o),
(815,333,o),
(739,274,o),
(646,240,o),
(592,240,qs)
);
}
);
width = 1238;
},
{
layerId = "B233C9FF-3FF4-4605-8A2F-BA759C1250EC";
shapes = (
{
closed = 1;
nodes = (
(702,-20,o),
(857,39,o),
(986,141,o),
(1085,279,o),
(1154,435,o),
(1190,602,o),
(1190,683,qs),
(1190,770,o),
(1146,918,o),
(1057,1025,o),
(923,1085,o),
(833,1085,qs),
(739,1085,o),
(585,1028,o),
(521,970,q),
(649,1445,l),
(381,1445,l),
(35,0,l),
(303,0,l),
(334,112,l),
(355,76,o),
(418,26,o),
(492,-6,o),
(573,-20,o),
(612,-20,qs)
);
},
{
closed = 1;
nodes = (
(530,210,o),
(458,236,o),
(409,285,o),
(384,358,o),
(384,404,qs),
(384,456,o),
(407,563,o),
(450,664,o),
(514,754,o),
(595,820,o),
(694,859,o),
(751,859,qs),
(799,859,o),
(870,833,o),
(917,783,o),
(940,710,o),
(940,664,qs),
(940,612,o),
(918,504,o),
(876,404,o),
(814,315,o),
(733,248,o),
(634,210,o),
(577,210,qs)
);
}
);
width = 1229;
},
{
layerId = "197E8B11-68AA-4AD5-97B2-73874077EF42";
shapes = (
{
closed = 1;
nodes = (
(660,-20,o),
(812,43,o),
(936,150,o),
(1033,293,o),
(1099,453,o),
(1133,619,o),
(1133,697,qs),
(1133,778,o),
(1093,921,o),
(1010,1026,o),
(883,1087,o),
(795,1087,qs),
(691,1087,o),
(521,1009,o),
(451,938,q),
(587,1446,l),
(396,1446,l),
(49,0,l),
(240,0,l),
(275,139,l),
(297,95,o),
(360,34,o),
(437,-4,o),
(525,-20,o),
(572,-20,qs)
);
},
{
closed = 1;
nodes = (
(480,142,o),
(400,176,o),
(349,238,o),
(324,324,o),
(324,376,qs),
(324,434,o),
(349,561,o),
(397,683,o),
(467,793,o),
(560,876,o),
(673,925,o),
(740,925,qs),
(796,925,o),
(877,889,o),
(928,824,o),
(952,735,o),
(952,683,qs),
(952,624,o),
(928,499,o),
(880,378,o),
(809,270,o),
(716,189,o),
(603,142,o),
(536,142,qs)
);
}
);
width = 1188;
},
{
layerId = "78E15571-ED7D-4566-909A-841824FB4F05";
shapes = (
{
closed = 1;
nodes = (
(627,-20,o),
(775,48,o),
(896,161,o),
(988,310,o),
(1051,473,o),
(1084,639,o),
(1084,712,qs),
(1084,789,o),
(1048,924,o),
(971,1028,o),
(852,1087,o),
(767,1087,qs),
(651,1087,o),
(466,990,o),
(388,902,q),
(530,1448,l),
(426,1448,l),
(79,0,l),
(183,0,l),
(224,171,l),
(245,116,o),
(308,43,o),
(389,-1,o),
(486,-20,o),
(541,-20,qs)
);
},
{
closed = 1;
nodes = (
(440,66,o),
(351,110,o),
(295,186,o),
(272,288,o),
(272,345,qs),
(272,412,o),
(298,558,o),
(351,704,o),
(430,837,o),
(533,938,o),
(663,999,o),
(740,999,qs),
(807,999,o),
(897,951,o),
(954,869,o),
(979,764,o),
(979,704,qs),
(979,639,o),
(951,492,o),
(897,350,o),
(817,222,o),
(712,125,o),
(581,66,o),
(503,66,qs)
);
}
);
width = 1167;
}
);
unicode = 98;
},
{
glyphname = c;
layers = (
{
layerId = "96221EC5-23C3-47D4-93F5-B4F733922506";
shapes = (
{
closed = 1;
nodes = (
(546,-24,o),
(697,18,o),
(828,97,o),
(936,210,o),
(977,282,q),
(734,409,l),
(715,373,o),
(664,313,o),
(602,269,o),
(530,244,o),
(489,244,qs),
(450,244,o),
(385,264,o),
(339,305,o),
(314,369,o),
(314,412,qs),
(314,460,o),
(335,557,o),
(374,646,o),
(431,724,o),
(504,780,o),
(593,813,o),
(644,813,qs),
(676,813,o),
(731,794,o),
(772,757,o),
(796,705,o),
(796,673,q),
(1087,759,l),
(1073,835,o),
(1001,955,o),
(896,1038,o),
(761,1081,o),
(683,1081,qs),
(591,1081,o),
(424,1031,o),
(280,940,o),
(163,814,o),
(80,662,o),
(35,490,o),
(35,399,qs),
(35,300,o),
(95,142,o),
(206,34,o),
(364,-24,o),
(462,-24,qs)
);
}
);
width = 1065;
},
{
layerId = "B233C9FF-3FF4-4605-8A2F-BA759C1250EC";
shapes = (
{
closed = 1;
nodes = (
(539,-20,o),
(685,21,o),
(811,98,o),
(917,208,o),
(958,276,q),
(743,391,l),
(725,353,o),
(670,288,o),
(602,241,o),
(522,214,o),
(479,214,qs),
(434,214,o),
(365,239,o),
(319,287,o),
(296,358,o),
(296,402,qs),
(296,452,o),
(317,557,o),
(358,655,o),
(419,743,o),
(497,808,o),
(592,846,o),
(648,846,qs),
(685,846,o),
(744,827,o),
(787,789,o),
(812,731,o),
(814,691,q),
(1074,768,l),
(1060,837,o),
(995,952,o),
(896,1035,o),
(763,1081,o),
(681,1081,qs),
(590,1081,o),
(425,1029,o),
(284,936,o),
(170,807,o),
(90,655,o),
(47,485,o),
(47,396,qs),
(47,298,o),
(103,143,o),
(209,36,o),
(362,-20,o),
(458,-20,qs)
);
}
);
width = 1058;
},
{
layerId = "197E8B11-68AA-4AD5-97B2-73874077EF42";
shapes = (
{
closed = 1;
nodes = (
(521,-20,o),
(657,19,o),
(776,92,o),
(875,196,o),
(912,259,q),
(761,343,l),
(740,301,o),
(677,229,o),
(598,176,o),
(508,146,o),
(460,146,qs),
(403,146,o),
(324,181,o),
(273,244,o),
(250,331,o),
(250,383,qs),
(250,439,o),
(273,561,o),
(318,679,o),
(386,786,o),
(474,866,o),
(583,914,o),
(648,914,qs),
(690,914,o),
(761,889,o),
(814,843,o),
(846,775,o),
(849,731,q),
(1035,793,l),
(1020,860,o),
(957,967,o),
(864,1042,o),
(743,1081,o),
(669,1081,qs),
(579,1081,o),
(420,1024,o),
(287,925,o),
(181,790,o),
(107,635,o),
(68,466,o),
(68,383,qs),
(68,292,o),
(117,143,o),
(212,37,o),
(353,-20,o),
(446,-20,qs)
);
}
);
width = 1031;
},
{
layerId = "78E15571-ED7D-4566-909A-841824FB4F05";
shapes = (
{
closed = 1;
nodes = (
(509,-20,o),
(635,18,o),
(745,86,o),
(836,181,o),
(870,241,q),
(788,289,l),
(766,243,o),
(692,163,o),
(603,104,o),
(499,70,o),
(447,70,qs),
(378,70,o),
(287,115,o),
(231,195,o),
(207,301,o),
(207,362,qs),
(207,424,o),
(233,567,o),
(282,706,o),
(358,833,o),
(456,931,o),
(580,989,o),
(654,989,qs),
(702,989,o),
(788,958,o),
(852,903,o),
(893,823,o),
(896,775,q),
(1001,820,l),
(984,886,o),
(923,984,o),
(837,1048,o),
(728,1081,o),
(665,1081,qs),
(576,1081,o),
(423,1020,o),
(298,913,o),
(201,771,o),
(134,613,o),
(100,447,o),
(100,368,qs),
(100,286,o),
(140,145,o),
(223,40,o),
(352,-20,o),
(440,-20,qs)
);
}
);
width = 1018;
}
);
leftKerningGroup = a;
unicode = 99;
},
{
glyphname = d;
layers = (
{
layerId = "96221EC5-23C3-47D4-93F5-B4F733922506";
shapes = (
{
closed = 1;
nodes = (
(490,-20,o),
(649,31,o),
(712,93,q),
(703,0,l),
(971,0,l),
(1318,1447,l),
(1022,1447,l),
(1018,1431,o),
(997,1356,o),
(971,1259,o),
(942,1152,o),
(916,1055,o),
(895,980,o),
(891,964,q),
(869,996,o),
(807,1042,o),
(736,1072,o),
(658,1085,o),
(620,1085,qs),
(531,1085,o),
(375,1027,o),
(245,927,o),
(142,791,o),
(71,635,o),
(33,468,o),
(33,386,qs),
(33,297,o),
(80,148,o),
(172,40,o),
(310,-20,o),
(402,-20,qs)
);
},
{
closed = 1;
nodes = (
(456,239,o),
(389,259,o),
(342,302,o),
(317,368,o),
(317,413,qs),
(317,461,o),
(338,561,o),
(378,654,o),
(437,736,o),
(514,797,o),
(606,833,o),
(660,833,qs),
(703,833,o),
(770,811,o),
(815,768,o),
(839,701,o),
(839,655,qs),
(839,606,o),
(819,505,o),
(780,413,o),
(722,332,o),
(646,273,o),
(553,239,o),
(498,239,qs)
);
}
);
width = 1243;
},
{
layerId = "B233C9FF-3FF4-4605-8A2F-BA759C1250EC";
shapes = (
{
closed = 1;
nodes = (
(504,-20,o),
(664,41,o),
(727,102,q),
(713,0,l),
(954,0,l),
(1298,1447,l),
(1033,1447,l),
(1029,1430,o),
(1011,1354,o),
(987,1255,o),
(961,1145,o),
(938,1047,o),
(919,970,o),
(915,953,q),
(893,990,o),
(828,1040,o),
(753,1072,o),
(669,1085,o),
(627,1085,qs),
(538,1085,o),
(383,1026,o),
(254,922,o),
(154,784,o),
(84,627,o),
(48,460,o),
(48,380,qs),
(48,294,o),
(92,147,o),
(182,40,o),
(316,-20,o),
(406,-20,qs)
);
},
{
closed = 1;
nodes = (
(444,210,o),
(373,236,o),
(325,285,o),
(301,356,o),
(301,402,qs),
(301,454,o),
(323,562,o),
(366,663,o),
(429,753,o),
(510,820,o),
(608,859,o),
(666,859,qs),
(715,859,o),
(786,831,o),
(832,780,o),
(854,709,o),
(854,666,qs),
(854,614,o),
(833,506,o),
(791,404,o),
(729,315,o),
(649,249,o),
(549,210,o),
(491,210,qs)
);
}
);
width = 1234;
},
{
layerId = "197E8B11-68AA-4AD5-97B2-73874077EF42";
shapes = (
{
closed = 1;
nodes = (
(506,-20,o),
(676,52,o),
(746,125,q),
(723,0,l),
(902,0,l),
(1247,1447,l),
(1058,1447,l),
(1049,1412,o),
(1027,1327,o),
(1003,1235,o),
(979,1139,o),
(956,1046,o),
(935,961,o),
(926,926,q),
(903,969,o),
(840,1030,o),
(762,1068,o),
(674,1085,o),
(627,1085,qs),
(539,1085,o),
(387,1022,o),
(262,915,o),
(165,772,o),
(98,612,o),
(63,445,o),
(63,368,qs),
(63,286,o),
(103,145,o),
(185,40,o),
(312,-20,o),
(400,-20,qs)
);
},
{
closed = 1;
nodes = (
(404,145,o),
(324,179,o),
(272,240,o),
(247,326,o),
(247,378,qs),
(247,437,o),
(271,562,o),
(319,682,o),
(389,790,o),
(481,872,o),
(594,920,o),
(660,920,qs),
(716,920,o),
(796,886,o),
(848,824,o),
(872,739,o),
(872,688,qs),
(872,630,o),
(848,504,o),
(801,383,o),
(731,275,o),
(639,193,o),
(526,145,o),
(459,145,qs)
);
}
);
width = 1195;
},
{
layerId = "78E15571-ED7D-4566-909A-841824FB4F05";
shapes = (
{
closed = 1;
nodes = (
(523,-20,o),
(703,64,o),
(781,151,q),
(747,0,l),
(857,0,l),
(1205,1447,l),
(1099,1447,l),
(1084,1397,o),
(1059,1305,o),
(1035,1216,o),
(1011,1129,o),
(988,1040,o),
(964,948,o),
(950,896,q),
(929,947,o),
(866,1018,o),
(786,1064,o),
(692,1085,o),
(639,1085,qs),
(553,1085,o),
(405,1019,o),
(283,906,o),
(191,757,o),
(127,596,o),
(93,429,o),
(93,353,qs),
(93,279,o),
(127,142,o),
(203,40,o),
(323,-20,o),
(408,-20,qs)
);
},
{
closed = 1;
nodes = (
(371,73,o),
(282,116,o),
(226,192,o),
(199,293,o),
(199,351,qs),
(199,418,o),
(226,562,o),
(279,705,o),
(358,832,o),
(462,929,o),
(591,988,o),
(668,988,qs),
(731,988,o),
(822,946,o),
(878,872,o),
(904,772,o),
(904,714,qs),
(904,648,o),
(877,503,o),
(825,361,o),
(746,230,o),
(642,132,o),
(513,73,o),
(437,73,qs)
);
}
);
width = 1176;
}
);
leftKerningGroup = a;
unicode = 100;
},
{
glyphname = e;
layers = (
{
layerId = "96221EC5-23C3-47D4-93F5-B4F733922506";
shapes = (
{
closed = 1;
nodes = (
(616,-20,o),
(854,63,o),
(956,153,q),
(795,353,l),
(764,324,o),
(696,273,o),
(617,236,o),
(524,214,o),
(469,214,qs),
(430,214,o),
(369,237,o),
(326,276,o),
(304,326,o),
(304,352,qs),
(304,362,o),
(306,389,o),
(310,417,o),
(316,443,o),
(321,453,q),
(1054,453,l),
(1066,484,o),
(1081,541,o),
(1089,598,o),
(1092,657,o),
(1092,691,qs),
(1092,791,o),
(1032,939,o),
(923,1036,o),
(769,1084,o),
(676,1084,qs),
(585,1084,o),
(420,1033,o),
(278,942,o),
(163,816,o),
(81,665,o),
(37,495,o),
(37,406,qs),
(37,304,o),
(103,145,o),
(221,36,o),
(384,-20,o),
(480,-20,qs)
);
},
{
closed = 1;
nodes = (
(381,651,l),
(401,699,o),
(453,774,o),
(519,825,o),
(601,851,o),
(652,851,qs),
(699,851,o),
(769,825,o),
(815,778,o),
(838,716,o),
(838,680,qs),
(838,672,o),
(836,659,o),
(836,651,q)
);
}
);
width = 1116;
},
{
layerId = "B233C9FF-3FF4-4605-8A2F-BA759C1250EC";
shapes = (
{
closed = 1;
nodes = (
(617,-20,o),
(848,63,o),
(945,147,q),
(799,325,l),
(765,294,o),
(698,251,o),
(626,224,o),
(547,212,o),
(502,212,qs),
(452,212,o),
(374,232,o),
(321,271,o),
(293,328,o),
(293,365,qs),
(293,376,o),
(295,397,o),
(298,415,o),
(303,432,o),
(306,439,q),
(1033,439,l),
(1044,468,o),
(1061,533,o),
(1072,600,o),
(1078,667,o),
(1078,697,qs),
(1078,794,o),
(1023,939,o),
(920,1036,o),
(771,1084,o),
(677,1084,qs),
(586,1084,o),
(423,1031,o),
(284,937,o),
(172,808,o),
(94,655,o),
(51,486,o),
(51,398,qs),
(51,297,o),
(113,141,o),
(226,35,o),
(384,-20,o),
(479,-20,qs)
);
},
{
closed = 1;
nodes = (
(351,620,l),
(371,672,o),
(429,764,o),
(507,834,o),
(602,874,o),
(657,874,qs),
(705,874,o),
(775,851,o),
(821,803,o),
(844,729,o),
(844,678,qs),
(844,665,o),
(842,636,o),
(841,620,q)
);
}
);
width = 1114;
},
{
layerId = "197E8B11-68AA-4AD5-97B2-73874077EF42";
shapes = (
{
closed = 1;
nodes = (
(588,-20,o),
(813,58,o),
(906,138,q),
(797,258,l),
(762,227,o),
(688,183,o),
(609,156,o),
(523,144,o),
(477,144,qs),
(421,144,o),
(334,175,o),
(276,231,o),
(246,311,o),
(246,362,qs),
(246,376,o),
(248,403,o),
(252,429,o),
(257,454,o),
(261,466,q),
(996,466,l),
(1006,496,o),
(1022,558,o),
(1033,622,o),
(1039,687,o),
(1039,720,qs),
(1039,811,o),
(989,947,o),
(893,1039,o),
(754,1084,o),
(666,1084,qs),
(576,1084,o),
(417,1026,o),
(285,925,o),
(179,789,o),
(106,632,o),
(68,463,o),
(68,379,qs),
(68,286,o),
(122,138,o),
(224,35,o),
(371,-20,o),
(462,-20,qs)
);
},
{
closed = 1;
nodes = (
(295,607,l),
(314,670,o),
(378,785,o),
(467,874,o),
(581,927,o),
(649,927,qs),
(701,927,o),
(784,902,o),
(842,850,o),
(873,768,o),
(873,712,qs),
(873,686,o),
(864,634,o),
(858,607,q)
);
}
);
width = 1089;
},
{
layerId = "78E15571-ED7D-4566-909A-841824FB4F05";
shapes = (
{
closed = 1;
nodes = (
(564,-20,o),
(782,52,o),
(870,128,q),
(803,185,l),
(767,152,o),
(685,108,o),
(597,81,o),
(504,69,o),
(458,69,qs),
(394,69,o),
(298,111,o),
(234,188,o),
(201,295,o),
(201,358,qs),
(201,375,o),
(205,409,o),
(209,444,o),
(215,478,o),
(218,495,q),
(963,495,l),
(972,526,o),
(986,587,o),
(997,646,o),
(1003,710,o),
(1003,744,qs),
(1003,829,o),
(958,956,o),
(872,1041,o),
(744,1084,o),
(662,1084,qs),
(572,1084,o),
(419,1022,o),
(293,913,o),
(196,768,o),
(129,607,o),
(94,438,o),
(94,360,qs),
(94,274,o),
(140,134,o),
(230,34,o),
(364,-20,o),
(452,-20,qs)
);
},
{
closed = 1;
nodes = (
(240,594,l),
(259,667,o),
(329,809,o),
(431,918,o),
(565,986,o),
(648,986,qs),
(706,986,o),
(804,958,o),
(874,901,o),
(914,813,o),
(914,750,qs),
(914,709,o),
(897,631,o),
(887,594,q)
);
}
);
width = 1077;
}
);
leftKerningGroup = a;
unicode = 101;
},
{
glyphname = f;
layers = (
{
layerId = "96221EC5-23C3-47D4-93F5-B4F733922506";
shapes = (
{
closed = 1;
nodes = (
(392,0,l),
(579,828,l),
(811,828,l),
(866,1064,l),
(635,1064,l),
(645,1112,ls),
(650,1134,o),
(665,1175,o),
(691,1207,o),
(732,1227,o),
(762,1227,qs),
(781,1227,o),
(816,1218,o),
(830,1208,q),
(981,1420,l),
(935,1441,o),
(840,1468,o),
(788,1468,qs),
(683,1468,o),
(537,1422,o),
(437,1337,o),
(377,1218,o),
(357,1145,qs),
(336,1064,l),
(138,1064,l),
(82,828,l),
(275,828,l),
(88,0,l)
);
}
);
width = 738;
},
{
layerId = "B233C9FF-3FF4-4605-8A2F-BA759C1250EC";
shapes = (
{
closed = 1;
nodes = (
(362,0,l),
(562,855,l),
(805,855,l),
(855,1064,l),
(612,1064,l),
(643,1164,ls),
(650,1186,o),
(670,1220,o),
(698,1243,o),
(734,1254,o),
(755,1254,qs),
(776,1254,o),
(816,1245,o),
(835,1235,q),
(964,1422,l),
(914,1446,o),
(821,1468,o),
(776,1468,qs),
(693,1468,o),
(562,1432,o),
(465,1363,o),
(401,1262,o),
(383,1198,qs),
(346,1064,l),
(143,1064,l),
(94,855,l),
(294,855,l),
(94,0,l)
);
}
);
width = 737;
},
{
layerId = "197E8B11-68AA-4AD5-97B2-73874077EF42";
shapes = (
{
closed = 1;
nodes = (
(280,0,l),
(499,915,l),
(776,915,l),
(812,1064,l),
(533,1064,l),
(556,1141,l),
(569,1189,o),
(598,1255,o),
(636,1296,o),
(687,1313,o),
(721,1313,qs),
(749,1313,o),
(801,1301,o),
(826,1290,q),
(910,1426,l),
(867,1448,o),
(780,1468,o),
(736,1468,qs),
(664,1468,o),
(548,1435,o),
(460,1371,o),
(400,1280,o),
(384,1221,qs),
(342,1064,l),
(138,1064,l),
(102,915,l),
(305,915,l),
(88,0,l)
);
}
);
width = 730;
},
{
layerId = "78E15571-ED7D-4566-909A-841824FB4F05";
shapes = (
{
closed = 1;
nodes = (
(192,0,l),
(432,980,l),
(748,980,l),
(767,1064,l),
(448,1064,l),
(462,1116,ls),
(482,1194,o),
(520,1294,o),
(570,1355,o),
(638,1379,o),
(687,1379,qs),
(721,1379,o),
(786,1364,o),
(819,1352,q),
(853,1429,l),
(819,1450,o),
(738,1468,o),
(696,1468,qs),
(636,1468,o),
(536,1438,o),
(457,1382,o),
(403,1298,o),
(389,1247,qs),
(339,1064,l),
(134,1064,l),
(114,980,l),
(320,980,l),
(84,0,l)
);
}
);
width = 727;
}
);
leftKerningGroup = a;
unicode = 102;
},
{
glyphname = g;
layers = (
{
layerId = "96221EC5-23C3-47D4-93F5-B4F733922506";
shapes = (
{
closed = 1;
nodes = (
(480,-451,o),
(676,-394,o),
(830,-281,o),
(938,-111,o),
(965,1,q),
(1212,1064,l),
(918,1064,l),
(889,965,l),
(869,998,o),
(807,1045,o),
(733,1073,o),
(654,1085,o),
(616,1085,qs),
(530,1085,o),
(377,1031,o),
(249,935,o),
(147,805,o),
(76,656,o),
(38,493,o),
(38,413,qs),
(38,328,o),
(86,183,o),
(178,77,o),
(314,16,o),
(402,16,qs),
(488,16,o),
(638,61,o),
(703,120,q),
(687,60,ls),
(671,-1,o),
(629,-99,o),
(562,-168,o),
(466,-205,o),
(397,-205,qs),
(364,-205,o),
(292,-192,o),
(227,-161,o),
(177,-112,o),
(167,-75,q),
(-76,-216,l),
(-41,-280,o),
(52,-370,o),
(164,-425,o),
(294,-451,o),
(366,-451,qs)
);
},
{
closed = 1;
nodes = (
(463,276,o),
(395,295,o),
(347,336,o),
(321,400,o),
(321,445,qs),
(321,493,o),
(343,587,o),
(385,672,o),
(445,746,o),
(520,800,o),
(608,830,o),
(658,830,qs),
(700,830,o),
(768,810,o),
(815,767,o),
(840,701,o),
(840,656,qs),
(840,609,o),
(818,515,o),
(776,431,o),
(717,359,o),
(643,306,o),
(555,276,o),
(505,276,qs)
);
}
);
width = 1224;
},
{
layerId = "B233C9FF-3FF4-4605-8A2F-BA759C1250EC";
shapes = (
{
closed = 1;
nodes = (
(479,-449,o),
(670,-391,o),
(819,-278,o),
(923,-109,o),
(949,2,qs),
(1197,1064,l),
(935,1064,l),
(904,953,l),
(883,987,o),
(823,1037,o),
(751,1070,o),
(669,1085,o),
(626,1085,qs),
(538,1085,o),
(385,1028,o),
(257,928,o),
(157,794,o),
(88,640,o),
(51,476,o),
(51,396,qs),
(51,312,o),
(96,167,o),
(185,60,o),
(319,0,o),
(409,0,qs),
(504,0,o),
(660,58,o),
(721,116,q),
(693,10,l),
(678,-51,o),
(621,-142,o),
(543,-201,o),
(447,-230,o),
(391,-230,qs),
(341,-230,o),
(261,-211,o),
(202,-176,o),
(165,-128,o),
(156,-100,q),
(-60,-220,l),
(-28,-284,o),
(62,-372,o),
(171,-425,o),
(298,-449,o),
(366,-449,qs)
);
},
{
closed = 1;
nodes = (
(450,230,o),
(378,255,o),
(329,304,o),
(303,375,o),
(303,421,qs),
(303,471,o),
(326,575,o),
(369,673,o),
(432,758,o),
(513,822,o),
(609,859,o),
(665,859,qs),
(712,859,o),
(783,833,o),
(831,783,o),
(855,711,o),
(855,665,qs),
(855,614,o),
(833,511,o),
(790,414,o),
(727,330,o),
(647,267,o),
(551,230,o),
(496,230,qs)
);
}
);
width = 1200;
},
{
layerId = "197E8B11-68AA-4AD5-97B2-73874077EF42";
shapes = (
{
closed = 1;
nodes = (
(465,-446,o),
(648,-382,o),
(786,-262,o),
(880,-89,o),
(905,20,qs),
(1150,1064,l),
(959,1064,l),
(924,925,l),
(902,967,o),
(842,1027,o),
(768,1067,o),
(681,1085,o),
(634,1085,qs),
(545,1085,o),
(392,1024,o),
(266,918,o),
(169,777,o),
(102,619,o),
(67,452,o),
(67,373,qs),
(67,292,o),
(108,151,o),
(192,47,o),
(321,-12,o),
(409,-12,qs),
(511,-12,o),
(683,66,o),
(750,136,q),
(717,8,ls),
(700,-59,o),
(635,-168,o),
(544,-246,o),
(430,-289,o),
(362,-289,qs),
(316,-289,o),
(237,-270,o),
(175,-234,o),
(129,-180,o),
(116,-145,q),
(-42,-232,l),
(-15,-292,o),
(67,-373,o),
(170,-424,o),
(288,-446,o),
(349,-446,qs)
);
},
{
closed = 1;
nodes = (
(408,151,o),
(328,185,o),
(276,247,o),
(250,333,o),
(250,385,qs),
(250,443,o),
(275,567,o),
(323,687,o),
(394,795,o),
(486,876,o),
(599,923,o),
(665,923,qs),
(720,923,o),
(799,889,o),
(851,827,o),
(875,741,o),
(875,689,qs),
(875,632,o),
(850,508,o),
(802,388,o),
(732,280,o),
(640,199,o),
(529,151,o),
(463,151,qs)
);
}
);
width = 1176;
},
{
layerId = "78E15571-ED7D-4566-909A-841824FB4F05";
shapes = (
{
closed = 1;
nodes = (
(456,-442,o),
(632,-372,o),
(758,-243,o),
(840,-67,o),
(865,40,qs),
(1107,1064,l),
(994,1064,l),
(953,894,l),
(932,945,o),
(871,1017,o),
(795,1064,o),
(704,1085,o),
(651,1085,qs),
(562,1085,o),
(409,1020,o),
(284,908,o),
(190,761,o),
(126,597,o),
(93,427,o),
(93,348,qs),
(93,270,o),
(129,133,o),
(209,34,o),
(332,-24,o),
(417,-24,qs),
(526,-24,o),
(716,75,o),
(789,159,q),
(752,5,l),
(732,-68,o),
(659,-198,o),
(555,-296,o),
(418,-354,o),
(337,-354,qs),
(297,-354,o),
(219,-336,o),
(151,-299,o),
(98,-237,o),
(80,-193,q),
(-14,-246,l),
(6,-300,o),
(82,-376,o),
(176,-421,o),
(285,-442,o),
(339,-442,qs)
);
},
{
closed = 1;
nodes = (
(371,63,o),
(282,107,o),
(225,184,o),
(199,287,o),
(199,345,qs),
(199,412,o),
(227,560,o),
(281,704,o),
(360,834,o),
(465,935,o),
(595,995,o),
(673,995,qs),
(737,995,o),
(825,951,o),
(880,875,o),
(905,774,o),
(905,718,qs),
(905,652,o),
(879,504,o),
(825,360,o),
(746,226,o),
(642,124,o),
(511,63,o),
(436,63,qs)
);
}
);
width = 1164;
}
);
leftKerningGroup = a;
unicode = 103;
},
{
glyphname = h;
layers = (
{
layerId = "96221EC5-23C3-47D4-93F5-B4F733922506";
shapes = (
{
closed = 1;
nodes = (
(712,0,l),
(1000,0,l),
(1139,622,ls),
(1148,660,o),
(1155,735,o),
(1155,768,qs),
(1155,842,o),
(1116,959,o),
(1040,1041,o),
(929,1084,o),
(857,1084,qs),
(813,1084,o),
(731,1070,o),
(654,1042,o),
(582,999,o),
(549,969,q),
(488,969,l),
(398,549,l),
(441,549,l),
(453,606,o),
(515,706,o),
(601,779,o),
(702,822,o),
(753,822,qs),
(805,822,o),
(867,770,o),
(867,726,qs),
(867,710,o),
(864,676,o),
(859,642,o),
(853,608,o),
(849,592,qs)
);
},
{
closed = 1;
nodes = (
(22,0,l),
(310,0,l),
(656,1448,l),
(368,1448,l)
);
}
);
width = 1241;
},
{
layerId = "B233C9FF-3FF4-4605-8A2F-BA759C1250EC";
shapes = (
{
closed = 1;
nodes = (
(712,0,l),
(971,0,l),
(1109,628,ls),
(1117,663,o),
(1126,730,o),
(1126,763,qs),
(1126,828,o),
(1091,945,o),
(1015,1033,o),
(897,1084,o),
(813,1084,qs),
(766,1084,o),
(687,1068,o),
(616,1035,o),
(549,986,o),
(514,953,q),
(449,953,l),
(365,578,l),
(414,578,l),
(426,632,o),
(493,730,o),
(586,805,o),
(696,850,o),
(751,850,qs),
(810,850,o),
(868,791,o),
(868,733,qs),
(868,720,o),
(866,694,o),
(862,667,o),
(856,639,o),
(853,624,qs)
);
},
{
closed = 1;
nodes = (
(12,0,l),
(276,0,l),
(622,1448,l),
(358,1448,l)
);
}
);
width = 1199;
},
{
layerId = "197E8B11-68AA-4AD5-97B2-73874077EF42";
shapes = (
{
closed = 1;
nodes = (
(737,0,l),
(926,0,l),
(1069,642,ls),
(1077,678,o),
(1086,747,o),
(1086,780,qs),
(1086,842,o),
(1055,952,o),
(985,1035,o),
(873,1084,o),
(793,1084,qs),
(743,1084,o),
(651,1057,o),
(566,1010,o),
(487,946,o),
(451,909,q),
(388,909,l),
(315,579,l),
(364,579,l),
(379,642,o),
(454,763,o),
(558,856,o),
(685,913,o),
(753,913,qs),
(829,913,o),
(899,833,o),
(899,759,qs),
(899,743,o),
(897,711,o),
(890,670,o),
(879,615,o),
(870,576,qs)
);
},
{
closed = 1;
nodes = (
(37,0,l),
(225,0,l),
(572,1448,l),
(383,1448,l)
);
}
);
width = 1186;
},
{
layerId = "78E15571-ED7D-4566-909A-841824FB4F05";
shapes = (
{
closed = 1;
nodes = (
(769,0,l),
(880,0,l),
(1029,659,ls),
(1037,693,o),
(1044,765,o),
(1044,800,qs),
(1044,857,o),
(1016,960,o),
(954,1038,o),
(851,1084,o),
(774,1084,qs),
(721,1084,o),
(614,1045,o),
(514,983,o),
(423,903,o),
(384,860,q),
(324,860,l),
(263,579,l),
(310,579,l),
(330,654,o),
(414,799,o),
(531,913,o),
(676,984,o),
(758,984,qs),
(853,984,o),
(935,880,o),
(935,789,qs),
(935,770,o),
(933,731,o),
(925,673,o),
(908,588,o),
(891,522,q)
);
},
{
closed = 1;
nodes = (
(67,0,l),
(171,0,l),
(518,1448,l),
(415,1448,l)
);
}
);
width = 1179;
}
);
unicode = 104;
},
{
glyphname = i;
layers = (
{
layerId = "96221EC5-23C3-47D4-93F5-B4F733922506";
shapes = (
{
closed = 1;
nodes = (
(539,1177,l),
(605,1447,l),
(350,1447,l),
(284,1177,l)
);
},
{
closed = 1;
nodes = (
(276,0,l),
(511,1064,l),
(256,1064,l),
(22,0,l)
);
}
);
width = 558;
},
{
layerId = "B233C9FF-3FF4-4605-8A2F-BA759C1250EC";
shapes = (
{
closed = 1;
nodes = (
(532,1217,l),
(586,1447,l),
(355,1447,l),
(302,1217,l)
);
},
{
closed = 1;
nodes = (
(262,0,l),
(497,1064,l),
(266,1064,l),
(32,0,l)
);
}
);
width = 545;
},
{
layerId = "197E8B11-68AA-4AD5-97B2-73874077EF42";
shapes = (
{
closed = 1;
nodes = (
(496,1242,l),
(544,1447,l),
(369,1447,l),
(322,1242,l)
);
},
{
closed = 1;
nodes = (
(226,0,l),
(461,1064,l),
(286,1064,l),
(52,0,l)
);
}
);
width = 508;
},
{
layerId = "78E15571-ED7D-4566-909A-841824FB4F05";
shapes = (
{
closed = 1;
nodes = (
(466,1269,l),
(508,1447,l),
(396,1447,l),
(354,1269,l)
);
},
{
closed = 1;
nodes = (
(198,0,l),
(431,1064,l),
(319,1064,l),
(85,0,l)
);
}
);
width = 490;
}
);
leftKerningGroup = a;
unicode = 105;
},
{
glyphname = j;
layers = (
{
layerId = "96221EC5-23C3-47D4-93F5-B4F733922506";
shapes = (
{
closed = 1;
nodes = (
(563,1177,l),
(625,1445,l),
(351,1445,l),
(290,1177,l)
);
},
{
closed = 1;
nodes = (
(-37,-449,o),
(91,-398,o),
(188,-307,o),
(254,-183,o),
(271,-109,qs),
(547,1064,l),
(273,1064,l),
(8,-82,ls),
(3,-103,o),
(-14,-146,o),
(-39,-180,o),
(-72,-202,o),
(-92,-202,qs),
(-118,-202,o),
(-169,-196,o),
(-194,-189,q),
(-299,-410,l),
(-256,-427,o),
(-166,-449,o),
(-118,-449,qs)
);
}
);
width = 607;
},
{
layerId = "B233C9FF-3FF4-4605-8A2F-BA759C1250EC";
shapes = (
{
closed = 1;
nodes = (
(572,1217,l),
(626,1447,l),
(377,1447,l),
(324,1217,l)
);
},
{
closed = 1;
nodes = (
(-45,-449,o),
(80,-399,o),
(174,-312,o),
(237,-191,o),
(254,-119,qs),
(530,1064,l),
(282,1064,l),
(8,-113,ls),
(2,-141,o),
(-18,-183,o),
(-45,-210,o),
(-81,-224,o),
(-102,-224,qs),
(-129,-224,o),
(-181,-218,o),
(-206,-212,q),
(-299,-411,l),
(-253,-430,o),
(-165,-449,o),
(-123,-449,qs)
);
}
);
width = 592;
},
{
layerId = "197E8B11-68AA-4AD5-97B2-73874077EF42";
shapes = (
{
closed = 1;
nodes = (
(526,1241,l),
(576,1450,l),
(386,1450,l),
(338,1241,l)
);
},
{
closed = 1;
nodes = (
(-76,-449,o),
(39,-404,o),
(126,-324,o),
(185,-212,o),
(200,-145,q),
(483,1064,l),
(294,1064,l),
(11,-150,ls),
(4,-180,o),
(-20,-228,o),
(-54,-263,o),
(-100,-281,o),
(-129,-281,qs),
(-158,-281,o),
(-214,-274,o),
(-242,-267,q),
(-310,-415,l),
(-269,-431,o),
(-188,-449,o),
(-148,-449,qs)
);
}
);
width = 546;
},
{
layerId = "78E15571-ED7D-4566-909A-841824FB4F05";
shapes = (
{
closed = 1;
nodes = (
(492,1270,l),
(536,1455,l),
(412,1455,l),
(368,1270,l)
);
},
{
closed = 1;
nodes = (
(-94,-451,o),
(11,-410,o),
(89,-338,o),
(142,-236,o),
(157,-175,q),
(446,1064,l),
(323,1064,l),
(31,-191,l),
(22,-224,o),
(-5,-279,o),
(-48,-320,o),
(-106,-344,o),
(-143,-344,qs),
(-173,-344,o),
(-235,-337,o),
(-266,-327,q),
(-306,-420,l),
(-272,-433,o),
(-199,-451,o),
(-160,-451,qs)
);
}
);
width = 524;
}
);
leftKerningGroup = a;
unicode = 106;
},
{
glyphname = k;
layers = (
{
layerId = "96221EC5-23C3-47D4-93F5-B4F733922506";
shapes = (
{
closed = 1;
nodes = (
(1312,1064,l),
(926,1064,l),
(430,638,l),
(357,293,l)
);
},
{
closed = 1;
nodes = (
(1097,0,l),
(786,674,l),
(549,501,l),
(759,0,l)
);
},
{
closed = 1;
nodes = (
(22,0,l),
(310,0,l),
(656,1448,l),
(368,1448,l)
);
}
);
width = 1204;
},
{
layerId = "B233C9FF-3FF4-4605-8A2F-BA759C1250EC";
shapes = (
{
closed = 1;
nodes = (
(1278,1064,l),
(936,1064,l),
(409,601,l),
(343,292,l)
);
},
{
closed = 1;
nodes = (
(1071,0,l),
(770,680,l),
(563,523,l),
(770,0,l)
);
},
{
closed = 1;
nodes = (
(32,0,l),
(296,0,l),
(642,1448,l),
(378,1448,l)
);
}
);
width = 1192;
},
{
layerId = "197E8B11-68AA-4AD5-97B2-73874077EF42";
shapes = (
{
closed = 1;
nodes = (
(1175,1064,l),
(932,1064,l),
(335,524,l),
(285,291,l)
);
},
{
closed = 1;
nodes = (
(985,0,l),
(706,693,l),
(558,567,l),
(766,0,l)
);
},
{
closed = 1;
nodes = (
(41,0,l),
(229,0,l),
(576,1448,l),
(388,1448,l)
);
}
);
width = 1126;
},
{
layerId = "78E15571-ED7D-4566-909A-841824FB4F05";
shapes = (
{
closed = 1;
nodes = (
(1081,1064,l),
(949,1064,l),
(274,439,l),
(242,290,l)
);
},
{
closed = 1;
nodes = (
(910,0,l),
(657,707,l),
(573,615,l),
(781,0,l)
);
},
{
closed = 1;
nodes = (
(73,0,l),
(177,0,l),
(524,1448,l),
(420,1448,l)
);
}
);
width = 1093;
}
);
unicode = 107;
},
{
glyphname = l;
layers = (
{
layerId = "96221EC5-23C3-47D4-93F5-B4F733922506";
shapes = (
{
closed = 1;
nodes = (
(328,-20,o),
(426,-10,o),
(476,-2,q),
(519,240,l),
(501,236,o),
(465,233,o),
(446,233,qs),
(433,233,o),
(408,237,o),
(388,248,o),
(377,268,o),
(377,285,q),
(656,1448,l),
(368,1448,l),
(81,254,ls),
(75,227,o),
(62,153,o),
(62,127,qs),
(62,86,o),
(97,29,o),
(155,-6,o),
(233,-20,o),
(276,-20,qs)
);
}
);
width = 629;
},
{
layerId = "B233C9FF-3FF4-4605-8A2F-BA759C1250EC";
shapes = (
{
closed = 1;
nodes = (
(297,-20,o),
(387,-11,o),
(438,-2,q),
(476,212,l),
(444,208,o),
(401,204,o),
(390,204,qs),
(376,204,o),
(354,208,o),
(340,218,o),
(333,231,o),
(333,241,q),
(620,1448,l),
(356,1448,l),
(62,214,l),
(56,192,o),
(51,152,o),
(51,133,qs),
(51,92,o),
(79,33,o),
(133,-4,o),
(211,-20,o),
(259,-20,qs)
);
}
);
width = 597;
},
{
layerId = "197E8B11-68AA-4AD5-97B2-73874077EF42";
shapes = (
{
closed = 1;
nodes = (
(255,-20,o),
(329,-11,o),
(370,-2,q),
(398,151,l),
(370,145,o),
(322,138,o),
(303,138,qs),
(292,138,o),
(273,143,o),
(260,153,o),
(253,167,o),
(253,176,q),
(556,1448,l),
(365,1448,l),
(68,193,ls),
(63,171,o),
(55,130,o),
(55,109,qs),
(55,73,o),
(78,23,o),
(121,-7,o),
(182,-20,o),
(219,-20,qs)
);
}
);
width = 551;
},
{
layerId = "78E15571-ED7D-4566-909A-841824FB4F05";
shapes = (
{
closed = 1;
nodes = (
(221,-20,o),
(280,-11,o),
(307,-2,q),
(323,82,l),
(300,75,o),
(249,66,o),
(219,66,qs),
(211,66,o),
(197,71,o),
(185,81,o),
(178,97,o),
(178,106,q),
(499,1448,l),
(388,1448,l),
(89,171,ls),
(84,150,o),
(75,106,o),
(75,82,qs),
(75,51,o),
(90,11,o),
(121,-12,o),
(163,-20,o),
(189,-20,qs)
);
}
);
width = 527;
}
);
leftKerningGroup = a;
unicode = 108;
},
{
glyphname = m;
layers = (
{
layerId = "96221EC5-23C3-47D4-93F5-B4F733922506";
shapes = (
{
closed = 1;
nodes = (
(1627,0,l),
(1740,511,ls),
(1753,570,o),
(1774,690,o),
(1774,751,qs),
(1774,827,o),
(1723,951,o),
(1631,1038,o),
(1504,1084,o),
(1427,1084,qs),
(1375,1084,o),
(1282,1066,o),
(1197,1030,o),
(1117,976,o),
(1077,941,q),
(1031,1015,o),
(898,1084,o),
(808,1084,qs),
(776,1084,o),
(704,1067,o),
(632,1034,o),
(564,987,o),
(536,957,q),
(530,957,l),
(562,1064,l),
(268,1064,l),
(25,0,l),
(317,0,l),
(446,572,ls),
(457,620,o),
(507,709,o),
(578,778,o),
(667,819,o),
(717,819,qs),
(773,819,o),
(833,765,o),
(833,719,qs),
(833,694,o),
(827,647,o),
(821,623,qs),
(678,0,l),
(975,0,l),
(1103,572,ls),
(1114,620,o),
(1163,709,o),
(1234,778,o),
(1323,819,o),
(1374,819,qs),
(1430,819,o),
(1490,766,o),
(1490,716,qs),
(1490,708,o),
(1487,679,o),
(1480,636,o),
(1469,580,o),
(1461,546,qs),
(1337,0,l)
);
}
);
width = 1869;
},
{
layerId = "B233C9FF-3FF4-4605-8A2F-BA759C1250EC";
shapes = (
{
closed = 1;
nodes = (
(1587,0,l),
(1726,628,l),
(1734,661,o),
(1741,726,o),
(1741,758,qs),
(1741,834,o),
(1698,955,o),
(1617,1039,o),
(1501,1084,o),
(1427,1084,qs),
(1378,1084,o),
(1279,1066,o),
(1183,1027,o),
(1091,967,o),
(1048,926,q),
(1012,1004,o),
(875,1084,o),
(776,1084,qs),
(736,1084,o),
(666,1069,o),
(600,1033,o),
(533,976,o),
(496,935,q),
(486,935,l),
(521,1064,l),
(258,1064,l),
(15,0,l),
(276,0,l),
(407,580,l),
(420,632,o),
(473,730,o),
(551,806,o),
(651,851,o),
(710,851,qs),
(768,851,o),
(827,792,o),
(827,733,qs),
(827,712,o),
(819,660,o),
(812,629,qs),
(669,0,l),
(933,0,l),
(1064,580,ls),
(1076,632,o),
(1130,730,o),
(1208,806,o),
(1308,851,o),
(1366,851,qs),
(1425,851,o),
(1483,790,o),
(1483,729,qs),
(1483,718,o),
(1482,693,o),
(1478,667,o),
(1473,639,o),
(1470,624,qs),
(1329,0,l)
);
}
);
width = 1815;
},
{
layerId = "197E8B11-68AA-4AD5-97B2-73874077EF42";
shapes = (
{
closed = 1;
nodes = (
(1545,0,l),
(1686,635,l),
(1695,671,o),
(1703,740,o),
(1703,775,qs),
(1703,848,o),
(1663,964,o),
(1586,1043,o),
(1474,1084,o),
(1402,1084,qs),
(1345,1084,o),
(1242,1057,o),
(1149,1006,o),
(1065,932,o),
(1027,886,q),
(1008,981,o),
(864,1084,o),
(749,1084,qs),
(704,1084,o),
(629,1068,o),
(559,1030,o),
(489,968,o),
(448,923,q),
(438,923,l),
(474,1064,l),
(283,1064,l),
(40,0,l),
(229,0,l),
(365,596,ls),
(379,656,o),
(440,773,o),
(530,866,o),
(645,923,o),
(712,923,qs),
(789,923,o),
(859,841,o),
(859,766,qs),
(859,737,o),
(850,674,o),
(843,640,q),
(696,0,l),
(887,0,l),
(1023,596,ls),
(1037,656,o),
(1098,773,o),
(1187,866,o),
(1301,923,o),
(1368,923,qs),
(1447,923,o),
(1517,837,o),
(1517,760,qs),
(1517,747,o),
(1516,720,o),
(1512,684,o),
(1503,637,o),
(1495,604,qs),
(1356,0,l)
);
}
);
width = 1805;
},
{
layerId = "78E15571-ED7D-4566-909A-841824FB4F05";
shapes = (
{
closed = 1;
nodes = (
(1502,0,l),
(1646,643,ls),
(1655,682,o),
(1663,757,o),
(1663,793,qs),
(1663,865,o),
(1627,973,o),
(1555,1046,o),
(1449,1084,o),
(1378,1084,qs),
(1311,1084,o),
(1203,1048,o),
(1113,982,o),
(1040,893,o),
(1008,841,q),
(1005,956,o),
(854,1084,o),
(721,1084,qs),
(671,1084,o),
(592,1068,o),
(517,1027,o),
(443,959,o),
(397,908,q),
(389,908,l),
(423,1064,l),
(313,1064,l),
(70,0,l),
(180,0,l),
(320,614,ls),
(336,683,o),
(407,821,o),
(509,932,o),
(641,1003,o),
(717,1003,qs),
(815,1003,o),
(897,895,o),
(897,804,qs),
(897,766,o),
(888,691,o),
(878,652,q),
(728,0,l),
(838,0,l),
(980,614,l),
(997,683,o),
(1065,821,o),
(1166,932,o),
(1295,1003,o),
(1371,1003,qs),
(1474,1003,o),
(1558,888,o),
(1558,793,qs),
(1558,780,o),
(1557,750,o),
(1551,704,o),
(1538,636,o),
(1527,583,q),
(1388,0,l)
);
}
);
width = 1801;
}
);
unicode = 109;
},
{
glyphname = n;
layers = (
{
layerId = "96221EC5-23C3-47D4-93F5-B4F733922506";
shapes = (
{
closed = 1;
nodes = (
(712,0,l),
(1000,0,l),
(1139,622,ls),
(1148,660,o),
(1155,735,o),
(1155,768,qs),
(1155,842,o),
(1116,959,o),
(1040,1041,o),
(929,1084,o),
(857,1084,qs),
(813,1084,o),
(731,1070,o),
(654,1042,o),
(582,999,o),
(549,969,q),
(488,969,l),
(398,549,l),
(441,549,l),
(453,606,o),
(515,706,o),
(601,779,o),
(702,822,o),
(753,822,qs),
(805,822,o),
(867,770,o),
(867,726,qs),
(867,710,o),
(864,676,o),
(859,642,o),
(853,608,o),
(849,592,qs)
);
},
{
closed = 1;
nodes = (
(310,0,l),
(565,1064,l),
(277,1064,l),
(22,0,l)
);
}
);
width = 1241;
},
{
layerId = "B233C9FF-3FF4-4605-8A2F-BA759C1250EC";
shapes = (
{
closed = 1;
nodes = (
(679,0,l),
(938,0,l),
(1076,628,ls),
(1084,663,o),
(1093,730,o),
(1093,763,qs),
(1093,828,o),
(1058,945,o),
(982,1033,o),
(864,1084,o),
(780,1084,qs),
(733,1084,o),
(654,1068,o),
(583,1035,o),
(516,986,o),
(481,953,q),
(416,953,l),
(332,578,l),
(381,578,l),
(393,632,o),
(460,730,o),
(553,805,o),
(663,850,o),
(718,850,qs),
(777,850,o),
(835,791,o),
(835,733,qs),
(835,720,o),
(833,694,o),
(829,667,o),
(823,639,o),
(820,624,qs)
);
},
{
closed = 1;
nodes = (
(276,0,l),
(531,1064,l),
(267,1064,l),
(12,0,l)
);
}
);
width = 1166;
},
{
layerId = "197E8B11-68AA-4AD5-97B2-73874077EF42";
shapes = (
{
closed = 1;
nodes = (
(725,0,l),
(914,0,l),
(1057,642,ls),
(1065,678,o),
(1074,747,o),
(1074,780,qs),
(1074,842,o),
(1042,952,o),
(973,1035,o),
(861,1084,o),
(781,1084,qs),
(731,1084,o),
(639,1057,o),
(554,1010,o),
(475,946,o),
(439,909,q),
(376,909,l),
(303,579,l),
(351,579,l),
(367,642,o),
(442,763,o),
(546,856,o),
(673,913,o),
(741,913,qs),
(817,913,o),
(886,833,o),
(886,759,qs),
(886,743,o),
(884,711,o),
(878,670,o),
(867,615,o),
(858,576,qs)
);
},
{
closed = 1;
nodes = (
(229,0,l),
(481,1064,l),
(293,1064,l),
(40,0,l)
);
}
);
width = 1176;
},
{
layerId = "78E15571-ED7D-4566-909A-841824FB4F05";
shapes = (
{
closed = 1;
nodes = (
(772,0,l),
(883,0,l),
(1032,659,ls),
(1040,693,o),
(1047,765,o),
(1047,800,qs),
(1047,857,o),
(1020,960,o),
(957,1038,o),
(854,1084,o),
(777,1084,qs),
(724,1084,o),
(617,1045,o),
(517,983,o),
(426,903,o),
(387,860,q),
(327,860,l),
(266,579,l),
(314,579,l),
(333,654,o),
(417,799,o),
(534,913,o),
(679,984,o),
(761,984,qs),
(856,984,o),
(939,880,o),
(939,789,qs),
(939,770,o),
(937,731,o),
(928,673,o),
(911,588,o),
(894,522,q)
);
},
{
closed = 1;
nodes = (
(171,0,l),
(421,1064,l),
(316,1064,l),
(66,0,l)
);
}
);
width = 1181;
}
);
unicode = 110;
},
{
glyphname = o;
layers = (
{
layerId = "96221EC5-23C3-47D4-93F5-B4F733922506";
shapes = (
{
closed = 1;
nodes = (
(563,-20,o),
(734,26,o),
(885,110,o),
(1010,230,o),
(1099,378,o),
(1149,549,o),
(1149,643,qs),
(1149,744,o),
(1085,907,o),
(970,1022,o),
(809,1084,o),
(712,1084,qs),
(619,1084,o),
(447,1035,o),
(296,944,o),
(172,818,o),
(83,666,o),
(34,491,o),
(34,397,qs),
(34,299,o),
(101,144,o),
(219,36,o),
(379,-20,o),
(472,-20,qs)
);
},
{
closed = 1;
nodes = (
(463,220,o),
(391,243,o),
(342,289,o),
(315,360,o),
(315,408,qs),
(315,457,o),
(338,560,o),
(382,657,o),
(445,743,o),
(525,807,o),
(620,844,o),
(675,844,qs),
(720,844,o),
(791,819,o),
(841,769,o),
(867,696,o),
(867,648,qs),
(867,598,o),
(845,495,o),
(803,400,o),
(741,317,o),
(661,256,o),
(564,220,o),
(508,220,qs)
);
}
);
width = 1178;
},
{
layerId = "B233C9FF-3FF4-4605-8A2F-BA759C1250EC";
shapes = (
{
closed = 1;
nodes = (
(577,-20,o),
(744,29,o),
(890,118,o),
(1011,242,o),
(1098,390,o),
(1146,558,o),
(1146,647,qs),
(1146,749,o),
(1082,911,o),
(968,1024,o),
(807,1084,o),
(709,1084,qs),
(621,1084,o),
(454,1034,o),
(308,943,o),
(187,818,o),
(100,668,o),
(52,499,o),
(52,411,qs),
(52,310,o),
(116,151,o),
(231,39,o),
(391,-20,o),
(488,-20,qs)
);
},
{
closed = 1;
nodes = (
(461,195,o),
(385,221,o),
(333,273,o),
(306,349,o),
(306,398,qs),
(306,452,o),
(329,564,o),
(374,669,o),
(440,761,o),
(525,830,o),
(627,869,o),
(687,869,qs),
(737,869,o),
(814,841,o),
(865,787,o),
(892,708,o),
(892,657,qs),
(892,604,o),
(868,493,o),
(823,390,o),
(757,300,o),
(672,233,o),
(569,195,o),
(510,195,qs)
);
}
);
width = 1189;
},
{
layerId = "197E8B11-68AA-4AD5-97B2-73874077EF42";
shapes = (
{
closed = 1;
nodes = (
(567,-20,o),
(729,32,o),
(870,126,o),
(987,254,o),
(1069,404,o),
(1115,571,o),
(1115,656,qs),
(1115,749,o),
(1057,907,o),
(950,1021,o),
(798,1084,o),
(705,1084,qs),
(616,1084,o),
(454,1030,o),
(313,934,o),
(197,803,o),
(115,651,o),
(70,482,o),
(70,397,qs),
(70,304,o),
(128,150,o),
(235,40,o),
(386,-20,o),
(479,-20,qs)
);
},
{
closed = 1;
nodes = (
(435,140,o),
(348,176,o),
(288,240,o),
(256,330,o),
(256,386,qs),
(256,446,o),
(284,573,o),
(336,693,o),
(412,798,o),
(509,878,o),
(625,924,o),
(691,924,qs),
(749,924,o),
(838,888,o),
(897,822,o),
(928,729,o),
(928,672,qs),
(928,611,o),
(901,485,o),
(849,367,o),
(774,263,o),
(677,185,o),
(560,140,o),
(492,140,qs)
);
}
);
width = 1179;
},
{
layerId = "78E15571-ED7D-4566-909A-841824FB4F05";
shapes = (
{
closed = 1;
nodes = (
(561,-20,o),
(719,37,o),
(854,135,o),
(965,268,o),
(1044,421,o),
(1087,585,o),
(1087,667,qs),
(1087,751,o),
(1033,903,o),
(935,1017,o),
(794,1084,o),
(705,1084,qs),
(618,1084,o),
(459,1026,o),
(324,925,o),
(214,788,o),
(138,632,o),
(96,464,o),
(96,382,qs),
(96,297,o),
(148,150,o),
(246,42,o),
(386,-20,o),
(475,-20,qs)
);
},
{
closed = 1;
nodes = (
(413,80,o),
(312,125,o),
(243,204,o),
(207,311,o),
(207,373,qs),
(207,440,o),
(239,584,o),
(299,719,o),
(387,840,o),
(496,931,o),
(627,984,o),
(702,984,qs),
(769,984,o),
(870,939,o),
(939,860,o),
(973,752,o),
(973,689,qs),
(973,620,o),
(943,476,o),
(884,340,o),
(798,221,o),
(688,133,o),
(554,80,o),
(477,80,qs)
);
}
);
width = 1175;
}
);
leftKerningGroup = a;
unicode = 111;
},
{
glyphname = p;
layers = (
{
layerId = "96221EC5-23C3-47D4-93F5-B4F733922506";
shapes = (
{
closed = 1;
nodes = (
(214,-449,l),
(351,100,l),
(373,68,o),
(434,23,o),
(506,-7,o),
(585,-20,o),
(623,-20,qs),
(711,-20,o),
(867,37,o),
(997,137,o),
(1100,271,o),
(1171,426,o),
(1208,593,o),
(1208,676,qs),
(1208,764,o),
(1162,914,o),
(1071,1023,o),
(933,1084,o),
(842,1084,qs),
(758,1084,o),
(605,1038,o),
(543,982,q),
(559,1064,l),
(270,1064,l),
(-83,-449,l)
);
},
{
closed = 1;
nodes = (
(543,240,o),
(476,260,o),
(429,303,o),
(403,369,o),
(403,414,qs),
(403,464,o),
(424,566,o),
(464,659,o),
(522,740,o),
(598,799,o),
(690,834,o),
(744,834,qs),
(787,834,o),
(854,812,o),
(900,767,o),
(925,700,o),
(925,655,qs),
(925,606,o),
(905,507,o),
(866,414,o),
(808,334,o),
(732,274,o),
(639,240,o),
(585,240,qs)
);
}
);
width = 1292;
},
{
layerId = "B233C9FF-3FF4-4605-8A2F-BA759C1250EC";
shapes = (
{
closed = 1;
nodes = (
(173,-449,l),
(313,112,l),
(335,76,o),
(397,26,o),
(470,-6,o),
(551,-20,o),
(591,-20,qs),
(680,-20,o),
(835,39,o),
(963,141,o),
(1064,278,o),
(1133,434,o),
(1170,601,o),
(1170,682,qs),
(1170,769,o),
(1126,916,o),
(1036,1024,o),
(902,1084,o),
(812,1084,qs),
(717,1084,o),
(563,1028,o),
(500,970,q),
(521,1064,l),
(263,1064,l),
(-91,-449,l)
);
},
{
closed = 1;
nodes = (
(507,210,o),
(436,236,o),
(388,285,o),
(364,357,o),
(364,402,qs),
(364,453,o),
(386,561,o),
(429,663,o),
(492,754,o),
(573,822,o),
(671,861,o),
(727,861,qs),
(775,861,o),
(847,835,o),
(894,785,o),
(918,712,o),
(918,665,qs),
(918,612,o),
(896,504,o),
(855,403,o),
(793,314,o),
(712,248,o),
(612,210,o),
(553,210,qs)
);
}
);
width = 1209;
},
{
layerId = "197E8B11-68AA-4AD5-97B2-73874077EF42";
shapes = (
{
closed = 1;
nodes = (
(122,-449,l),
(267,140,l),
(288,96,o),
(350,35,o),
(426,-3,o),
(513,-20,o),
(560,-20,qs),
(648,-20,o),
(801,42,o),
(926,149,o),
(1024,291,o),
(1091,450,o),
(1125,618,o),
(1125,696,qs),
(1125,778,o),
(1085,920,o),
(1001,1024,o),
(873,1084,o),
(786,1084,qs),
(681,1084,o),
(511,1011,o),
(442,939,q),
(473,1064,l),
(286,1064,l),
(-68,-449,l)
);
},
{
closed = 1;
nodes = (
(469,142,o),
(390,177,o),
(339,240,o),
(315,327,o),
(315,378,qs),
(315,436,o),
(340,561,o),
(388,682,o),
(458,792,o),
(550,875,o),
(662,924,o),
(728,924,qs),
(784,924,o),
(866,889,o),
(919,826,o),
(944,738,o),
(944,685,qs),
(944,626,o),
(919,500,o),
(871,379,o),
(799,271,o),
(706,189,o),
(592,142,o),
(525,142,qs)
);
}
);
width = 1181;
},
{
layerId = "78E15571-ED7D-4566-909A-841824FB4F05";
shapes = (
{
closed = 1;
nodes = (
(73,-451,l),
(224,172,l),
(245,120,o),
(307,47,o),
(384,0,o),
(479,-20,o),
(533,-20,qs),
(621,-20,o),
(771,47,o),
(893,158,o),
(988,306,o),
(1051,468,o),
(1085,636,o),
(1085,713,qs),
(1085,789,o),
(1048,923,o),
(970,1026,o),
(849,1084,o),
(765,1084,qs),
(650,1084,o),
(463,992,o),
(387,903,q),
(427,1064,l),
(319,1064,l),
(-35,-451,l)
);
},
{
closed = 1;
nodes = (
(436,66,o),
(347,113,o),
(293,191,o),
(270,294,o),
(270,351,qs),
(270,415,o),
(297,561,o),
(351,705,o),
(430,834,o),
(534,935,o),
(661,995,o),
(736,995,qs),
(802,995,o),
(895,949,o),
(954,871,o),
(982,767,o),
(982,706,qs),
(982,641,o),
(952,494,o),
(897,352,o),
(814,223,o),
(708,125,o),
(577,66,o),
(501,66,qs)
);
}
);
width = 1168;
}
);
unicode = 112;
},
{
glyphname = q;
layers = (
{
layerId = "96221EC5-23C3-47D4-93F5-B4F733922506";
shapes = (
{
closed = 1;
nodes = (
(866,-449,l),
(1220,1064,l),
(934,1064,l),
(897,964,l),
(877,997,o),
(815,1043,o),
(742,1071,o),
(663,1084,o),
(626,1084,qs),
(537,1084,o),
(381,1026,o),
(251,926,o),
(149,790,o),
(78,635,o),
(41,468,o),
(41,386,qs),
(41,297,o),
(87,148,o),
(179,40,o),
(316,-20,o),
(407,-20,qs),
(490,-20,o),
(644,26,o),
(706,82,q),
(572,-449,l)
);
},
{
closed = 1;
nodes = (
(463,240,o),
(397,260,o),
(350,303,o),
(325,369,o),
(325,414,qs),
(325,464,o),
(345,565,o),
(386,657,o),
(444,737,o),
(520,797,o),
(612,830,o),
(666,830,qs),
(709,830,o),
(776,810,o),
(822,766,o),
(846,700,o),
(846,654,qs),
(846,606,o),
(825,506,o),
(786,414,o),
(728,334,o),
(652,274,o),
(559,240,o),
(505,240,qs)
);
}
);
width = 1242;
},
{
layerId = "B233C9FF-3FF4-4605-8A2F-BA759C1250EC";
shapes = (
{
closed = 1;
nodes = (
(847,-449,l),
(1201,1064,l),
(945,1064,l),
(908,953,l),
(886,990,o),
(824,1040,o),
(751,1071,o),
(670,1084,o),
(630,1084,qs),
(541,1084,o),
(386,1025,o),
(257,922,o),
(157,784,o),
(87,627,o),
(51,460,o),
(51,380,qs),
(51,294,o),
(95,147,o),
(185,40,o),
(319,-20,o),
(409,-20,qs),
(504,-20,o),
(659,36,o),
(721,94,q),
(585,-449,l)
);
},
{
closed = 1;
nodes = (
(447,210,o),
(376,236,o),
(328,285,o),
(304,356,o),
(304,402,qs),
(304,454,o),
(326,562,o),
(369,663,o),
(432,753,o),
(513,820,o),
(611,859,o),
(669,859,qs),
(718,859,o),
(789,831,o),
(835,780,o),
(857,709,o),
(857,666,qs),
(857,614,o),
(836,506,o),
(794,404,o),
(732,315,o),
(652,249,o),
(552,210,o),
(494,210,qs)
);
}
);
width = 1231;
},
{
layerId = "197E8B11-68AA-4AD5-97B2-73874077EF42";
shapes = (
{
closed = 1;
nodes = (
(801,-449,l),
(1155,1064,l),
(968,1064,l),
(929,926,l),
(907,970,o),
(845,1030,o),
(770,1068,o),
(683,1084,o),
(636,1084,qs),
(548,1084,o),
(396,1022,o),
(270,915,o),
(173,772,o),
(106,613,o),
(71,446,o),
(71,368,qs),
(71,287,o),
(111,145,o),
(193,40,o),
(320,-20,o),
(408,-20,qs),
(515,-20,o),
(682,54,o),
(753,126,q),
(611,-449,l)
);
},
{
closed = 1;
nodes = (
(409,142,o),
(330,176,o),
(279,239,o),
(255,325,o),
(255,377,qs),
(255,435,o),
(279,562,o),
(327,683,o),
(397,792,o),
(489,875,o),
(602,923,o),
(669,923,qs),
(726,923,o),
(805,888,o),
(856,826,o),
(879,740,o),
(879,690,qs),
(879,631,o),
(855,504,o),
(808,383,o),
(738,273,o),
(646,190,o),
(532,142,o),
(465,142,qs)
);
}
);
width = 1200;
},
{
layerId = "78E15571-ED7D-4566-909A-841824FB4F05";
shapes = (
{
closed = 1;
nodes = (
(761,-451,l),
(1113,1064,l),
(1004,1064,l),
(962,896,l),
(940,948,o),
(880,1020,o),
(802,1064,o),
(707,1084,o),
(653,1084,qs),
(566,1084,o),
(417,1019,o),
(296,906,o),
(202,760,o),
(138,598,o),
(104,431,o),
(104,355,qs),
(104,278,o),
(138,142,o),
(214,40,o),
(334,-20,o),
(419,-20,qs),
(538,-20,o),
(718,74,o),
(800,162,q),
(650,-451,l)
);
},
{
closed = 1;
nodes = (
(378,66,o),
(288,112,o),
(234,188,o),
(210,291,o),
(210,349,qs),
(210,416,o),
(237,562,o),
(290,706,o),
(369,837,o),
(473,935,o),
(604,995,o),
(681,995,qs),
(744,995,o),
(834,951,o),
(889,876,o),
(914,775,o),
(914,717,qs),
(914,651,o),
(887,503,o),
(834,358,o),
(755,227,o),
(651,126,o),
(522,66,o),
(444,66,qs)
);
}
);
width = 1184;
}
);
leftKerningGroup = a;
unicode = 113;
},
{
glyphname = r;
layers = (
{
layerId = "96221EC5-23C3-47D4-93F5-B4F733922506";
shapes = (
{
closed = 1;
nodes = (
(303,0,l),
(418,500,ls),
(430,553,o),
(476,665,o),
(546,757,o),
(641,816,o),
(702,816,qs),
(736,816,o),
(799,801,o),
(829,784,q),
(1011,998,l),
(964,1041,o),
(843,1079,o),
(780,1079,qs),
(735,1079,o),
(657,1054,o),
(591,1010,o),
(536,948,o),
(513,912,q),
(542,1064,l),
(268,1064,l),
(25,0,l)
);
}
);
width = 877;
},
{
layerId = "B233C9FF-3FF4-4605-8A2F-BA759C1250EC";
shapes = (
{
closed = 1;
nodes = (
(266,0,l),
(377,487,l),
(391,545,o),
(440,673,o),
(517,779,o),
(623,848,o),
(694,848,qs),
(727,848,o),
(789,831,o),
(819,813,q),
(974,1006,l),
(933,1042,o),
(816,1079,o),
(758,1079,qs),
(712,1079,o),
(629,1053,o),
(556,1006,o),
(496,942,o),
(472,903,q),
(506,1064,l),
(258,1064,l),
(15,0,l)
);
}
);
width = 853;
},
{
layerId = "197E8B11-68AA-4AD5-97B2-73874077EF42";
shapes = (
{
closed = 1;
nodes = (
(226,0,l),
(349,523,ls),
(364,588,o),
(426,728,o),
(518,844,o),
(642,919,o),
(718,919,qs),
(751,919,o),
(815,901,o),
(841,879,q),
(941,1021,l),
(904,1050,o),
(803,1079,o),
(755,1079,qs),
(700,1079,o),
(602,1048,o),
(518,992,o),
(450,915,o),
(426,868,q),
(470,1064,l),
(284,1064,l),
(40,0,l)
);
}
);
width = 848;
},
{
layerId = "78E15571-ED7D-4566-909A-841824FB4F05";
shapes = (
{
closed = 1;
nodes = (
(183,0,l),
(318,564,ls),
(334,635,o),
(410,788,o),
(520,916,o),
(662,999,o),
(745,999,qs),
(780,999,o),
(844,978,o),
(867,953,q),
(904,1038,l),
(871,1059,o),
(788,1079,o),
(751,1079,qs),
(687,1079,o),
(572,1044,o),
(476,977,o),
(401,885,o),
(374,831,q),
(430,1064,l),
(313,1064,l),
(69,0,l)
);
}
);
width = 845;
}
);
unicode = 114;
},
{
glyphname = s;
layers = (
{
layerId = "96221EC5-23C3-47D4-93F5-B4F733922506";
shapes = (
{
closed = 1;
nodes = (
(-27,268,l),
(-4,204,o),
(83,97,o),
(199,22,o),
(339,-20,o),
(414,-20,qs),
(506,-20,o),
(663,35,o),
(779,132,o),
(844,265,o),
(844,342,qs),
(844,388,o),
(822,462,o),
(772,526,o),
(692,582,o),
(635,609,qs),
(481,682,ls),
(455,695,o),
(423,745,o),
(423,774,qs),
(423,793,o),
(442,827,o),
(474,851,o),
(520,864,o),
(547,864,qs),
(576,864,o),
(631,847,o),
(679,816,o),
(717,773,o),
(729,747,q),
(944,864,l),
(922,914,o),
(844,995,o),
(741,1053,o),
(619,1084,o),
(554,1084,qs),
(464,1084,o),
(310,1029,o),
(197,931,o),
(132,798,o),
(132,720,qs),
(132,677,o),
(153,604,o),
(198,544,o),
(267,493,o),
(314,471,qs),
(481,395,ls),
(514,380,o),
(551,328,o),
(551,296,qs),
(551,275,o),
(534,242,o),
(501,220,o),
(454,208,o),
(424,208,qs),
(383,208,o),
(309,230,o),
(248,271,o),
(204,329,o),
(194,364,q)
);
}
);
width = 951;
},
{
layerId = "B233C9FF-3FF4-4605-8A2F-BA759C1250EC";
shapes = (
{
closed = 1;
nodes = (
(-10,256,l),
(15,194,o),
(101,92,o),
(213,20,o),
(344,-20,o),
(415,-20,qs),
(501,-20,o),
(651,34,o),
(762,129,o),
(825,258,o),
(825,332,qs),
(825,376,o),
(802,447,o),
(752,509,o),
(670,566,o),
(611,595,qs),
(453,672,ls),
(426,685,o),
(395,741,o),
(395,775,qs),
(395,800,o),
(416,842,o),
(454,873,o),
(507,889,o),
(539,889,qs),
(571,889,o),
(633,871,o),
(686,837,o),
(727,790,o),
(740,761,q),
(926,863,l),
(903,913,o),
(826,994,o),
(726,1052,o),
(608,1084,o),
(545,1084,qs),
(460,1084,o),
(314,1030,o),
(206,935,o),
(145,807,o),
(145,733,qs),
(145,690,o),
(166,620,o),
(211,560,o),
(282,509,o),
(331,485,qs),
(502,404,ls),
(535,388,o),
(573,329,o),
(573,293,qs),
(573,267,o),
(551,225,o),
(510,195,o),
(453,178,o),
(418,178,qs),
(377,178,o),
(303,202,o),
(241,246,o),
(194,307,o),
(181,345,q)
);
}
);
width = 950;
},
{
layerId = "197E8B11-68AA-4AD5-97B2-73874077EF42";
shapes = (
{
closed = 1;
nodes = (
(10,240,l),
(35,181,o),
(119,85,o),
(224,17,o),
(346,-20,o),
(411,-20,qs),
(491,-20,o),
(632,33,o),
(737,124,o),
(798,247,o),
(798,317,qs),
(798,358,o),
(775,427,o),
(723,488,o),
(639,547,o),
(578,578,qs),
(415,662,ls),
(387,676,o),
(355,738,o),
(355,777,qs),
(355,809,o),
(380,862,o),
(424,900,o),
(486,921,o),
(523,921,qs),
(558,921,o),
(624,902,o),
(680,866,o),
(723,815,o),
(736,784,q),
(890,868,l),
(869,917,o),
(796,996,o),
(703,1053,o),
(592,1084,o),
(533,1084,qs),
(454,1084,o),
(317,1031,o),
(215,941,o),
(157,819,o),
(157,748,qs),
(157,707,o),
(178,640,o),
(223,581,o),
(297,529,o),
(350,502,qs),
(526,414,ls),
(559,397,o),
(598,331,o),
(598,290,qs),
(598,258,o),
(570,203,o),
(519,163,o),
(450,140,o),
(409,140,qs),
(369,140,o),
(293,166,o),
(228,213,o),
(178,279,o),
(164,320,q)
);
}
);
width = 927;
},
{
layerId = "78E15571-ED7D-4566-909A-841824FB4F05";
shapes = (
{
closed = 1;
nodes = (
(43,212,l),
(71,160,o),
(149,73,o),
(245,13,o),
(351,-22,o),
(405,-22,qs),
(475,-22,o),
(601,30,o),
(695,117,o),
(752,231,o),
(752,295,qs),
(752,333,o),
(727,400,o),
(674,464,o),
(585,528,o),
(521,563,qs),
(351,658,l),
(318,675,o),
(285,740,o),
(285,783,qs),
(285,826,o),
(317,897,o),
(373,948,o),
(450,978,o),
(496,978,qs),
(536,978,o),
(608,956,o),
(670,916,o),
(717,860,o),
(730,826,q),
(827,879,l),
(809,925,o),
(745,999,o),
(661,1053,o),
(564,1083,o),
(511,1083,qs),
(442,1083,o),
(322,1034,o),
(232,950,o),
(178,837,o),
(178,774,qs),
(178,734,o),
(201,667,o),
(249,607,o),
(324,549,o),
(379,519,qs),
(564,419,l),
(603,399,o),
(643,327,o),
(643,283,qs),
(643,242,o),
(603,166,o),
(536,108,o),
(446,74,o),
(397,74,qs),
(354,74,o),
(275,103,o),
(206,156,o),
(151,230,o),
(133,275,q)
);
}
);
width = 888;
}
);
leftKerningGroup = a;
unicode = 115;
},
{
glyphname = t;
layers = (
{
layerId = "96221EC5-23C3-47D4-93F5-B4F733922506";
shapes = (
{
closed = 1;
nodes = (
(439,-22,o),
(496,-18,o),
(555,-11,o),
(611,0,o),
(633,8,q),
(684,279,l),
(643,257,o),
(555,229,o),
(506,229,qs),
(488,229,o),
(454,234,o),
(428,248,o),
(412,275,o),
(412,298,qs),
(412,317,o),
(418,361,o),
(427,406,o),
(438,449,o),
(442,467,qs),
(526,828,l),
(806,828,l),
(863,1064,l),
(585,1064,l),
(691,1474,l),
(374,1302,l),
(316,1064,l),
(143,1064,l),
(87,828,l),
(257,828,l),
(144,315,ls),
(140,295,o),
(135,255,o),
(135,234,qs),
(135,172,o),
(179,76,o),
(255,11,o),
(357,-22,o),
(415,-22,qs)
);
}
);
width = 824;
},
{
layerId = "B233C9FF-3FF4-4605-8A2F-BA759C1250EC";
shapes = (
{
closed = 1;
nodes = (
(435,-20,o),
(484,-17,o),
(534,-11,o),
(582,-1,o),
(600,6,q),
(644,245,l),
(601,222,o),
(519,200,o),
(479,200,qs),
(457,200,o),
(421,208,o),
(397,226,o),
(385,255,o),
(385,276,qs),
(385,281,o),
(386,293,o),
(387,305,o),
(390,318,o),
(391,325,q),
(511,855,l),
(788,855,l),
(839,1064,l),
(562,1064,l),
(665,1455,l),
(376,1293,l),
(319,1064,l),
(150,1064,l),
(100,855,l),
(267,855,l),
(147,309,ls),
(142,287,o),
(137,244,o),
(137,221,qs),
(137,159,o),
(181,68,o),
(256,8,o),
(357,-20,o),
(415,-20,qs)
);
}
);
width = 797;
},
{
layerId = "197E8B11-68AA-4AD5-97B2-73874077EF42";
shapes = (
{
closed = 1;
nodes = (
(387,-21,o),
(425,-19,o),
(464,-13,o),
(502,-5,o),
(518,0,q),
(546,166,l),
(512,151,o),
(446,133,o),
(413,133,qs),
(388,133,o),
(351,143,o),
(328,164,o),
(317,194,o),
(317,215,qs),
(317,227,o),
(323,269,o),
(332,318,o),
(343,368,o),
(347,388,q),
(467,915,l),
(742,915,l),
(777,1064,l),
(503,1064,l),
(596,1413,l),
(375,1277,l),
(320,1064,l),
(155,1064,l),
(121,915,l),
(284,915,l),
(147,297,ls),
(141,270,o),
(135,218,o),
(135,191,qs),
(135,138,o),
(168,59,o),
(230,6,o),
(317,-21,o),
(370,-21,qs)
);
}
);
width = 718;
},
{
layerId = "78E15571-ED7D-4566-909A-841824FB4F05";
shapes = (
{
closed = 1;
nodes = (
(359,-23,o),
(385,-21,o),
(410,-16,o),
(436,-11,o),
(451,-6,q),
(461,81,l),
(437,72,o),
(388,58,o),
(362,58,qs),
(334,58,o),
(297,71,o),
(274,95,o),
(265,128,o),
(265,146,qs),
(265,167,o),
(277,244,o),
(295,333,o),
(315,424,o),
(323,459,qs),
(443,980,l),
(714,980,l),
(731,1064,l),
(461,1064,l),
(542,1367,l),
(398,1259,l),
(346,1064,l),
(185,1064,l),
(168,980,l),
(326,980,l),
(171,284,l),
(165,252,o),
(155,190,o),
(155,158,qs),
(155,116,o),
(179,49,o),
(226,2,o),
(296,-23,o),
(343,-23,qs)
);
}
);
width = 679;
}
);
unicode = 116;
},
{
glyphname = u;
layers = (
{
layerId = "96221EC5-23C3-47D4-93F5-B4F733922506";
shapes = (
{
closed = 1;
nodes = (
(437,-24,o),
(522,-9,o),
(602,21,o),
(676,65,o),
(708,94,q),
(689,0,l),
(978,0,l),
(1223,1064,l),
(926,1064,l),
(813,570,ls),
(798,504,o),
(756,386,o),
(685,298,o),
(580,247,o),
(502,247,qs),
(475,247,o),
(426,254,o),
(387,276,o),
(364,316,o),
(364,349,qs),
(364,372,o),
(371,418,o),
(376,439,qs),
(519,1064,l),
(227,1064,l),
(123,609,ls),
(109,549,o),
(92,465,o),
(82,399,o),
(78,346,o),
(78,318,qs),
(78,242,o),
(118,116,o),
(198,26,o),
(315,-24,o),
(393,-24,qs)
);
}
);
width = 1242;
},
{
layerId = "B233C9FF-3FF4-4605-8A2F-BA759C1250EC";
shapes = (
{
closed = 1;
nodes = (
(438,-24,o),
(523,-9,o),
(606,25,o),
(686,76,o),
(723,112,q),
(699,0,l),
(955,0,l),
(1201,1064,l),
(937,1064,l),
(818,547,ls),
(803,480,o),
(748,360,o),
(664,268,o),
(549,214,o),
(473,214,qs),
(440,214,o),
(390,229,o),
(357,259,o),
(340,304,o),
(340,334,qs),
(340,353,o),
(347,403,o),
(354,434,qs),
(498,1064,l),
(238,1064,l),
(101,450,ls),
(97,432,o),
(92,397,o),
(88,362,o),
(86,327,o),
(86,309,qs),
(86,235,o),
(125,112,o),
(203,24,o),
(319,-24,o),
(396,-24,qs)
);
}
);
width = 1228;
},
{
layerId = "197E8B11-68AA-4AD5-97B2-73874077EF42";
shapes = (
{
closed = 1;
nodes = (
(447,-24,o),
(546,1,o),
(639,48,o),
(722,115,o),
(754,156,q),
(717,0,l),
(902,0,l),
(1147,1064,l),
(959,1064,l),
(811,442,l),
(800,392,o),
(735,285,o),
(637,196,o),
(509,139,o),
(432,139,qs),
(392,139,o),
(336,161,o),
(300,202,o),
(283,260,o),
(283,297,qs),
(283,325,o),
(292,388,o),
(300,422,qs),
(446,1064,l),
(258,1064,l),
(120,443,l),
(115,424,o),
(109,386,o),
(105,348,o),
(102,309,o),
(102,289,qs),
(102,218,o),
(139,102,o),
(212,20,o),
(323,-24,o),
(398,-24,qs)
);
}
);
width = 1188;
},
{
layerId = "78E15571-ED7D-4566-909A-841824FB4F05";
shapes = (
{
closed = 1;
nodes = (
(470,-24,o),
(585,13,o),
(690,75,o),
(775,159,o),
(801,206,q),
(750,0,l),
(857,0,l),
(1101,1064,l),
(997,1064,l),
(817,325,ls),
(809,293,o),
(735,201,o),
(621,117,o),
(478,57,o),
(401,57,qs),
(353,57,o),
(288,86,o),
(251,139,o),
(234,212,o),
(234,255,qs),
(234,295,o),
(244,372,o),
(252,409,qs),
(401,1064,l),
(294,1064,l),
(153,436,l),
(150,415,o),
(141,374,o),
(137,333,o),
(134,290,o),
(134,268,qs),
(134,199,o),
(168,90,o),
(236,16,o),
(343,-24,o),
(413,-24,qs)
);
}
);
width = 1169;
}
);
leftKerningGroup = a;
unicode = 117;
},
{
glyphname = v;
layers = (
{
layerId = "96221EC5-23C3-47D4-93F5-B4F733922506";
shapes = (
{
closed = 1;
nodes = (
(538,0,l),
(1227,1064,l),
(906,1064,l),
(499,376,l),
(414,1064,l),
(100,1064,l),
(301,0,l)
);
}
);
width = 1079;
},
{
layerId = "B233C9FF-3FF4-4605-8A2F-BA759C1250EC";
shapes = (
{
closed = 1;
nodes = (
(518,0,l),
(1197,1064,l),
(911,1064,l),
(482,336,l),
(395,1064,l),
(116,1064,l),
(305,0,l)
);
}
);
width = 1064;
},
{
layerId = "197E8B11-68AA-4AD5-97B2-73874077EF42";
shapes = (
{
closed = 1;
nodes = (
(471,0,l),
(1126,1064,l),
(919,1064,l),
(441,243,l),
(349,1064,l),
(147,1064,l),
(310,0,l)
);
}
);
width = 1022;
},
{
layerId = "78E15571-ED7D-4566-909A-841824FB4F05";
shapes = (
{
closed = 1;
nodes = (
(432,0,l),
(1059,1064,l),
(942,1064,l),
(410,140,l),
(312,1064,l),
(194,1064,l),
(328,0,l)
);
}
);
width = 1001;
}
);
unicode = 118;
},
{
glyphname = w;
layers = (
{
layerId = "96221EC5-23C3-47D4-93F5-B4F733922506";
shapes = (
{
closed = 1;
nodes = (
(457,-5,l),
(804,645,l),
(850,0,l),
(1111,0,l),
(1695,1064,l),
(1381,1064,l),
(1064,458,l),
(1020,1064,l),
(771,1064,l),
(444,456,l),
(418,1064,l),
(122,1064,l),
(208,-5,l)
);
}
);
width = 1562;
},
{
layerId = "B233C9FF-3FF4-4605-8A2F-BA759C1250EC";
shapes = (
{
closed = 1;
nodes = (
(439,-4,l),
(812,697,l),
(857,0,l),
(1093,0,l),
(1667,1064,l),
(1388,1064,l),
(1047,399,l),
(1004,1064,l),
(778,1064,l),
(424,397,l),
(399,1064,l),
(135,1064,l),
(213,-4,l)
);
}
);
width = 1549;
},
{
layerId = "197E8B11-68AA-4AD5-97B2-73874077EF42";
shapes = (
{
closed = 1;
nodes = (
(391,-2,l),
(819,804,l),
(869,0,l),
(1048,0,l),
(1601,1064,l),
(1398,1064,l),
(1007,278,l),
(960,1064,l),
(790,1064,l),
(375,276,l),
(352,1064,l),
(161,1064,l),
(219,-2,l)
);
}
);
width = 1510;
},
{
layerId = "78E15571-ED7D-4566-909A-841824FB4F05";
shapes = (
{
closed = 1;
nodes = (
(352,-1,l),
(842,923,l),
(895,0,l),
(1011,0,l),
(1541,1064,l),
(1422,1064,l),
(977,143,l),
(924,1064,l),
(816,1064,l),
(335,141,l),
(313,1064,l),
(202,1064,l),
(237,-1,l)
);
}
);
width = 1491;
}
);
unicode = 119;
},
{
glyphname = x;
layers = (
{
layerId = "96221EC5-23C3-47D4-93F5-B4F733922506";
shapes = (
{
closed = 1;
nodes = (
(1007,0,l),
(764,537,l),
(1261,1064,l),
(896,1064,l),
(604,727,l),
(472,1064,l),
(125,1064,l),
(364,537,l),
(-130,0,l),
(233,0,l),
(525,344,l),
(654,0,l)
);
}
);
width = 1141;
},
{
layerId = "B233C9FF-3FF4-4605-8A2F-BA759C1250EC";
shapes = (
{
closed = 1;
nodes = (
(959,0,l),
(720,537,l),
(1213,1064,l),
(888,1064,l),
(585,714,l),
(447,1064,l),
(137,1064,l),
(375,537,l),
(-116,0,l),
(208,0,l),
(512,357,l),
(647,0,l)
);
}
);
width = 1105;
},
{
layerId = "197E8B11-68AA-4AD5-97B2-73874077EF42";
shapes = (
{
closed = 1;
nodes = (
(850,0,l),
(616,541,l),
(1094,1064,l),
(862,1064,l),
(530,682,l),
(379,1064,l),
(155,1064,l),
(387,544,l),
(-104,0,l),
(132,0,l),
(474,401,l),
(625,0,l)
);
}
);
width = 1006;
},
{
layerId = "78E15571-ED7D-4566-909A-841824FB4F05";
shapes = (
{
closed = 1;
nodes = (
(762,0,l),
(532,546,l),
(994,1064,l),
(864,1064,l),
(500,646,l),
(334,1064,l),
(205,1064,l),
(432,552,l),
(-59,0,l),
(78,0,l),
(462,449,l),
(633,0,l)
);
}
);
width = 957;
}
);
unicode = 120;
},
{
glyphname = y;
layers = (
{
layerId = "96221EC5-23C3-47D4-93F5-B4F733922506";
shapes = (
{
closed = 1;
nodes = (
(290,-440,l),
(1261,1064,l),
(936,1064,l),
(510,374,l),
(418,1064,l),
(103,1064,l),
(283,48,l),
(-34,-440,l)
);
}
);
width = 1121;
},
{
layerId = "B233C9FF-3FF4-4605-8A2F-BA759C1250EC";
shapes = (
{
closed = 1;
nodes = (
(270,-440,l),
(1230,1064,l),
(940,1064,l),
(496,334,l),
(399,1064,l),
(118,1064,l),
(294,41,l),
(-17,-440,l)
);
}
);
width = 1104;
},
{
layerId = "197E8B11-68AA-4AD5-97B2-73874077EF42";
shapes = (
{
closed = 1;
nodes = (
(223,-441,l),
(1156,1064,l),
(947,1064,l),
(458,241,l),
(353,1064,l),
(147,1064,l),
(315,24,l),
(18,-441,l)
);
}
);
width = 1057;
},
{
layerId = "78E15571-ED7D-4566-909A-841824FB4F05";
shapes = (
{
closed = 1;
nodes = (
(184,-441,l),
(1087,1064,l),
(968,1064,l),
(428,138,l),
(314,1064,l),
(194,1064,l),
(353,5,l),
(69,-441,l)
);
}
);
width = 1033;
}
);
unicode = 121;
},
{
glyphname = z;
layers = (
{
layerId = "96221EC5-23C3-47D4-93F5-B4F733922506";
shapes = (
{
closed = 1;
nodes = (
(898,0,l),
(954,234,l),
(400,234,l),
(1100,869,l),
(1144,1064,l),
(205,1064,l),
(148,828,l),
(697,828,l),
(-31,181,l),
(-71,0,l)
);
}
);
width = 1096;
},
{
layerId = "B233C9FF-3FF4-4605-8A2F-BA759C1250EC";
shapes = (
{
closed = 1;
nodes = (
(872,0,l),
(923,210,l),
(349,210,l),
(1077,886,l),
(1117,1064,l),
(210,1064,l),
(160,855,l),
(725,855,l),
(-29,166,l),
(-65,0,l)
);
}
);
width = 1073;
},
{
layerId = "197E8B11-68AA-4AD5-97B2-73874077EF42";
shapes = (
{
closed = 1;
nodes = (
(807,0,l),
(844,153,l),
(226,153,l),
(1020,923,l),
(1051,1064,l),
(215,1064,l),
(180,915,l),
(781,915,l),
(-32,129,l),
(-60,0,l)
);
}
);
width = 1009;
},
{
layerId = "78E15571-ED7D-4566-909A-841824FB4F05";
shapes = (
{
closed = 1;
nodes = (
(756,0,l),
(778,92,l),
(112,92,l),
(978,964,l),
(1000,1064,l),
(241,1064,l),
(224,980,l),
(865,980,l),
(-14,89,l),
(-35,0,l)
);
}
);
width = 976;
}
);
unicode = 122;
},
{
glyphname = braceleft;
layers = (
{
layerId = "96221EC5-23C3-47D4-93F5-B4F733922506";
shapes = (
{
closed = 1;
nodes = (
(427,-169,l),
(469,14,l),
(398,14,ls),
(368,14,o),
(324,42,o),
(324,73,qs),
(324,96,o),
(330,142,o),
(339,180,qs),
(392,407,ls),
(398,434,o),
(407,488,o),
(407,513,qs),
(407,561,o),
(369,646,o),
(319,678,q),
(354,697,o),
(413,742,o),
(459,795,o),
(493,859,o),
(502,899,qs),
(622,1423,ls),
(625,1436,o),
(635,1455,o),
(649,1468,o),
(666,1475,o),
(677,1475,qs),
(804,1475,l),
(842,1640,l),
(694,1640,ls),
(624,1640,o),
(519,1607,o),
(443,1540,o),
(393,1440,o),
(378,1374,qs),
(278,938,ls),
(271,910,o),
(238,860,o),
(190,821,o),
(132,795,o),
(100,791,q),
(73,612,l),
(95,604,o),
(131,586,o),
(155,561,o),
(168,526,o),
(168,501,qs),
(168,483,o),
(162,438,o),
(155,410,qs),
(93,148,ls),
(87,121,o),
(79,66,o),
(79,38,qs),
(79,-10,o),
(111,-86,o),
(171,-140,o),
(257,-169,o),
(310,-169,qs)
);
}
);
width = 637;
},
{
layerId = "B233C9FF-3FF4-4605-8A2F-BA759C1250EC";
shapes = (
{
closed = 1;
nodes = (
(410,-166,l),
(447,0,l),
(370,0,ls),
(337,0,o),
(303,35,o),
(303,68,qs),
(303,82,o),
(307,109,o),
(310,124,qs),
(373,394,ls),
(379,421,o),
(386,473,o),
(386,499,qs),
(386,555,o),
(345,647,o),
(294,673,q),
(335,692,o),
(400,739,o),
(448,793,o),
(480,856,o),
(488,891,qs),
(586,1315,ls),
(595,1353,o),
(618,1408,o),
(648,1444,o),
(685,1460,o),
(707,1460,qs),
(784,1460,l),
(823,1615,l),
(688,1615,ls),
(625,1615,o),
(526,1586,o),
(452,1524,o),
(401,1429,o),
(386,1363,qs),
(286,927,ls),
(280,900,o),
(252,854,o),
(208,816,o),
(148,787,o),
(109,776,q),
(84,612,l),
(108,602,o),
(143,579,o),
(167,550,o),
(178,514,o),
(178,493,qs),
(178,482,o),
(175,457,o),
(172,444,qs),
(102,140,ls),
(96,112,o),
(89,61,o),
(89,38,qs),
(89,-9,o),
(120,-84,o),
(179,-137,o),
(261,-166,o),
(312,-166,qs)
);
}
);
width = 633;
},
{
layerId = "197E8B11-68AA-4AD5-97B2-73874077EF42";
shapes = (
{
closed = 1;
nodes = (
(404,-138,l),
(427,-28,l),
(362,-28,ls),
(319,-28,o),
(273,7,o),
(273,40,qs),
(273,60,o),
(279,93,o),
(284,119,q),
(345,391,ls),
(351,419,o),
(358,468,o),
(358,491,qs),
(358,548,o),
(303,632,o),
(235,660,q),
(292,682,o),
(371,728,o),
(424,787,o),
(458,866,o),
(470,920,qs),
(548,1273,ls),
(559,1325,o),
(587,1395,o),
(625,1438,o),
(675,1457,o),
(709,1457,qs),
(753,1457,l),
(778,1564,l),
(686,1564,ls),
(625,1564,o),
(531,1538,o),
(462,1483,o),
(416,1398,o),
(403,1338,qs),
(304,901,ls),
(298,872,o),
(268,822,o),
(223,782,o),
(163,752,o),
(126,743,q),
(108,612,l),
(133,601,o),
(168,574,o),
(190,543,o),
(199,506,o),
(199,486,qs),
(199,468,o),
(194,430,o),
(189,409,qs),
(124,122,ls),
(119,99,o),
(112,57,o),
(112,36,qs),
(112,-3,o),
(143,-67,o),
(196,-113,o),
(267,-138,o),
(307,-138,qs)
);
}
);
width = 620;
},
{
layerId = "78E15571-ED7D-4566-909A-841824FB4F05";
shapes = (
{
closed = 1;
nodes = (
(400,-107,l),
(409,-58,l),
(355,-58,ls),
(303,-58,o),
(243,-25,o),
(243,9,qs),
(243,35,o),
(249,75,o),
(257,113,qs),
(317,388,ls),
(323,416,o),
(330,464,o),
(330,482,qs),
(330,541,o),
(261,614,o),
(172,645,q),
(247,670,o),
(341,716,o),
(402,781,o),
(436,878,o),
(452,953,q),
(508,1227,ls),
(522,1294,o),
(556,1380,o),
(603,1434,o),
(668,1454,o),
(714,1454,qs),
(720,1454,l),
(730,1507,l),
(688,1507,ls),
(628,1507,o),
(539,1486,o),
(476,1438,o),
(436,1364,o),
(424,1310,qs),
(327,873,l),
(321,841,o),
(289,786,o),
(243,743,o),
(183,713,o),
(147,706,q),
(138,611,l),
(165,598,o),
(198,570,o),
(219,536,o),
(226,499,o),
(226,477,qs),
(226,453,o),
(217,399,o),
(210,372,q),
(150,103,ls),
(146,86,o),
(141,51,o),
(141,35,qs),
(141,3,o),
(170,-49,o),
(217,-86,o),
(276,-107,o),
(304,-107,qs)
);
}
);
width = 614;
}
);
unicode = 123;
},
{
glyphname = bar;
layers = (
{
layerId = "96221EC5-23C3-47D4-93F5-B4F733922506";
shapes = (
{
closed = 1;
nodes = (
(182,-524,l),
(667,1571,l),
(460,1571,l),
(-25,-524,l)
);
}
);
width = 636;
},
{
layerId = "B233C9FF-3FF4-4605-8A2F-BA759C1250EC";
shapes = (
{
closed = 1;
nodes = (
(172,-524,l),
(656,1571,l),
(472,1571,l),
(-12,-524,l)
);
}
);
width = 638;
},
{
layerId = "197E8B11-68AA-4AD5-97B2-73874077EF42";
shapes = (
{
closed = 1;
nodes = (
(149,-525,l),
(634,1571,l),
(501,1571,l),
(16,-525,l)
);
}
);
width = 643;
},
{
layerId = "78E15571-ED7D-4566-909A-841824FB4F05";
shapes = (
{
closed = 1;
nodes = (
(121,-525,l),
(606,1571,l),
(530,1571,l),
(46,-525,l)
);
}
);
width = 646;
}
);
unicode = 124;
},
{
glyphname = braceright;
layers = (
{
layerId = "96221EC5-23C3-47D4-93F5-B4F733922506";
shapes = (
{
closed = 1;
nodes = (
(58,-169,ls),
(134,-169,o),
(239,-129,o),
(311,-53,o),
(356,56,o),
(372,125,qs),
(455,492,ls),
(461,519,o),
(495,559,o),
(541,586,o),
(595,601,o),
(622,603,q),
(649,781,l),
(606,789,o),
(547,833,o),
(547,879,qs),
(547,887,o),
(556,933,o),
(568,988,o),
(582,1043,o),
(586,1061,qs),
(653,1352,ls),
(659,1376,o),
(665,1423,o),
(665,1448,qs),
(665,1500,o),
(634,1573,o),
(577,1619,o),
(498,1640,o),
(450,1640,qs),
(318,1640,l),
(283,1475,l),
(360,1475,ls),
(387,1475,o),
(417,1427,o),
(417,1380,qs),
(417,1362,o),
(411,1317,o),
(406,1291,q),
(321,924,ls),
(319,916,o),
(316,901,o),
(313,886,o),
(312,872,o),
(312,864,qs),
(312,812,o),
(358,732,o),
(403,703,q),
(377,690,o),
(320,652,o),
(270,606,o),
(233,551,o),
(226,520,qs),
(143,151,ls),
(137,123,o),
(117,75,o),
(84,40,o),
(38,19,o),
(6,19,qs),
(-51,19,l),
(-94,-169,l)
);
}
);
width = 637;
},
{
layerId = "B233C9FF-3FF4-4605-8A2F-BA759C1250EC";
shapes = (
{
closed = 1;
nodes = (
(68,-166,ls),
(137,-166,o),
(234,-122,o),
(300,-44,o),
(340,60,o),
(354,120,qs),
(438,488,ls),
(444,513,o),
(482,550,o),
(532,578,o),
(585,597,o),
(606,604,q),
(631,768,l),
(583,784,o),
(531,845,o),
(531,876,qs),
(531,884,o),
(532,903,o),
(534,922,o),
(537,941,o),
(539,948,qs),
(636,1342,l),
(641,1366,o),
(647,1411,o),
(647,1435,qs),
(647,1476,o),
(623,1543,o),
(573,1590,o),
(494,1615,o),
(440,1615,qs),
(314,1615,l),
(279,1460,l),
(345,1460,ls),
(383,1460,o),
(424,1415,o),
(424,1375,qs),
(424,1366,o),
(421,1345,o),
(419,1333,q),
(325,912,ls),
(323,905,o),
(320,891,o),
(319,877,o),
(317,863,o),
(317,856,qs),
(317,804,o),
(368,724,o),
(420,694,q),
(380,677,o),
(316,637,o),
(269,592,o),
(239,542,o),
(232,514,qs),
(148,144,l),
(142,114,o),
(117,61,o),
(81,22,o),
(32,0,o),
(0,0,qs),
(-59,0,l),
(-97,-166,l)
);
}
);
width = 633;
},
{
layerId = "197E8B11-68AA-4AD5-97B2-73874077EF42";
shapes = (
{
closed = 1;
nodes = (
(42,-138,ls),
(116,-138,o),
(213,-91,o),
(276,-17,o),
(310,72,o),
(319,115,qs),
(401,480,ls),
(406,503,o),
(436,541,o),
(481,571,o),
(538,595,o),
(570,605,q),
(588,737,l),
(541,751,o),
(489,808,o),
(489,842,qs),
(489,848,o),
(490,864,o),
(492,881,o),
(495,900,o),
(498,911,qs),
(595,1324,ls),
(600,1345,o),
(606,1387,o),
(606,1406,qs),
(606,1443,o),
(585,1501,o),
(540,1542,o),
(469,1564,o),
(419,1564,qs),
(316,1564,l),
(293,1457,l),
(362,1457,ls),
(402,1457,o),
(441,1412,o),
(441,1373,qs),
(441,1360,o),
(438,1338,o),
(434,1324,q),
(344,934,l),
(339,916,o),
(334,889,o),
(331,867,o),
(330,848,o),
(330,837,qs),
(330,785,o),
(393,705,o),
(459,674,q),
(411,661,o),
(338,628,o),
(286,586,o),
(253,533,o),
(246,501,qs),
(160,128,ls),
(152,93,o),
(123,36,o),
(80,-5,o),
(22,-28,o),
(-15,-28,qs),
(-60,-28,l),
(-85,-138,l)
);
}
);
width = 620;
},
{
layerId = "78E15571-ED7D-4566-909A-841824FB4F05";
shapes = (
{
closed = 1;
nodes = (
(17,-107,ls),
(94,-107,o),
(194,-57,o),
(252,13,o),
(277,87,o),
(283,111,q),
(362,471,ls),
(367,493,o),
(388,531,o),
(429,564,o),
(489,594,o),
(533,607,q),
(543,703,l),
(496,714,o),
(446,768,o),
(446,805,qs),
(446,809,o),
(447,821,o),
(449,836,o),
(452,855,o),
(455,869,qs),
(553,1303,ls),
(558,1324,o),
(563,1359,o),
(563,1375,qs),
(563,1406,o),
(545,1456,o),
(506,1490,o),
(442,1507,o),
(397,1507,qs),
(321,1507,l),
(311,1454,l),
(383,1454,ls),
(426,1454,o),
(462,1409,o),
(462,1372,qs),
(462,1354,o),
(458,1329,o),
(454,1314,qs),
(367,957,ls),
(360,928,o),
(352,888,o),
(348,857,o),
(347,830,o),
(347,816,qs),
(347,763,o),
(423,683,o),
(504,652,q),
(449,645,o),
(365,619,o),
(307,579,o),
(271,523,o),
(263,485,qs),
(177,112,ls),
(167,71,o),
(134,8,o),
(82,-37,o),
(15,-58,o),
(-30,-58,qs),
(-57,-58,l),
(-69,-107,l)
);
}
);
width = 614;
}
);
unicode = 125;
},
{
glyphname = asciitilde;
layers = (
{
layerId = "96221EC5-23C3-47D4-93F5-B4F733922506";
shapes = (
{
closed = 1;
nodes = (
(820,388,o),
(921,422,o),
(986,489,o),
(1018,592,o),
(1018,660,q),
(813,660,l),
(813,641,o),
(808,614,o),
(794,597,o),
(773,589,o),
(757,589,qs),
(741,589,o),
(699,600,o),
(647,618,o),
(587,638,o),
(519,655,o),
(446,667,o),
(407,667,qs),
(344,667,o),
(252,634,o),
(192,571,o),
(163,477,o),
(163,416,q),
(359,416,l),
(361,433,o),
(368,454,o),
(381,466,o),
(398,470,o),
(409,470,qs),
(429,470,o),
(473,458,o),
(523,440,o),
(579,418,o),
(642,400,o),
(711,388,o),
(751,388,qs)
);
}
);
width = 1182;
},
{
layerId = "B233C9FF-3FF4-4605-8A2F-BA759C1250EC";
shapes = (
{
closed = 1;
nodes = (
(817,388,o),
(913,422,o),
(977,490,o),
(1009,593,o),
(1009,660,q),
(826,660,l),
(826,638,o),
(824,603,o),
(811,579,o),
(784,566,o),
(759,566,qs),
(742,566,o),
(703,581,o),
(657,603,o),
(602,629,o),
(536,652,o),
(456,667,o),
(409,667,qs),
(349,667,o),
(261,631,o),
(204,566,o),
(176,473,o),
(176,416,q),
(350,416,l),
(350,435,o),
(353,464,o),
(365,483,o),
(390,493,o),
(411,493,qs),
(431,493,o),
(473,477,o),
(519,454,o),
(572,427,o),
(634,404,o),
(708,388,o),
(753,388,qs)
);
}
);
width = 1185;
},
{
layerId = "197E8B11-68AA-4AD5-97B2-73874077EF42";
shapes = (
{
closed = 1;
nodes = (
(821,389,o),
(909,429,o),
(964,501,o),
(990,601,o),
(990,659,q),
(859,659,l),
(859,633,o),
(854,582,o),
(836,541,o),
(799,515,o),
(767,515,qs),
(740,515,o),
(695,537,o),
(648,571,o),
(599,610,o),
(538,643,o),
(464,665,o),
(416,665,qs),
(361,665,o),
(282,625,o),
(232,557,o),
(208,466,o),
(208,416,q),
(330,416,l),
(330,440,o),
(336,486,o),
(355,521,o),
(389,543,o),
(418,543,qs),
(443,543,o),
(491,520,o),
(540,486,o),
(592,446,o),
(651,412,o),
(719,389,o),
(760,389,qs)
);
}
);
width = 1196;
},
{
layerId = "78E15571-ED7D-4566-909A-841824FB4F05";
shapes = (
{
closed = 1;
nodes = (
(821,389,o),
(899,437,o),
(946,513,o),
(965,610,o),
(965,658,q),
(891,658,l),
(891,629,o),
(883,558,o),
(857,498,o),
(810,458,o),
(770,458,qs),
(734,458,o),
(680,489,o),
(635,535,o),
(590,588,o),
(537,634,o),
(467,665,o),
(419,665,qs),
(369,665,o),
(300,619,o),
(258,547,o),
(238,459,o),
(238,418,q),
(303,418,l),
(303,446,o),
(312,510,o),
(337,565,o),
(383,600,o),
(421,600,qs),
(452,600,o),
(506,568,o),
(558,522,o),
(609,467,o),
(665,420,o),
(727,389,o),
(763,389,qs)
);
}
);
width = 1201;
}
);
unicode = 126;
},
